Agenda-Light.ufo
<glyph name="breve" format="1">
  <advance width="360"/>
  <unicode hex="0005"/>
  <outline>
    <contour>
      <point x="286" y="554" type="line"/>
      <point x="283" y="552"/>
      <point x="265" y="540"/>
      <point x="236" y="526"/>
      <point x="200" y="516"/>
      <point x="180" y="516" type="qcurve" smooth="yes"/>
      <point x="159" y="516"/>
      <point x="123" y="526"/>
      <point x="95" y="540"/>
      <point x="76" y="552"/>
      <point x="73" y="554" type="qcurve" smooth="yes"/>
      <point x="109" y="592" type="line"/>
      <point x="114" y="589"/>
      <point x="156" y="572"/>
      <point x="180" y="572" type="qcurve" smooth="yes"/>
      <point x="205" y="572"/>
      <point x="245" y="589"/>
      <point x="250" y="592" type="qcurve"/>
      <point x="286" y="554" type="line"/>
    </contour>
  </outline>
</glyph>
<glyph name="dotaccent" format="1">
  <advance width="360"/>
  <unicode hex="0006"/>
  <outline>
    <contour>
      <point x="222" y="566" type="qcurve" smooth="yes"/>
      <point x="222" y="560"/>
      <point x="213" y="543"/>
      <point x="201" y="527"/>
      <point x="186" y="516"/>
      <point x="180" y="516" type="qcurve" smooth="yes"/>
      <point x="175" y="516"/>
      <point x="160" y="527"/>
      <point x="147" y="543"/>
      <point x="138" y="560"/>
      <point x="138" y="566" type="qcurve" smooth="yes"/>
      <point x="138" y="572"/>
      <point x="147" y="590"/>
      <point x="160" y="606"/>
      <point x="175" y="617"/>
      <point x="180" y="617" type="qcurve" smooth="yes"/>
      <point x="186" y="617"/>
      <point x="201" y="606"/>
      <point x="213" y="590"/>
      <point x="222" y="572"/>
    </contour>
  </outline>
</glyph>
<glyph name="ring" format="1">
  <advance width="360"/>
  <unicode hex="0008"/>
  <outline>
    <contour>
      <point x="281" y="607" type="qcurve" smooth="yes"/>
      <point x="281" y="586"/>
      <point x="265" y="549"/>
      <point x="237" y="522"/>
      <point x="201" y="506"/>
      <point x="180" y="506" type="qcurve" smooth="yes"/>
      <point x="159" y="506"/>
      <point x="123" y="522"/>
      <point x="95" y="549"/>
      <point x="79" y="586"/>
      <point x="79" y="607" type="qcurve" smooth="yes"/>
      <point x="79" y="628"/>
      <point x="95" y="664"/>
      <point x="123" y="691"/>
      <point x="159" y="707"/>
      <point x="180" y="707" type="qcurve" smooth="yes"/>
      <point x="201" y="707"/>
      <point x="237" y="691"/>
      <point x="265" y="664"/>
      <point x="281" y="628"/>
    </contour>
    <contour>
      <point x="240" y="607" type="qcurve" smooth="yes"/>
      <point x="240" y="633"/>
      <point x="206" y="666"/>
      <point x="180" y="666" type="qcurve" smooth="yes"/>
      <point x="154" y="666"/>
      <point x="120" y="633"/>
      <point x="120" y="607" type="qcurve" smooth="yes"/>
      <point x="120" y="581"/>
      <point x="154" y="547"/>
      <point x="180" y="547" type="qcurve" smooth="yes"/>
      <point x="206" y="547"/>
      <point x="240" y="581"/>
    </contour>
  </outline>
</glyph>
<glyph name="hungarumlaut" format="1">
  <advance width="360"/>
  <unicode hex="000A"/>
  <outline>
    <contour>
      <point x="333" y="647" type="line"/>
      <point x="319" y="624"/>
      <point x="293" y="589"/>
      <point x="264" y="559"/>
      <point x="233" y="531"/>
      <point x="215" y="516" type="qcurve"/>
      <point x="164" y="527" type="line"/>
      <point x="203" y="557"/>
      <point x="274" y="642"/>
      <point x="297" y="684" type="qcurve"/>
      <point x="333" y="647" type="line"/>
    </contour>
    <contour>
      <point x="197" y="647" type="line"/>
      <point x="183" y="624"/>
      <point x="157" y="589"/>
      <point x="129" y="559"/>
      <point x="98" y="531"/>
      <point x="80" y="516" type="qcurve"/>
      <point x="28" y="527" type="line"/>
      <point x="67" y="557"/>
      <point x="138" y="642"/>
      <point x="161" y="684" type="qcurve"/>
      <point x="197" y="647" type="line"/>
    </contour>
  </outline>
</glyph>
<glyph name="ogonek" format="1">
  <advance width="360"/>
  <unicode hex="000B"/>
  <outline>
    <contour>
      <point x="252" y="-211" type="line"/>
      <point x="241" y="-217"/>
      <point x="211" y="-225"/>
      <point x="188" y="-225" type="qcurve" smooth="yes"/>
      <point x="169" y="-225"/>
      <point x="135" y="-214"/>
      <point x="109" y="-192"/>
      <point x="93" y="-161"/>
      <point x="93" y="-140" type="qcurve" smooth="yes"/>
      <point x="93" y="-116"/>
      <point x="112" y="-74"/>
      <point x="143" y="-38"/>
      <point x="182" y="-9"/>
      <point x="203" y="0" type="qcurve"/>
      <point x="262" y="0" type="line"/>
      <point x="238" y="-11"/>
      <point x="194" y="-40"/>
      <point x="160" y="-74"/>
      <point x="140" y="-113"/>
      <point x="140" y="-134" type="qcurve" smooth="yes"/>
      <point x="140" y="-159"/>
      <point x="173" y="-185"/>
      <point x="199" y="-185" type="qcurve" smooth="yes"/>
      <point x="219" y="-185"/>
      <point x="249" y="-176"/>
      <point x="263" y="-167" type="qcurve"/>
    </contour>
  </outline>
</glyph>
<glyph name="caron" format="1">
  <advance width="360"/>
  <unicode hex="000C"/>
  <outline>
    <contour>
      <point x="310" y="620" type="line"/>
      <point x="271" y="603"/>
      <point x="205" y="544"/>
      <point x="180" y="509" type="qcurve"/>
      <point x="154" y="544"/>
      <point x="88" y="603"/>
      <point x="50" y="620" type="qcurve"/>
      <point x="84" y="653" type="line"/>
      <point x="113" y="639"/>
      <point x="160" y="608"/>
      <point x="180" y="585" type="qcurve"/>
      <point x="200" y="608"/>
      <point x="246" y="639"/>
      <point x="275" y="653" type="qcurve"/>
      <point x="310" y="620" type="line"/>
    </contour>
  </outline>
</glyph>
<glyph name="dotlessi" format="1">
  <advance width="230"/>
  <unicode hex="000D"/>
  <outline>
    <contour>
      <point x="83" y="0" type="line"/>
      <point x="83" y="453" type="line"/>
      <point x="147" y="453" type="line"/>
      <point x="147" y="0" type="line"/>
    </contour>
  </outline>
</glyph>
<glyph name="fraction" format="1">
  <advance width="604"/>
  <unicode hex="0019"/>
  <outline>
    <contour>
      <point x="57" y="-19" type="line"/>
      <point x="24" y="9" type="line"/>
      <point x="549" y="657" type="line"/>
      <point x="581" y="630" type="line"/>
    </contour>
  </outline>
</glyph>
<glyph name="fi" format="1">
  <advance width="510"/>
  <unicode hex="001A"/>
  <outline>
    <contour>
      <point x="364" y="0" type="line"/>
      <point x="364" y="401" type="line"/>
      <point x="153" y="401" type="line"/>
      <point x="153" y="0" type="line"/>
      <point x="89" y="0" type="line"/>
      <point x="89" y="401" type="line"/>
      <point x="17" y="401" type="line"/>
      <point x="17" y="453" type="line"/>
      <point x="89" y="453" type="line"/>
      <point x="89" y="503" type="line" smooth="yes"/>
      <point x="89" y="555"/>
      <point x="118" y="635"/>
      <point x="169" y="689"/>
      <point x="240" y="716"/>
      <point x="283" y="716" type="qcurve" smooth="yes"/>
      <point x="315" y="716"/>
      <point x="362" y="704"/>
      <point x="379" y="694" type="qcurve"/>
      <point x="366" y="640" type="line"/>
      <point x="352" y="648"/>
      <point x="305" y="662"/>
      <point x="277" y="662" type="qcurve" smooth="yes"/>
      <point x="222" y="662"/>
      <point x="153" y="581"/>
      <point x="153" y="515" type="qcurve" smooth="yes"/>
      <point x="153" y="453" type="line"/>
      <point x="427" y="453" type="line"/>
      <point x="427" y="0" type="line"/>
    </contour>
  </outline>
</glyph>
<glyph name="fl" format="1">
  <advance width="550"/>
  <unicode hex="001B"/>
  <outline>
    <contour>
      <point x="458" y="-13" type="line"/>
      <point x="445" y="-9"/>
      <point x="417" y="7"/>
      <point x="395" y="34"/>
      <point x="380" y="74"/>
      <point x="380" y="101" type="qcurve" smooth="yes"/>
      <point x="380" y="646" type="line"/>
      <point x="367" y="654"/>
      <point x="328" y="662"/>
      <point x="299" y="662" type="qcurve" smooth="yes"/>
      <point x="268" y="662"/>
      <point x="215" y="639"/>
      <point x="176" y="596"/>
      <point x="153" y="535"/>
      <point x="153" y="497" type="qcurve" smooth="yes"/>
      <point x="153" y="453" type="line"/>
      <point x="265" y="453" type="line"/>
      <point x="253" y="401" type="line"/>
      <point x="153" y="401" type="line"/>
      <point x="153" y="0" type="line"/>
      <point x="89" y="0" type="line"/>
      <point x="89" y="401" type="line"/>
      <point x="17" y="401" type="line"/>
      <point x="17" y="453" type="line"/>
      <point x="89" y="453" type="line"/>
      <point x="89" y="485" type="line" smooth="yes"/>
      <point x="89" y="539"/>
      <point x="122" y="625"/>
      <point x="180" y="684"/>
      <point x="260" y="716"/>
      <point x="307" y="716" type="qcurve" smooth="yes"/>
      <point x="350" y="716"/>
      <point x="418" y="697"/>
      <point x="444" y="676" type="qcurve"/>
      <point x="444" y="108" type="line" smooth="yes"/>
      <point x="444" y="76"/>
      <point x="478" y="35"/>
      <point x="502" y="30" type="qcurve"/>
    </contour>
  </outline>
</glyph>
<glyph name="Lslash" format="1">
  <advance width="450"/>
  <unicode hex="001C"/>
  <outline>
    <contour>
      <point x="75" y="0" type="line"/>
      <point x="75" y="282" type="line"/>
      <point x="26" y="254" type="line"/>
      <point x="0" y="299" type="line"/>
      <point x="75" y="342" type="line"/>
      <point x="75" y="638" type="line"/>
      <point x="142" y="638" type="line"/>
      <point x="142" y="381" type="line"/>
      <point x="243" y="439" type="line"/>
      <point x="243" y="379" type="line"/>
      <point x="142" y="321" type="line"/>
      <point x="142" y="58" type="line"/>
      <point x="439" y="58" type="line"/>
      <point x="439" y="0" type="line"/>
    </contour>
  </outline>
</glyph>
<glyph name="lslash" format="1">
  <advance width="253"/>
  <unicode hex="001D"/>
  <outline>
    <contour>
      <point x="146" y="324" type="line"/>
      <point x="146" y="106" type="line" smooth="yes"/>
      <point x="146" y="74"/>
      <point x="181" y="33"/>
      <point x="204" y="28" type="qcurve"/>
      <point x="161" y="-15" type="line"/>
      <point x="148" y="-11"/>
      <point x="120" y="5"/>
      <point x="98" y="32"/>
      <point x="83" y="72"/>
      <point x="83" y="99" type="qcurve" smooth="yes"/>
      <point x="83" y="287" type="line"/>
      <point x="25" y="254" type="line"/>
      <point x="-1" y="299" type="line"/>
      <point x="83" y="347" type="line"/>
      <point x="83" y="712" type="line"/>
      <point x="146" y="712" type="line"/>
      <point x="146" y="383" type="line"/>
      <point x="228" y="431" type="line"/>
      <point x="228" y="371" type="line"/>
    </contour>
  </outline>
</glyph>
<glyph name="zcaron" format="1">
  <advance width="406"/>
  <unicode hex="001F"/>
  <outline>
    <contour>
      <point x="26" y="0" type="line"/>
      <point x="26" y="12" type="line"/>
      <point x="183" y="270" type="line" smooth="yes"/>
      <point x="202" y="301"/>
      <point x="244" y="369"/>
      <point x="264" y="398" type="qcurve"/>
      <point x="263" y="399" type="line"/>
      <point x="45" y="399" type="line"/>
      <point x="45" y="453" type="line"/>
      <point x="360" y="453" type="line"/>
      <point x="360" y="441" type="line"/>
      <point x="202" y="183" type="line" smooth="yes"/>
      <point x="183" y="151"/>
      <point x="142" y="87"/>
      <point x="122" y="55" type="qcurve"/>
      <point x="123" y="54" type="line"/>
      <point x="377" y="54" type="line"/>
      <point x="377" y="0" type="line"/>
    </contour>
    <contour>
      <point x="320" y="619" type="line"/>
      <point x="287" y="604"/>
      <point x="231" y="555"/>
      <point x="210" y="525" type="qcurve"/>
      <point x="188" y="555"/>
      <point x="131" y="604"/>
      <point x="99" y="619" type="qcurve"/>
      <point x="128" y="647" type="line"/>
      <point x="152" y="636"/>
      <point x="193" y="609"/>
      <point x="210" y="589" type="qcurve"/>
      <point x="227" y="609"/>
      <point x="266" y="636"/>
      <point x="290" y="647" type="qcurve"/>
      <point x="320" y="619" type="line"/>
    </contour>
  </outline>
</glyph>
<glyph name="exclam" format="1">
  <advance width="236"/>
  <unicode hex="0021"/>
  <outline>
    <contour>
      <point x="145" y="156" type="line"/>
      <point x="92" y="170" type="line"/>
      <point x="81" y="682" type="line"/>
      <point x="155" y="682" type="line"/>
    </contour>
    <contour>
      <point x="166" y="45" type="qcurve" smooth="yes"/>
      <point x="166" y="38"/>
      <point x="156" y="19"/>
      <point x="142" y="2"/>
      <point x="126" y="-10"/>
      <point x="119" y="-10" type="qcurve" smooth="yes"/>
      <point x="113" y="-10"/>
      <point x="97" y="2"/>
      <point x="82" y="19"/>
      <point x="72" y="38"/>
      <point x="72" y="45" type="qcurve" smooth="yes"/>
      <point x="72" y="52"/>
      <point x="82" y="71"/>
      <point x="97" y="88"/>
      <point x="113" y="100"/>
      <point x="119" y="100" type="qcurve" smooth="yes"/>
      <point x="126" y="100"/>
      <point x="142" y="88"/>
      <point x="156" y="71"/>
      <point x="166" y="52"/>
    </contour>
  </outline>
</glyph>
<glyph name="quotedbl" format="1">
  <advance width="277"/>
  <unicode hex="0022"/>
  <outline>
    <contour>
      <point x="227" y="507" type="line"/>
      <point x="191" y="507" type="line"/>
      <point x="178" y="712" type="line"/>
      <point x="240" y="712" type="line"/>
    </contour>
    <contour>
      <point x="84" y="507" type="line"/>
      <point x="48" y="507" type="line"/>
      <point x="36" y="712" type="line"/>
      <point x="99" y="712" type="line"/>
    </contour>
  </outline>
</glyph>
<glyph name="numbersign" format="1">
  <advance width="412"/>
  <unicode hex="0023"/>
  <outline>
    <contour>
      <point x="319" y="385" type="line"/>
      <point x="289" y="253" type="line"/>
      <point x="358" y="253" type="line"/>
      <point x="358" y="211" type="line"/>
      <point x="279" y="211" type="line"/>
      <point x="230" y="0" type="line"/>
      <point x="182" y="0" type="line"/>
      <point x="231" y="211" type="line"/>
      <point x="124" y="211" type="line"/>
      <point x="75" y="0" type="line"/>
      <point x="27" y="0" type="line"/>
      <point x="76" y="211" type="line"/>
      <point x="17" y="211" type="line"/>
      <point x="17" y="253" type="line"/>
      <point x="86" y="253" type="line"/>
      <point x="116" y="385" type="line"/>
      <point x="47" y="385" type="line"/>
      <point x="47" y="427" type="line"/>
      <point x="126" y="427" type="line"/>
      <point x="175" y="638" type="line"/>
      <point x="223" y="638" type="line"/>
      <point x="174" y="427" type="line"/>
      <point x="282" y="427" type="line"/>
      <point x="330" y="638" type="line"/>
      <point x="378" y="638" type="line"/>
      <point x="330" y="427" type="line"/>
      <point x="388" y="427" type="line"/>
      <point x="388" y="385" type="line"/>
    </contour>
    <contour>
      <point x="164" y="385" type="line"/>
      <point x="134" y="253" type="line"/>
      <point x="241" y="253" type="line"/>
      <point x="271" y="385" type="line"/>
    </contour>
  </outline>
</glyph>
<glyph name="dollar" format="1">
  <advance width="450"/>
  <unicode hex="0024"/>
  <outline>
    <contour>
      <point x="406" y="166" type="qcurve" smooth="yes"/>
      <point x="406" y="97"/>
      <point x="318" y="-1"/>
      <point x="237" y="-9" type="qcurve"/>
      <point x="237" y="-97" type="line"/>
      <point x="195" y="-97" type="line"/>
      <point x="195" y="-11" type="line"/>
      <point x="144" y="-9"/>
      <point x="69" y="18"/>
      <point x="39" y="40" type="qcurve"/>
      <point x="55" y="98" type="line"/>
      <point x="83" y="76"/>
      <point x="157" y="45"/>
      <point x="205" y="45" type="qcurve" smooth="yes"/>
      <point x="236" y="45"/>
      <point x="287" y="64"/>
      <point x="323" y="95"/>
      <point x="343" y="137"/>
      <point x="343" y="161" type="qcurve" smooth="yes"/>
      <point x="343" y="207"/>
      <point x="280" y="279"/>
      <point x="214" y="302" type="qcurve" smooth="yes"/>
      <point x="133" y="331"/>
      <point x="43" y="424"/>
      <point x="43" y="485" type="qcurve" smooth="yes"/>
      <point x="43" y="514"/>
      <point x="62" y="569"/>
      <point x="100" y="613"/>
      <point x="157" y="643"/>
      <point x="195" y="648" type="qcurve"/>
      <point x="195" y="737" type="line"/>
      <point x="237" y="737" type="line"/>
      <point x="237" y="649" type="line"/>
      <point x="281" y="647"/>
      <point x="344" y="626"/>
      <point x="367" y="612" type="qcurve"/>
      <point x="353" y="557" type="line"/>
      <point x="328" y="573"/>
      <point x="263" y="594"/>
      <point x="226" y="594" type="qcurve" smooth="yes"/>
      <point x="195" y="594"/>
      <point x="150" y="576"/>
      <point x="120" y="546"/>
      <point x="105" y="509"/>
      <point x="105" y="491" type="qcurve" smooth="yes"/>
      <point x="105" y="412"/>
      <point x="226" y="367" type="qcurve" smooth="yes"/>
      <point x="310" y="335"/>
      <point x="406" y="237"/>
    </contour>
  </outline>
</glyph>
<glyph name="ampersand" format="1">
  <advance width="588"/>
  <unicode hex="0026"/>
  <outline>
    <contour>
      <point x="511" y="0" type="line"/>
      <point x="439" y="72" type="line"/>
      <point x="400" y="34"/>
      <point x="298" y="-11"/>
      <point x="234" y="-11" type="qcurve" smooth="yes"/>
      <point x="191" y="-11"/>
      <point x="120" y="17"/>
      <point x="69" y="63"/>
      <point x="41" y="123"/>
      <point x="41" y="156" type="qcurve" smooth="yes"/>
      <point x="41" y="218"/>
      <point x="105" y="305"/>
      <point x="171" y="341" type="qcurve"/>
      <point x="127" y="384"/>
      <point x="83" y="461"/>
      <point x="83" y="499" type="qcurve" smooth="yes"/>
      <point x="83" y="534"/>
      <point x="110" y="589"/>
      <point x="154" y="628"/>
      <point x="209" y="649"/>
      <point x="238" y="649" type="qcurve" smooth="yes"/>
      <point x="268" y="649"/>
      <point x="326" y="628"/>
      <point x="372" y="589"/>
      <point x="400" y="534"/>
      <point x="400" y="499" type="qcurve" smooth="yes"/>
      <point x="400" y="445"/>
      <point x="326" y="363"/>
      <point x="267" y="329" type="qcurve"/>
      <point x="437" y="159" type="line"/>
      <point x="485" y="224"/>
      <point x="509" y="306" type="qcurve"/>
      <point x="552" y="263" type="line"/>
      <point x="541" y="225"/>
      <point x="504" y="150"/>
      <point x="479" y="117" type="qcurve"/>
      <point x="597" y="0" type="line"/>
    </contour>
    <contour>
      <point x="339" y="499" type="qcurve" smooth="yes"/>
      <point x="339" y="518"/>
      <point x="323" y="553"/>
      <point x="296" y="579"/>
      <point x="259" y="595"/>
      <point x="238" y="595" type="qcurve" smooth="yes"/>
      <point x="218" y="595"/>
      <point x="184" y="579"/>
      <point x="159" y="552"/>
      <point x="144" y="518"/>
      <point x="144" y="499" type="qcurve" smooth="yes"/>
      <point x="144" y="470"/>
      <point x="184" y="411"/>
      <point x="226" y="370" type="qcurve"/>
      <point x="339" y="434"/>
    </contour>
    <contour>
      <point x="212" y="300" type="line"/>
      <point x="158" y="269"/>
      <point x="105" y="204"/>
      <point x="105" y="159" type="qcurve" smooth="yes"/>
      <point x="105" y="136"/>
      <point x="126" y="95"/>
      <point x="162" y="63"/>
      <point x="210" y="45"/>
      <point x="237" y="45" type="qcurve" smooth="yes"/>
      <point x="282" y="45"/>
      <point x="363" y="82"/>
      <point x="397" y="114" type="qcurve"/>
    </contour>
  </outline>
</glyph>
<glyph name="quotesingle" format="1">
  <advance width="135"/>
  <unicode hex="0027"/>
  <outline>
    <contour>
      <point x="84" y="507" type="line"/>
      <point x="48" y="507" type="line"/>
      <point x="36" y="712" type="line"/>
      <point x="99" y="712" type="line"/>
    </contour>
  </outline>
</glyph>
<glyph name="parenleft" format="1">
  <advance width="244"/>
  <unicode hex="0028"/>
  <outline>
    <contour>
      <point x="218" y="695" type="line"/>
      <point x="167" y="601"/>
      <point x="103" y="368"/>
      <point x="103" y="240" type="qcurve" smooth="yes"/>
      <point x="103" y="108"/>
      <point x="159" y="-113"/>
      <point x="213" y="-224" type="qcurve"/>
      <point x="146" y="-208" type="line"/>
      <point x="123" y="-162"/>
      <point x="84" y="-66"/>
      <point x="56" y="42"/>
      <point x="41" y="165"/>
      <point x="41" y="239" type="qcurve" smooth="yes"/>
      <point x="41" y="383"/>
      <point x="101" y="610"/>
      <point x="154" y="709" type="qcurve"/>
      <point x="218" y="695" type="line"/>
    </contour>
  </outline>
</glyph>
<glyph name="parenright" format="1">
  <advance width="244"/>
  <unicode hex="0029"/>
  <outline>
    <contour>
      <point x="203" y="246" type="qcurve" smooth="yes"/>
      <point x="203" y="102"/>
      <point x="143" y="-125"/>
      <point x="89" y="-224" type="qcurve"/>
      <point x="26" y="-210" type="line"/>
      <point x="77" y="-116"/>
      <point x="141" y="118"/>
      <point x="141" y="245" type="qcurve" smooth="yes"/>
      <point x="141" y="311"/>
      <point x="127" y="431"/>
      <point x="98" y="545"/>
      <point x="57" y="654"/>
      <point x="30" y="710" type="qcurve"/>
      <point x="98" y="693" type="line"/>
      <point x="121" y="647"/>
      <point x="160" y="551"/>
      <point x="188" y="443"/>
      <point x="203" y="319"/>
    </contour>
  </outline>
</glyph>
<glyph name="asterisk" format="1">
  <advance width="408"/>
  <unicode hex="002A"/>
  <outline>
    <contour>
      <point x="241" y="485" type="line"/>
      <point x="333" y="368" type="line"/>
      <point x="293" y="323" type="line"/>
      <point x="203" y="456" type="line"/>
      <point x="123" y="333" type="line"/>
      <point x="69" y="358" type="line"/>
      <point x="166" y="484" type="line"/>
      <point x="25" y="522" type="line"/>
      <point x="32" y="580" type="line"/>
      <point x="179" y="527" type="line"/>
      <point x="174" y="672" type="line"/>
      <point x="233" y="686" type="line"/>
      <point x="226" y="527" type="line"/>
      <point x="363" y="579" type="line"/>
      <point x="394" y="526" type="line"/>
    </contour>
  </outline>
</glyph>
<glyph name="plus" format="1">
  <advance width="462"/>
  <unicode hex="002B"/>
  <outline>
    <contour>
      <point x="261" y="250" type="line"/>
      <point x="261" y="101" type="line"/>
      <point x="201" y="101" type="line"/>
      <point x="201" y="250" type="line"/>
      <point x="44" y="250" type="line"/>
      <point x="44" y="304" type="line"/>
      <point x="201" y="304" type="line"/>
      <point x="201" y="453" type="line"/>
      <point x="261" y="453" type="line"/>
      <point x="261" y="304" type="line"/>
      <point x="418" y="304" type="line"/>
      <point x="418" y="250" type="line"/>
    </contour>
  </outline>
</glyph>
<glyph name="hyphen" format="1">
  <advance width="338"/>
  <unicode hex="002D"/>
  <outline>
    <contour>
      <point x="44" y="250" type="line"/>
      <point x="44" y="304" type="line"/>
      <point x="294" y="304" type="line"/>
      <point x="294" y="250" type="line"/>
    </contour>
  </outline>
</glyph>
<glyph name="period" format="1">
  <advance width="187"/>
  <unicode hex="002E"/>
  <outline>
    <contour>
      <point x="139" y="45" type="qcurve" smooth="yes"/>
      <point x="139" y="38"/>
      <point x="129" y="19"/>
      <point x="115" y="2"/>
      <point x="98" y="-10"/>
      <point x="92" y="-10" type="qcurve" smooth="yes"/>
      <point x="86" y="-10"/>
      <point x="69" y="2"/>
      <point x="55" y="19"/>
      <point x="45" y="38"/>
      <point x="45" y="45" type="qcurve" smooth="yes"/>
      <point x="45" y="52"/>
      <point x="55" y="71"/>
      <point x="69" y="88"/>
      <point x="86" y="100"/>
      <point x="92" y="100" type="qcurve" smooth="yes"/>
      <point x="98" y="100"/>
      <point x="115" y="88"/>
      <point x="129" y="71"/>
      <point x="139" y="52"/>
    </contour>
  </outline>
</glyph>
<glyph name="slash" format="1">
  <advance width="621"/>
  <unicode hex="002F"/>
  <outline>
    <contour>
      <point x="71" y="-15" type="line"/>
      <point x="28" y="20" type="line"/>
      <point x="551" y="665" type="line"/>
      <point x="593" y="631" type="line"/>
    </contour>
  </outline>
</glyph>
<glyph name="zero" format="1">
  <advance width="542"/>
  <unicode hex="0030"/>
  <outline>
    <contour>
      <point x="500" y="320" type="qcurve" smooth="yes"/>
      <point x="500" y="237"/>
      <point x="462" y="112"/>
      <point x="398" y="30"/>
      <point x="316" y="-11"/>
      <point x="271" y="-11" type="qcurve" smooth="yes"/>
      <point x="225" y="-11"/>
      <point x="142" y="30"/>
      <point x="79" y="112"/>
      <point x="42" y="236"/>
      <point x="42" y="320" type="qcurve" smooth="yes"/>
      <point x="42" y="402"/>
      <point x="79" y="525"/>
      <point x="142" y="608"/>
      <point x="225" y="649"/>
      <point x="271" y="649" type="qcurve" smooth="yes"/>
      <point x="315" y="649"/>
      <point x="398" y="607"/>
      <point x="462" y="525"/>
      <point x="500" y="402"/>
    </contour>
    <contour>
      <point x="436" y="320" type="qcurve" smooth="yes"/>
      <point x="436" y="390"/>
      <point x="409" y="493"/>
      <point x="363" y="560"/>
      <point x="303" y="592"/>
      <point x="271" y="592" type="qcurve" smooth="yes"/>
      <point x="238" y="592"/>
      <point x="178" y="560"/>
      <point x="133" y="493"/>
      <point x="106" y="390"/>
      <point x="106" y="320" type="qcurve" smooth="yes"/>
      <point x="106" y="249"/>
      <point x="133" y="145"/>
      <point x="178" y="78"/>
      <point x="238" y="46"/>
      <point x="271" y="46" type="qcurve" smooth="yes"/>
      <point x="304" y="46"/>
      <point x="364" y="78"/>
      <point x="409" y="145"/>
      <point x="436" y="248"/>
    </contour>
  </outline>
</glyph>
<glyph name="two" format="1">
  <advance width="458"/>
  <unicode hex="0032"/>
  <outline>
    <contour>
      <point x="29" y="0" type="line"/>
      <point x="29" y="15" type="line"/>
      <point x="175" y="161"/>
      <point x="328" y="384"/>
      <point x="328" y="460" type="qcurve" smooth="yes"/>
      <point x="328" y="528"/>
      <point x="251" y="593"/>
      <point x="193" y="593" type="qcurve" smooth="yes"/>
      <point x="153" y="593"/>
      <point x="92" y="570"/>
      <point x="63" y="550" type="qcurve"/>
      <point x="48" y="607" type="line"/>
      <point x="77" y="624"/>
      <point x="148" y="649"/>
      <point x="193" y="649" type="qcurve" smooth="yes"/>
      <point x="237" y="649"/>
      <point x="310" y="624"/>
      <point x="363" y="576"/>
      <point x="392" y="504"/>
      <point x="392" y="458" type="qcurve" smooth="yes"/>
      <point x="392" y="413"/>
      <point x="347" y="308"/>
      <point x="275" y="201"/>
      <point x="185" y="98"/>
      <point x="141" y="55" type="qcurve"/>
      <point x="424" y="55" type="line"/>
      <point x="424" y="0" type="line"/>
    </contour>
  </outline>
</glyph>
<glyph name="three" format="1">
  <advance width="418"/>
  <unicode hex="0033"/>
  <outline>
    <contour>
      <point x="376" y="190" type="qcurve" smooth="yes"/>
      <point x="376" y="146"/>
      <point x="347" y="72"/>
      <point x="290" y="19"/>
      <point x="206" y="-10"/>
      <point x="152" y="-10" type="qcurve" smooth="yes"/>
      <point x="121" y="-10"/>
      <point x="66" y="3"/>
      <point x="44" y="14" type="qcurve"/>
      <point x="25" y="82" type="line"/>
      <point x="54" y="64"/>
      <point x="118" y="46"/>
      <point x="149" y="46" type="qcurve" smooth="yes"/>
      <point x="183" y="46"/>
      <point x="242" y="65"/>
      <point x="286" y="104"/>
      <point x="312" y="160"/>
      <point x="312" y="198" type="qcurve" smooth="yes"/>
      <point x="312" y="225"/>
      <point x="289" y="274"/>
      <point x="250" y="312"/>
      <point x="199" y="334"/>
      <point x="171" y="334" type="qcurve" smooth="yes"/>
      <point x="164" y="334"/>
      <point x="149" y="334"/>
      <point x="142" y="333" type="qcurve"/>
      <point x="127" y="386" type="line"/>
      <point x="157" y="391"/>
      <point x="206" y="413"/>
      <point x="242" y="443"/>
      <point x="262" y="479"/>
      <point x="262" y="499" type="qcurve" smooth="yes"/>
      <point x="262" y="539"/>
      <point x="207" y="594"/>
      <point x="157" y="594" type="qcurve" smooth="yes"/>
      <point x="101" y="594"/>
      <point x="52" y="563" type="qcurve"/>
      <point x="39" y="617" type="line"/>
      <point x="64" y="632"/>
      <point x="123" y="649"/>
      <point x="159" y="649" type="qcurve" smooth="yes"/>
      <point x="196" y="649"/>
      <point x="257" y="627"/>
      <point x="301" y="589"/>
      <point x="325" y="536"/>
      <point x="325" y="505" type="qcurve" smooth="yes"/>
      <point x="325" y="482"/>
      <point x="309" y="440"/>
      <point x="283" y="405"/>
      <point x="248" y="381"/>
      <point x="229" y="375" type="qcurve"/>
      <point x="256" y="370"/>
      <point x="309" y="341"/>
      <point x="351" y="293"/>
      <point x="376" y="229"/>
    </contour>
  </outline>
</glyph>
<glyph name="four" format="1">
  <advance width="479"/>
  <unicode hex="0034"/>
  <outline>
    <contour>
      <point x="363" y="179" type="line"/>
      <point x="363" y="0" type="line"/>
      <point x="300" y="0" type="line"/>
      <point x="300" y="179" type="line"/>
      <point x="23" y="179" type="line"/>
      <point x="11" y="230" type="line"/>
      <point x="320" y="638" type="line"/>
      <point x="363" y="638" type="line"/>
      <point x="363" y="231" type="line"/>
      <point x="443" y="231" type="line"/>
      <point x="443" y="179" type="line"/>
    </contour>
    <contour>
      <point x="299" y="528" type="line"/>
      <point x="282" y="501"/>
      <point x="244" y="450"/>
      <point x="227" y="427" type="qcurve" smooth="yes"/>
      <point x="78" y="231" type="line"/>
      <point x="300" y="231" type="line"/>
      <point x="300" y="427" type="line" smooth="yes"/>
      <point x="300" y="452"/>
      <point x="300" y="501"/>
      <point x="301" y="527" type="qcurve"/>
    </contour>
  </outline>
</glyph>
<glyph name="five" format="1">
  <advance width="445"/>
  <unicode hex="0035"/>
  <outline>
    <contour>
      <point x="403" y="191" type="qcurve" smooth="yes"/>
      <point x="403" y="150"/>
      <point x="374" y="77"/>
      <point x="319" y="22"/>
      <point x="239" y="-10"/>
      <point x="188" y="-10" type="qcurve" smooth="yes"/>
      <point x="152" y="-10"/>
      <point x="87" y="6"/>
      <point x="68" y="17" type="qcurve"/>
      <point x="50" y="84" type="line"/>
      <point x="82" y="64"/>
      <point x="150" y="46"/>
      <point x="185" y="46" type="qcurve" smooth="yes"/>
      <point x="217" y="46"/>
      <point x="273" y="67"/>
      <point x="315" y="104"/>
      <point x="339" y="158"/>
      <point x="339" y="191" type="qcurve" smooth="yes"/>
      <point x="339" y="224"/>
      <point x="315" y="278"/>
      <point x="273" y="317"/>
      <point x="218" y="339"/>
      <point x="187" y="339" type="qcurve" smooth="yes"/>
      <point x="152" y="339"/>
      <point x="96" y="329"/>
      <point x="73" y="319" type="qcurve"/>
      <point x="83" y="638" type="line"/>
      <point x="351" y="638" type="line"/>
      <point x="338" y="583" type="line"/>
      <point x="143" y="583" type="line"/>
      <point x="138" y="388" type="line"/>
      <point x="147" y="391"/>
      <point x="175" y="395"/>
      <point x="192" y="395" type="qcurve" smooth="yes"/>
      <point x="236" y="395"/>
      <point x="313" y="366"/>
      <point x="370" y="313"/>
      <point x="403" y="237"/>
    </contour>
  </outline>
</glyph>
<glyph name="six" format="1">
  <advance width="493"/>
  <unicode hex="0036"/>
  <outline>
    <contour>
      <point x="453" y="191" type="qcurve" smooth="yes"/>
      <point x="453" y="147"/>
      <point x="423" y="74"/>
      <point x="369" y="20"/>
      <point x="295" y="-10"/>
      <point x="250" y="-10" type="qcurve" smooth="yes"/>
      <point x="208" y="-10"/>
      <point x="132" y="19"/>
      <point x="75" y="76"/>
      <point x="42" y="159"/>
      <point x="42" y="212" type="qcurve" smooth="yes"/>
      <point x="42" y="276"/>
      <point x="86" y="405"/>
      <point x="164" y="521"/>
      <point x="271" y="619"/>
      <point x="334" y="653" type="qcurve"/>
      <point x="398" y="625" type="line"/>
      <point x="303" y="578"/>
      <point x="162" y="426"/>
      <point x="129" y="338" type="qcurve"/>
      <point x="143" y="358"/>
      <point x="207" y="393"/>
      <point x="252" y="393" type="qcurve" smooth="yes"/>
      <point x="297" y="393"/>
      <point x="371" y="362"/>
      <point x="424" y="308"/>
      <point x="453" y="234"/>
    </contour>
    <contour>
      <point x="389" y="190" type="qcurve" smooth="yes"/>
      <point x="389" y="222"/>
      <point x="368" y="276"/>
      <point x="331" y="315"/>
      <point x="279" y="337"/>
      <point x="248" y="337" type="qcurve" smooth="yes"/>
      <point x="197" y="337"/>
      <point x="122" y="285"/>
      <point x="108" y="231" type="qcurve" smooth="yes"/>
      <point x="107" y="226"/>
      <point x="107" y="206"/>
      <point x="107" y="200" type="qcurve" smooth="yes"/>
      <point x="107" y="167"/>
      <point x="130" y="110"/>
      <point x="169" y="69"/>
      <point x="222" y="46"/>
      <point x="251" y="46" type="qcurve" smooth="yes"/>
      <point x="280" y="46"/>
      <point x="331" y="67"/>
      <point x="368" y="106"/>
      <point x="389" y="158"/>
    </contour>
  </outline>
</glyph>
<glyph name="seven" format="1">
  <advance width="441"/>
  <unicode hex="0037"/>
  <outline>
    <contour>
      <point x="157" y="0" type="line"/>
      <point x="89" y="0" type="line"/>
      <point x="340" y="583" type="line"/>
      <point x="22" y="583" type="line"/>
      <point x="22" y="638" type="line"/>
      <point x="430" y="638" type="line"/>
    </contour>
  </outline>
</glyph>
<glyph name="eight" format="1">
  <advance width="498"/>
  <unicode hex="0038"/>
  <outline>
    <contour>
      <point x="456" y="173" type="qcurve" smooth="yes"/>
      <point x="456" y="130"/>
      <point x="423" y="62"/>
      <point x="366" y="14"/>
      <point x="291" y="-11"/>
      <point x="249" y="-11" type="qcurve" smooth="yes"/>
      <point x="207" y="-11"/>
      <point x="131" y="14"/>
      <point x="75" y="62"/>
      <point x="42" y="130"/>
      <point x="42" y="173" type="qcurve" smooth="yes"/>
      <point x="42" y="209"/>
      <point x="68" y="267"/>
      <point x="109" y="312"/>
      <point x="157" y="341"/>
      <point x="179" y="349" type="qcurve"/>
      <point x="158" y="357"/>
      <point x="119" y="384"/>
      <point x="89" y="421"/>
      <point x="70" y="467"/>
      <point x="70" y="494" type="qcurve" smooth="yes"/>
      <point x="70" y="528"/>
      <point x="98" y="585"/>
      <point x="147" y="626"/>
      <point x="212" y="649"/>
      <point x="249" y="649" type="qcurve" smooth="yes"/>
      <point x="286" y="649"/>
      <point x="351" y="627"/>
      <point x="399" y="586"/>
      <point x="427" y="529"/>
      <point x="427" y="494" type="qcurve" smooth="yes"/>
      <point x="427" y="467"/>
      <point x="408" y="422"/>
      <point x="378" y="385"/>
      <point x="339" y="358"/>
      <point x="318" y="350" type="qcurve"/>
      <point x="341" y="343"/>
      <point x="390" y="313"/>
      <point x="430" y="268"/>
      <point x="456" y="209"/>
    </contour>
    <contour>
      <point x="366" y="493" type="qcurve" smooth="yes"/>
      <point x="366" y="515"/>
      <point x="348" y="553"/>
      <point x="316" y="580"/>
      <point x="273" y="595"/>
      <point x="249" y="595" type="qcurve" smooth="yes"/>
      <point x="225" y="595"/>
      <point x="183" y="580"/>
      <point x="152" y="553"/>
      <point x="133" y="515"/>
      <point x="133" y="493" type="qcurve" smooth="yes"/>
      <point x="133" y="453"/>
      <point x="197" y="392"/>
      <point x="252" y="377" type="qcurve"/>
      <point x="306" y="394"/>
      <point x="366" y="453"/>
    </contour>
    <contour>
      <point x="392" y="175" type="qcurve" smooth="yes"/>
      <point x="392" y="202"/>
      <point x="367" y="248"/>
      <point x="326" y="284"/>
      <point x="273" y="310"/>
      <point x="244" y="318" type="qcurve"/>
      <point x="216" y="310"/>
      <point x="164" y="284"/>
      <point x="125" y="248"/>
      <point x="102" y="202"/>
      <point x="102" y="175" type="qcurve" smooth="yes"/>
      <point x="102" y="146"/>
      <point x="126" y="98"/>
      <point x="166" y="64"/>
      <point x="218" y="45"/>
      <point x="247" y="45" type="qcurve" smooth="yes"/>
      <point x="276" y="45"/>
      <point x="328" y="64"/>
      <point x="368" y="98"/>
      <point x="392" y="146"/>
    </contour>
  </outline>
</glyph>
<glyph name="nine" format="1">
  <advance width="493"/>
  <unicode hex="0039"/>
  <outline>
    <contour>
      <point x="451" y="428" type="qcurve" smooth="yes"/>
      <point x="451" y="363"/>
      <point x="407" y="235"/>
      <point x="329" y="118"/>
      <point x="223" y="20"/>
      <point x="160" y="-14" type="qcurve"/>
      <point x="96" y="14" type="line"/>
      <point x="190" y="62"/>
      <point x="331" y="213"/>
      <point x="365" y="301" type="qcurve"/>
      <point x="351" y="281"/>
      <point x="286" y="247"/>
      <point x="241" y="247" type="qcurve" smooth="yes"/>
      <point x="197" y="247"/>
      <point x="123" y="277"/>
      <point x="70" y="331"/>
      <point x="40" y="405"/>
      <point x="40" y="449" type="qcurve" smooth="yes"/>
      <point x="40" y="492"/>
      <point x="70" y="565"/>
      <point x="124" y="619"/>
      <point x="199" y="649"/>
      <point x="243" y="649" type="qcurve" smooth="yes"/>
      <point x="285" y="649"/>
      <point x="361" y="620"/>
      <point x="418" y="563"/>
      <point x="451" y="481"/>
    </contour>
    <contour>
      <point x="387" y="439" type="qcurve" smooth="yes"/>
      <point x="387" y="472"/>
      <point x="364" y="529"/>
      <point x="324" y="570"/>
      <point x="271" y="593"/>
      <point x="242" y="593" type="qcurve" smooth="yes"/>
      <point x="213" y="593"/>
      <point x="162" y="572"/>
      <point x="125" y="533"/>
      <point x="104" y="480"/>
      <point x="104" y="449" type="qcurve" smooth="yes"/>
      <point x="104" y="417"/>
      <point x="125" y="363"/>
      <point x="162" y="324"/>
      <point x="214" y="302"/>
      <point x="245" y="302" type="qcurve" smooth="yes"/>
      <point x="296" y="302"/>
      <point x="371" y="354"/>
      <point x="385" y="408" type="qcurve" smooth="yes"/>
      <point x="386" y="413"/>
      <point x="387" y="433"/>
    </contour>
  </outline>
</glyph>
<glyph name="colon" format="1">
  <advance width="187"/>
  <unicode hex="003A"/>
  <outline>
    <contour>
      <point x="139" y="408" type="qcurve" smooth="yes"/>
      <point x="139" y="401"/>
      <point x="129" y="382"/>
      <point x="115" y="365"/>
      <point x="98" y="353"/>
      <point x="92" y="353" type="qcurve" smooth="yes"/>
      <point x="86" y="353"/>
      <point x="69" y="365"/>
      <point x="55" y="382"/>
      <point x="45" y="401"/>
      <point x="45" y="408" type="qcurve" smooth="yes"/>
      <point x="45" y="415"/>
      <point x="55" y="434"/>
      <point x="69" y="451"/>
      <point x="86" y="463"/>
      <point x="92" y="463" type="qcurve" smooth="yes"/>
      <point x="98" y="463"/>
      <point x="115" y="451"/>
      <point x="129" y="434"/>
      <point x="139" y="415"/>
    </contour>
    <contour>
      <point x="139" y="45" type="qcurve" smooth="yes"/>
      <point x="139" y="38"/>
      <point x="129" y="19"/>
      <point x="115" y="2"/>
      <point x="98" y="-10"/>
      <point x="92" y="-10" type="qcurve" smooth="yes"/>
      <point x="86" y="-10"/>
      <point x="69" y="2"/>
      <point x="55" y="19"/>
      <point x="45" y="38"/>
      <point x="45" y="45" type="qcurve" smooth="yes"/>
      <point x="45" y="52"/>
      <point x="55" y="71"/>
      <point x="69" y="88"/>
      <point x="86" y="100"/>
      <point x="92" y="100" type="qcurve" smooth="yes"/>
      <point x="98" y="100"/>
      <point x="115" y="88"/>
      <point x="129" y="71"/>
      <point x="139" y="52"/>
    </contour>
  </outline>
</glyph>
<glyph name="semicolon" format="1">
  <advance width="187"/>
  <unicode hex="003B"/>
  <outline>
    <contour>
      <point x="139" y="408" type="qcurve" smooth="yes"/>
      <point x="139" y="401"/>
      <point x="129" y="382"/>
      <point x="115" y="365"/>
      <point x="98" y="353"/>
      <point x="92" y="353" type="qcurve" smooth="yes"/>
      <point x="86" y="353"/>
      <point x="69" y="365"/>
      <point x="55" y="382"/>
      <point x="45" y="401"/>
      <point x="45" y="408" type="qcurve" smooth="yes"/>
      <point x="45" y="415"/>
      <point x="55" y="434"/>
      <point x="69" y="451"/>
      <point x="86" y="463"/>
      <point x="92" y="463" type="qcurve" smooth="yes"/>
      <point x="98" y="463"/>
      <point x="115" y="451"/>
      <point x="129" y="434"/>
      <point x="139" y="415"/>
    </contour>
    <contour>
      <point x="140" y="45" type="qcurve" smooth="yes"/>
      <point x="140" y="31"/>
      <point x="126" y="-10"/>
      <point x="103" y="-55"/>
      <point x="72" y="-98"/>
      <point x="56" y="-115" type="qcurve"/>
      <point x="28" y="-111" type="line"/>
      <point x="51" y="-83"/>
      <point x="80" y="-22"/>
      <point x="83" y="0" type="qcurve"/>
      <point x="72" y="3"/>
      <point x="46" y="32"/>
      <point x="46" y="45" type="qcurve" smooth="yes"/>
      <point x="46" y="52"/>
      <point x="56" y="71"/>
      <point x="71" y="88"/>
      <point x="87" y="100"/>
      <point x="93" y="100" type="qcurve" smooth="yes"/>
      <point x="99" y="100"/>
      <point x="115" y="88"/>
      <point x="130" y="72"/>
      <point x="140" y="52"/>
    </contour>
  </outline>
</glyph>
<glyph name="less" format="1">
  <advance width="351"/>
  <unicode hex="003C"/>
  <outline>
    <contour>
      <point x="226" y="100" type="line"/>
      <point x="49" y="277" type="line"/>
      <point x="226" y="454" type="line"/>
      <point x="268" y="413" type="line"/>
      <point x="132" y="277" type="line"/>
      <point x="268" y="141" type="line"/>
    </contour>
  </outline>
</glyph>
<glyph name="equal" format="1">
  <advance width="462"/>
  <unicode hex="003D"/>
  <outline>
    <contour>
      <point x="44" y="336" type="line"/>
      <point x="44" y="390" type="line"/>
      <point x="418" y="390" type="line"/>
      <point x="418" y="336" type="line"/>
    </contour>
    <contour>
      <point x="44" y="164" type="line"/>
      <point x="44" y="218" type="line"/>
      <point x="418" y="218" type="line"/>
      <point x="418" y="164" type="line"/>
    </contour>
  </outline>
</glyph>
<glyph name="greater" format="1">
  <advance width="351"/>
  <unicode hex="003E"/>
  <outline>
    <contour>
      <point x="125" y="100" type="line"/>
      <point x="84" y="141" type="line"/>
      <point x="219" y="277" type="line"/>
      <point x="84" y="413" type="line"/>
      <point x="125" y="454" type="line"/>
      <point x="302" y="277" type="line"/>
    </contour>
  </outline>
</glyph>
<glyph name="question" format="1">
  <advance width="383"/>
  <unicode hex="003F"/>
  <outline>
    <contour>
      <point x="343" y="522" type="qcurve" smooth="yes"/>
      <point x="343" y="470"/>
      <point x="288" y="389"/>
      <point x="249" y="348" type="qcurve" smooth="yes"/>
      <point x="220" y="317"/>
      <point x="193" y="255"/>
      <point x="193" y="219" type="qcurve" smooth="yes"/>
      <point x="193" y="201"/>
      <point x="195" y="168"/>
      <point x="198" y="155" type="qcurve"/>
      <point x="144" y="168" type="line"/>
      <point x="141" y="181"/>
      <point x="137" y="210"/>
      <point x="137" y="226" type="qcurve" smooth="yes"/>
      <point x="137" y="274"/>
      <point x="171" y="356"/>
      <point x="202" y="388" type="qcurve" smooth="yes"/>
      <point x="234" y="420"/>
      <point x="277" y="485"/>
      <point x="277" y="528" type="qcurve" smooth="yes"/>
      <point x="277" y="549"/>
      <point x="261" y="588"/>
      <point x="231" y="618"/>
      <point x="188" y="636"/>
      <point x="162" y="636" type="qcurve" smooth="yes"/>
      <point x="123" y="636"/>
      <point x="64" y="608"/>
      <point x="41" y="585" type="qcurve"/>
      <point x="27" y="643" type="line"/>
      <point x="49" y="664"/>
      <point x="117" y="692"/>
      <point x="161" y="692" type="qcurve" smooth="yes"/>
      <point x="200" y="692"/>
      <point x="267" y="669"/>
      <point x="316" y="625"/>
      <point x="343" y="562"/>
    </contour>
    <contour>
      <point x="221" y="45" type="qcurve" smooth="yes"/>
      <point x="221" y="38"/>
      <point x="211" y="19"/>
      <point x="197" y="2"/>
      <point x="181" y="-10"/>
      <point x="174" y="-10" type="qcurve" smooth="yes"/>
      <point x="168" y="-10"/>
      <point x="151" y="2"/>
      <point x="137" y="19"/>
      <point x="127" y="38"/>
      <point x="127" y="45" type="qcurve" smooth="yes"/>
      <point x="127" y="52"/>
      <point x="137" y="71"/>
      <point x="151" y="88"/>
      <point x="168" y="100"/>
      <point x="174" y="100" type="qcurve" smooth="yes"/>
      <point x="181" y="100"/>
      <point x="197" y="88"/>
      <point x="211" y="71"/>
      <point x="221" y="52"/>
    </contour>
  </outline>
</glyph>
<glyph name="at" format="1">
  <advance width="768"/>
  <unicode hex="0040"/>
  <outline>
    <contour>
      <point x="726" y="385" type="qcurve" smooth="yes"/>
      <point x="726" y="345"/>
      <point x="700" y="257"/>
      <point x="651" y="183"/>
      <point x="580" y="135"/>
      <point x="536" y="135" type="qcurve" smooth="yes"/>
      <point x="506" y="135"/>
      <point x="469" y="174"/>
      <point x="470" y="212" type="qcurve"/>
      <point x="452" y="177"/>
      <point x="382" y="135"/>
      <point x="334" y="135" type="qcurve" smooth="yes"/>
      <point x="312" y="135"/>
      <point x="271" y="152"/>
      <point x="239" y="185"/>
      <point x="220" y="233"/>
      <point x="220" y="264" type="qcurve" smooth="yes"/>
      <point x="220" y="317"/>
      <point x="261" y="403"/>
      <point x="326" y="465"/>
      <point x="407" y="498"/>
      <point x="448" y="498" type="qcurve" smooth="yes"/>
      <point x="486" y="498"/>
      <point x="541" y="475"/>
      <point x="556" y="461" type="qcurve"/>
      <point x="520" y="253" type="line" smooth="yes"/>
      <point x="517" y="236"/>
      <point x="517" y="226" type="qcurve" smooth="yes"/>
      <point x="517" y="205"/>
      <point x="532" y="186"/>
      <point x="543" y="186" type="qcurve" smooth="yes"/>
      <point x="562" y="186"/>
      <point x="608" y="217"/>
      <point x="647" y="271"/>
      <point x="674" y="344"/>
      <point x="674" y="386" type="qcurve" smooth="yes"/>
      <point x="674" y="431"/>
      <point x="641" y="510"/>
      <point x="580" y="568"/>
      <point x="492" y="602"/>
      <point x="438" y="602" type="qcurve" smooth="yes"/>
      <point x="369" y="602"/>
      <point x="244" y="549"/>
      <point x="151" y="458"/>
      <point x="96" y="334"/>
      <point x="96" y="263" type="qcurve" smooth="yes"/>
      <point x="96" y="208"/>
      <point x="131" y="124"/>
      <point x="191" y="68"/>
      <point x="271" y="39"/>
      <point x="317" y="39" type="qcurve" smooth="yes"/>
      <point x="384" y="39"/>
      <point x="429" y="71" type="qcurve"/>
      <point x="413" y="13" type="line"/>
      <point x="398" y="3"/>
      <point x="345" y="-10"/>
      <point x="309" y="-10" type="qcurve" smooth="yes"/>
      <point x="251" y="-10"/>
      <point x="153" y="29"/>
      <point x="82" y="100"/>
      <point x="42" y="201"/>
      <point x="42" y="263" type="qcurve" smooth="yes"/>
      <point x="42" y="344"/>
      <point x="105" y="486"/>
      <point x="214" y="590"/>
      <point x="360" y="650"/>
      <point x="442" y="650" type="qcurve" smooth="yes"/>
      <point x="508" y="650"/>
      <point x="613" y="608"/>
      <point x="687" y="536"/>
      <point x="726" y="440"/>
    </contour>
    <contour>
      <point x="495" y="434" type="line"/>
      <point x="488" y="439"/>
      <point x="460" y="448"/>
      <point x="444" y="448" type="qcurve" smooth="yes"/>
      <point x="413" y="448"/>
      <point x="353" y="421"/>
      <point x="306" y="372"/>
      <point x="277" y="305"/>
      <point x="277" y="265" type="qcurve" smooth="yes"/>
      <point x="277" y="227"/>
      <point x="317" y="184"/>
      <point x="348" y="184" type="qcurve" smooth="yes"/>
      <point x="391" y="184"/>
      <point x="464" y="265"/>
      <point x="480" y="350" type="qcurve" smooth="yes"/>
      <point x="495" y="434" type="line"/>
    </contour>
  </outline>
</glyph>
<glyph name="A" format="1">
  <advance width="601"/>
  <unicode hex="0041"/>
  <outline>
    <contour>
      <point x="507" y="0" type="line"/>
      <point x="434" y="179" type="line"/>
      <point x="164" y="179" type="line"/>
      <point x="92" y="0" type="line"/>
      <point x="26" y="0" type="line"/>
      <point x="290" y="651" type="line"/>
      <point x="311" y="651" type="line"/>
      <point x="575" y="0" type="line"/>
    </contour>
    <contour>
      <point x="335" y="430" type="line" smooth="yes"/>
      <point x="326" y="452"/>
      <point x="309" y="502"/>
      <point x="301" y="528" type="qcurve"/>
      <point x="299" y="528" type="line"/>
      <point x="291" y="502"/>
      <point x="273" y="452"/>
      <point x="264" y="430" type="qcurve" smooth="yes"/>
      <point x="187" y="234" type="line"/>
      <point x="411" y="234" type="line"/>
    </contour>
  </outline>
</glyph>
<glyph name="B" format="1">
  <advance width="505"/>
  <unicode hex="0042"/>
  <outline>
    <contour>
      <point x="463" y="190" type="qcurve" smooth="yes"/>
      <point x="463" y="145"/>
      <point x="429" y="74"/>
      <point x="373" y="26"/>
      <point x="301" y="0"/>
      <point x="262" y="0" type="qcurve" smooth="yes"/>
      <point x="69" y="0" type="line"/>
      <point x="69" y="638" type="line"/>
      <point x="226" y="638" type="line" smooth="yes"/>
      <point x="259" y="638"/>
      <point x="321" y="616"/>
      <point x="369" y="576"/>
      <point x="397" y="517"/>
      <point x="397" y="480" type="qcurve" smooth="yes"/>
      <point x="397" y="442"/>
      <point x="359" y="375"/>
      <point x="327" y="361" type="qcurve"/>
      <point x="354" y="355"/>
      <point x="403" y="324"/>
      <point x="441" y="279"/>
      <point x="463" y="221"/>
    </contour>
    <contour>
      <point x="329" y="480" type="qcurve" smooth="yes"/>
      <point x="329" y="529"/>
      <point x="264" y="580"/>
      <point x="216" y="580" type="qcurve" smooth="yes"/>
      <point x="136" y="580" type="line"/>
      <point x="136" y="380" type="line"/>
      <point x="219" y="380" type="line" smooth="yes"/>
      <point x="264" y="380"/>
      <point x="329" y="432"/>
    </contour>
    <contour>
      <point x="395" y="190" type="qcurve" smooth="yes"/>
      <point x="395" y="221"/>
      <point x="371" y="270"/>
      <point x="330" y="304"/>
      <point x="275" y="322"/>
      <point x="245" y="322" type="qcurve" smooth="yes"/>
      <point x="136" y="322" type="line"/>
      <point x="136" y="58" type="line"/>
      <point x="249" y="58" type="line" smooth="yes"/>
      <point x="278" y="58"/>
      <point x="331" y="76"/>
      <point x="371" y="109"/>
      <point x="395" y="158"/>
    </contour>
  </outline>
</glyph>
<glyph name="C" format="1">
  <advance width="598"/>
  <unicode hex="0043"/>
  <outline>
    <contour>
      <point x="555" y="547" type="line"/>
      <point x="527" y="565"/>
      <point x="438" y="591"/>
      <point x="387" y="591" type="qcurve" smooth="yes"/>
      <point x="333" y="591"/>
      <point x="233" y="554"/>
      <point x="156" y="483"/>
      <point x="110" y="382"/>
      <point x="110" y="319" type="qcurve" smooth="yes"/>
      <point x="110" y="256"/>
      <point x="155" y="156"/>
      <point x="232" y="85"/>
      <point x="332" y="48"/>
      <point x="387" y="48" type="qcurve" smooth="yes"/>
      <point x="498" y="48"/>
      <point x="567" y="91" type="qcurve"/>
      <point x="551" y="23" type="line"/>
      <point x="521" y="6"/>
      <point x="440" y="-11"/>
      <point x="380" y="-11" type="qcurve" smooth="yes"/>
      <point x="316" y="-11"/>
      <point x="194" y="34"/>
      <point x="100" y="120"/>
      <point x="42" y="242"/>
      <point x="42" y="319" type="qcurve" smooth="yes"/>
      <point x="42" y="397"/>
      <point x="100" y="519"/>
      <point x="195" y="604"/>
      <point x="317" y="649"/>
      <point x="380" y="649" type="qcurve" smooth="yes"/>
      <point x="442" y="649"/>
      <point x="536" y="625"/>
      <point x="568" y="606" type="qcurve"/>
    </contour>
  </outline>
</glyph>
<glyph name="D" format="1">
  <advance width="633"/>
  <unicode hex="0044"/>
  <outline>
    <contour>
      <point x="590" y="319" type="qcurve" smooth="yes"/>
      <point x="590" y="243"/>
      <point x="534" y="124"/>
      <point x="437" y="43"/>
      <point x="308" y="0"/>
      <point x="236" y="0" type="qcurve" smooth="yes"/>
      <point x="69" y="0" type="line"/>
      <point x="69" y="638" type="line"/>
      <point x="236" y="638" type="line" smooth="yes"/>
      <point x="308" y="638"/>
      <point x="437" y="595"/>
      <point x="534" y="514"/>
      <point x="590" y="395"/>
    </contour>
    <contour>
      <point x="521" y="319" type="qcurve" smooth="yes"/>
      <point x="521" y="383"/>
      <point x="476" y="480"/>
      <point x="397" y="546"/>
      <point x="289" y="580"/>
      <point x="226" y="580" type="qcurve" smooth="yes"/>
      <point x="136" y="580" type="line"/>
      <point x="136" y="58" type="line"/>
      <point x="226" y="58" type="line" smooth="yes"/>
      <point x="289" y="58"/>
      <point x="397" y="92"/>
      <point x="476" y="158"/>
      <point x="521" y="255"/>
    </contour>
  </outline>
</glyph>
<glyph name="E" format="1">
  <advance width="459"/>
  <unicode hex="0045"/>
  <outline>
    <contour>
      <point x="69" y="0" type="line"/>
      <point x="69" y="638" type="line"/>
      <point x="402" y="638" type="line"/>
      <point x="402" y="580" type="line"/>
      <point x="136" y="580" type="line"/>
      <point x="136" y="350" type="line"/>
      <point x="354" y="350" type="line"/>
      <point x="354" y="292" type="line"/>
      <point x="136" y="292" type="line"/>
      <point x="136" y="58" type="line"/>
      <point x="437" y="58" type="line"/>
      <point x="437" y="0" type="line"/>
    </contour>
  </outline>
</glyph>
<glyph name="F" format="1">
  <advance width="424"/>
  <unicode hex="0046"/>
  <outline>
    <contour>
      <point x="136" y="580" type="line"/>
      <point x="136" y="350" type="line"/>
      <point x="368" y="350" type="line"/>
      <point x="368" y="292" type="line"/>
      <point x="136" y="292" type="line"/>
      <point x="136" y="0" type="line"/>
      <point x="69" y="0" type="line"/>
      <point x="69" y="638" type="line"/>
      <point x="408" y="638" type="line"/>
      <point x="408" y="580" type="line"/>
    </contour>
  </outline>
</glyph>
<glyph name="G" format="1">
  <advance width="675"/>
  <unicode hex="0047"/>
  <outline>
    <contour>
      <point x="617" y="58" type="line"/>
      <point x="574" y="25"/>
      <point x="457" y="-11"/>
      <point x="384" y="-11" type="qcurve" smooth="yes"/>
      <point x="317" y="-11"/>
      <point x="194" y="35"/>
      <point x="99" y="120"/>
      <point x="42" y="242"/>
      <point x="42" y="319" type="qcurve" smooth="yes"/>
      <point x="42" y="397"/>
      <point x="100" y="519"/>
      <point x="194" y="604"/>
      <point x="316" y="649"/>
      <point x="380" y="649" type="qcurve" smooth="yes"/>
      <point x="443" y="649"/>
      <point x="545" y="623"/>
      <point x="581" y="600" type="qcurve"/>
      <point x="567" y="541" type="line"/>
      <point x="532" y="564"/>
      <point x="439" y="591"/>
      <point x="387" y="591" type="qcurve" smooth="yes"/>
      <point x="333" y="591"/>
      <point x="232" y="553"/>
      <point x="156" y="483"/>
      <point x="110" y="382"/>
      <point x="110" y="318" type="qcurve" smooth="yes"/>
      <point x="110" y="255"/>
      <point x="155" y="155"/>
      <point x="232" y="85"/>
      <point x="332" y="48"/>
      <point x="388" y="48" type="qcurve" smooth="yes"/>
      <point x="442" y="48"/>
      <point x="528" y="74"/>
      <point x="552" y="91" type="qcurve"/>
      <point x="552" y="249" type="line"/>
      <point x="384" y="249" type="line"/>
      <point x="384" y="304" type="line"/>
      <point x="617" y="304" type="line"/>
      <point x="617" y="58" type="line"/>
    </contour>
  </outline>
</glyph>
<glyph name="H" format="1">
  <advance width="638"/>
  <unicode hex="0048"/>
  <outline>
    <contour>
      <point x="502" y="0" type="line"/>
      <point x="502" y="292" type="line"/>
      <point x="136" y="292" type="line"/>
      <point x="136" y="0" type="line"/>
      <point x="69" y="0" type="line"/>
      <point x="69" y="638" type="line"/>
      <point x="136" y="638" type="line"/>
      <point x="136" y="350" type="line"/>
      <point x="502" y="350" type="line"/>
      <point x="502" y="638" type="line"/>
      <point x="569" y="638" type="line"/>
      <point x="569" y="0" type="line"/>
    </contour>
  </outline>
</glyph>
<glyph name="I" format="1">
  <advance width="239"/>
  <unicode hex="0049"/>
  <outline>
    <contour>
      <point x="86" y="0" type="line"/>
      <point x="86" y="638" type="line"/>
      <point x="153" y="638" type="line"/>
      <point x="153" y="0" type="line"/>
    </contour>
  </outline>
</glyph>
<glyph name="J" format="1">
  <advance width="252"/>
  <unicode hex="004A"/>
  <outline>
    <contour>
      <point x="166" y="129" type="line"/>
      <point x="166" y="72"/>
      <point x="136" y="-16"/>
      <point x="85" y="-79"/>
      <point x="19" y="-117"/>
      <point x="-16" y="-124" type="qcurve"/>
      <point x="-60" y="-79" type="line"/>
      <point x="17" y="-63"/>
      <point x="99" y="40"/>
      <point x="99" y="136" type="qcurve" smooth="yes"/>
      <point x="99" y="638" type="line"/>
      <point x="166" y="638" type="line"/>
      <point x="166" y="129" type="line"/>
    </contour>
  </outline>
</glyph>
<glyph name="K" format="1">
  <advance width="518"/>
  <unicode hex="004B"/>
  <outline>
    <contour>
      <point x="422" y="0" type="line"/>
      <point x="136" y="306" type="line"/>
      <point x="136" y="0" type="line"/>
      <point x="69" y="0" type="line"/>
      <point x="69" y="638" type="line"/>
      <point x="136" y="638" type="line"/>
      <point x="136" y="331" type="line"/>
      <point x="414" y="638" type="line"/>
      <point x="493" y="638" type="line"/>
      <point x="206" y="322" type="line"/>
      <point x="505" y="0" type="line"/>
    </contour>
  </outline>
</glyph>
<glyph name="L" format="1">
  <advance width="444"/>
  <unicode hex="004C"/>
  <outline>
    <contour>
      <point x="69" y="0" type="line"/>
      <point x="69" y="638" type="line"/>
      <point x="136" y="638" type="line"/>
      <point x="136" y="58" type="line"/>
      <point x="433" y="58" type="line"/>
      <point x="433" y="0" type="line"/>
    </contour>
  </outline>
</glyph>
<glyph name="M" format="1">
  <advance width="820"/>
  <unicode hex="004D"/>
  <outline>
    <contour>
      <point x="702" y="0" type="line"/>
      <point x="675" y="331" type="line" smooth="yes"/>
      <point x="672" y="373"/>
      <point x="667" y="456"/>
      <point x="665" y="497" type="qcurve"/>
      <point x="663" y="497" type="line"/>
      <point x="646" y="457"/>
      <point x="603" y="366"/>
      <point x="584" y="327" type="qcurve" smooth="yes"/>
      <point x="422" y="-7" type="line"/>
      <point x="400" y="-7" type="line"/>
      <point x="237" y="327" type="line" smooth="yes"/>
      <point x="219" y="365"/>
      <point x="177" y="454"/>
      <point x="158" y="496" type="qcurve"/>
      <point x="156" y="496" type="line"/>
      <point x="154" y="455"/>
      <point x="149" y="369"/>
      <point x="146" y="331" type="qcurve" smooth="yes"/>
      <point x="120" y="0" type="line"/>
      <point x="59" y="0" type="line"/>
      <point x="110" y="638" type="line"/>
      <point x="153" y="638" type="line"/>
      <point x="329" y="280" type="line" smooth="yes"/>
      <point x="350" y="237"/>
      <point x="393" y="146"/>
      <point x="412" y="101" type="qcurve"/>
      <point x="414" y="101" type="line"/>
      <point x="432" y="145"/>
      <point x="473" y="233"/>
      <point x="496" y="280" type="qcurve" smooth="yes"/>
      <point x="671" y="638" type="line"/>
      <point x="714" y="638" type="line"/>
      <point x="767" y="0" type="line"/>
    </contour>
  </outline>
</glyph>
<glyph name="N" format="1">
  <advance width="693"/>
  <unicode hex="004E"/>
  <outline>
    <contour>
      <point x="606" y="-14" type="line"/>
      <point x="292" y="346" type="line" smooth="yes"/>
      <point x="251" y="393"/>
      <point x="169" y="490"/>
      <point x="136" y="530" type="qcurve"/>
      <point x="134" y="529" type="line"/>
      <point x="136" y="484"/>
      <point x="136" y="396"/>
      <point x="136" y="352" type="qcurve" smooth="yes"/>
      <point x="136" y="0" type="line"/>
      <point x="69" y="0" type="line"/>
      <point x="69" y="638" type="line"/>
      <point x="116" y="638" type="line"/>
      <point x="412" y="299" type="line" smooth="yes"/>
      <point x="445" y="261"/>
      <point x="525" y="167"/>
      <point x="557" y="128" type="qcurve"/>
      <point x="559" y="129" type="line"/>
      <point x="557" y="172"/>
      <point x="557" y="257"/>
      <point x="557" y="298" type="qcurve" smooth="yes"/>
      <point x="557" y="638" type="line"/>
      <point x="624" y="638" type="line"/>
      <point x="624" y="-14" type="line"/>
    </contour>
  </outline>
</glyph>
<glyph name="O" format="1">
  <advance width="752"/>
  <unicode hex="004F"/>
  <outline>
    <contour>
      <point x="710" y="320" type="qcurve" smooth="yes"/>
      <point x="710" y="245"/>
      <point x="655" y="123"/>
      <point x="563" y="36"/>
      <point x="442" y="-11"/>
      <point x="376" y="-11" type="qcurve" smooth="yes"/>
      <point x="310" y="-11"/>
      <point x="189" y="36"/>
      <point x="97" y="123"/>
      <point x="42" y="245"/>
      <point x="42" y="320" type="qcurve" smooth="yes"/>
      <point x="42" y="394"/>
      <point x="97" y="515"/>
      <point x="189" y="602"/>
      <point x="310" y="649"/>
      <point x="376" y="649" type="qcurve" smooth="yes"/>
      <point x="442" y="649"/>
      <point x="563" y="602"/>
      <point x="655" y="515"/>
      <point x="710" y="394"/>
    </contour>
    <contour>
      <point x="642" y="320" type="qcurve" smooth="yes"/>
      <point x="642" y="381"/>
      <point x="598" y="482"/>
      <point x="524" y="552"/>
      <point x="428" y="591"/>
      <point x="376" y="591" type="qcurve" smooth="yes"/>
      <point x="323" y="591"/>
      <point x="227" y="552"/>
      <point x="154" y="482"/>
      <point x="110" y="381"/>
      <point x="110" y="320" type="qcurve" smooth="yes"/>
      <point x="110" y="258"/>
      <point x="154" y="158"/>
      <point x="227" y="87"/>
      <point x="323" y="48"/>
      <point x="376" y="48" type="qcurve" smooth="yes"/>
      <point x="428" y="48"/>
      <point x="524" y="87"/>
      <point x="598" y="158"/>
      <point x="642" y="258"/>
    </contour>
  </outline>
</glyph>
<glyph name="P" format="1">
  <advance width="452"/>
  <unicode hex="0050"/>
  <outline>
    <contour>
      <point x="434" y="465" type="qcurve" smooth="yes"/>
      <point x="434" y="424"/>
      <point x="403" y="360"/>
      <point x="352" y="315"/>
      <point x="286" y="292"/>
      <point x="251" y="292" type="qcurve" smooth="yes"/>
      <point x="136" y="292" type="line"/>
      <point x="136" y="0" type="line"/>
      <point x="69" y="0" type="line"/>
      <point x="69" y="638" type="line"/>
      <point x="247" y="638" type="line" smooth="yes"/>
      <point x="283" y="638"/>
      <point x="351" y="615"/>
      <point x="403" y="570"/>
      <point x="434" y="506"/>
    </contour>
    <contour>
      <point x="366" y="465" type="qcurve" smooth="yes"/>
      <point x="366" y="492"/>
      <point x="345" y="535"/>
      <point x="310" y="564"/>
      <point x="263" y="580"/>
      <point x="236" y="580" type="qcurve" smooth="yes"/>
      <point x="136" y="580" type="line"/>
      <point x="136" y="350" type="line"/>
      <point x="240" y="350" type="line" smooth="yes"/>
      <point x="265" y="350"/>
      <point x="311" y="365"/>
      <point x="345" y="395"/>
      <point x="366" y="438"/>
    </contour>
  </outline>
</glyph>
<glyph name="Q" format="1">
  <advance width="752"/>
  <unicode hex="0051"/>
  <outline>
    <contour>
      <point x="704" y="-117" type="line"/>
      <point x="685" y="-124"/>
      <point x="657" y="-124" type="qcurve" smooth="yes"/>
      <point x="631" y="-124"/>
      <point x="586" y="-118"/>
      <point x="542" y="-104"/>
      <point x="495" y="-84"/>
      <point x="468" y="-69" type="qcurve" smooth="yes"/>
      <point x="430" y="-49"/>
      <point x="367" y="-19"/>
      <point x="344" y="-9" type="qcurve"/>
      <point x="282" y="-3"/>
      <point x="173" y="49"/>
      <point x="90" y="134"/>
      <point x="42" y="250"/>
      <point x="42" y="320" type="qcurve" smooth="yes"/>
      <point x="42" y="394"/>
      <point x="97" y="515"/>
      <point x="189" y="602"/>
      <point x="310" y="649"/>
      <point x="376" y="649" type="qcurve" smooth="yes"/>
      <point x="442" y="649"/>
      <point x="563" y="602"/>
      <point x="655" y="515"/>
      <point x="710" y="394"/>
      <point x="710" y="320" type="qcurve" smooth="yes"/>
      <point x="710" y="258"/>
      <point x="669" y="150"/>
      <point x="599" y="66"/>
      <point x="503" y="12"/>
      <point x="449" y="3" type="qcurve"/>
      <point x="449" y="1" type="line"/>
      <point x="460" y="-1"/>
      <point x="491" y="-14"/>
      <point x="514" y="-25" type="qcurve" smooth="yes"/>
      <point x="562" y="-49"/>
      <point x="634" y="-70"/>
      <point x="669" y="-70" type="qcurve" smooth="yes"/>
      <point x="714" y="-70"/>
      <point x="749" y="-54" type="qcurve"/>
    </contour>
    <contour>
      <point x="642" y="320" type="qcurve" smooth="yes"/>
      <point x="642" y="381"/>
      <point x="598" y="482"/>
      <point x="524" y="552"/>
      <point x="428" y="591"/>
      <point x="376" y="591" type="qcurve" smooth="yes"/>
      <point x="323" y="591"/>
      <point x="227" y="552"/>
      <point x="154" y="482"/>
      <point x="110" y="381"/>
      <point x="110" y="320" type="qcurve" smooth="yes"/>
      <point x="110" y="258"/>
      <point x="154" y="158"/>
      <point x="227" y="87"/>
      <point x="323" y="48"/>
      <point x="376" y="48" type="qcurve" smooth="yes"/>
      <point x="428" y="48"/>
      <point x="524" y="87"/>
      <point x="598" y="158"/>
      <point x="642" y="258"/>
    </contour>
  </outline>
</glyph>
<glyph name="R" format="1">
  <advance width="527"/>
  <unicode hex="0052"/>
  <outline>
    <contour>
      <point x="459" y="0" type="line"/>
      <point x="246" y="292" type="line"/>
      <point x="136" y="292" type="line"/>
      <point x="136" y="0" type="line"/>
      <point x="69" y="0" type="line"/>
      <point x="69" y="638" type="line"/>
      <point x="251" y="638" type="line" smooth="yes"/>
      <point x="287" y="638"/>
      <point x="355" y="615"/>
      <point x="407" y="570"/>
      <point x="438" y="506"/>
      <point x="438" y="465" type="qcurve" smooth="yes"/>
      <point x="438" y="402"/>
      <point x="367" y="317"/>
      <point x="313" y="302" type="qcurve"/>
      <point x="537" y="0" type="line"/>
    </contour>
    <contour>
      <point x="370" y="465" type="qcurve" smooth="yes"/>
      <point x="370" y="492"/>
      <point x="349" y="535"/>
      <point x="314" y="564"/>
      <point x="267" y="580"/>
      <point x="240" y="580" type="qcurve" smooth="yes"/>
      <point x="136" y="580" type="line"/>
      <point x="136" y="350" type="line"/>
      <point x="244" y="350" type="line" smooth="yes"/>
      <point x="269" y="350"/>
      <point x="315" y="365"/>
      <point x="349" y="395"/>
      <point x="370" y="438"/>
    </contour>
  </outline>
</glyph>
<glyph name="S" format="1">
  <advance width="462"/>
  <unicode hex="0053"/>
  <outline>
    <contour>
      <point x="421" y="171" type="qcurve" smooth="yes"/>
      <point x="421" y="88"/>
      <point x="310" y="-11"/>
      <point x="214" y="-11" type="qcurve" smooth="yes"/>
      <point x="158" y="-11"/>
      <point x="71" y="19"/>
      <point x="45" y="38" type="qcurve"/>
      <point x="26" y="117" type="line"/>
      <point x="68" y="85"/>
      <point x="161" y="48"/>
      <point x="217" y="48" type="qcurve" smooth="yes"/>
      <point x="277" y="48"/>
      <point x="353" y="112"/>
      <point x="353" y="165" type="qcurve" smooth="yes"/>
      <point x="353" y="215"/>
      <point x="291" y="280"/>
      <point x="224" y="303" type="qcurve" smooth="yes"/>
      <point x="138" y="333"/>
      <point x="56" y="425"/>
      <point x="56" y="488" type="qcurve" smooth="yes"/>
      <point x="56" y="518"/>
      <point x="79" y="575"/>
      <point x="125" y="621"/>
      <point x="197" y="649"/>
      <point x="245" y="649" type="qcurve" smooth="yes"/>
      <point x="289" y="649"/>
      <point x="360" y="626"/>
      <point x="380" y="612" type="qcurve"/>
      <point x="366" y="556" type="line"/>
      <point x="347" y="570"/>
      <point x="280" y="593"/>
      <point x="243" y="593" type="qcurve" smooth="yes"/>
      <point x="213" y="593"/>
      <point x="167" y="575"/>
      <point x="137" y="547"/>
      <point x="121" y="510"/>
      <point x="121" y="492" type="qcurve" smooth="yes"/>
      <point x="121" y="454"/>
      <point x="177" y="394"/>
      <point x="238" y="371" type="qcurve" smooth="yes"/>
      <point x="281" y="355"/>
      <point x="349" y="317"/>
      <point x="396" y="270"/>
      <point x="421" y="210"/>
    </contour>
  </outline>
</glyph>
<glyph name="T" format="1">
  <advance width="520"/>
  <unicode hex="0054"/>
  <outline>
    <contour>
      <point x="293" y="580" type="line"/>
      <point x="293" y="0" type="line"/>
      <point x="226" y="0" type="line"/>
      <point x="226" y="580" type="line"/>
      <point x="7" y="580" type="line"/>
      <point x="7" y="638" type="line"/>
      <point x="513" y="638" type="line"/>
      <point x="513" y="580" type="line"/>
    </contour>
  </outline>
</glyph>
<glyph name="U" format="1">
  <advance width="636"/>
  <unicode hex="0055"/>
  <outline>
    <contour>
      <point x="567" y="221" type="line"/>
      <point x="567" y="167"/>
      <point x="531" y="81"/>
      <point x="465" y="21"/>
      <point x="373" y="-11"/>
      <point x="318" y="-11" type="qcurve" smooth="yes"/>
      <point x="262" y="-11"/>
      <point x="171" y="21"/>
      <point x="105" y="81"/>
      <point x="69" y="167"/>
      <point x="69" y="221" type="qcurve" smooth="yes"/>
      <point x="69" y="638" type="line"/>
      <point x="136" y="638" type="line"/>
      <point x="136" y="227" type="line" smooth="yes"/>
      <point x="136" y="143"/>
      <point x="231" y="49"/>
      <point x="319" y="49" type="qcurve" smooth="yes"/>
      <point x="406" y="49"/>
      <point x="502" y="143"/>
      <point x="502" y="227" type="qcurve" smooth="yes"/>
      <point x="502" y="638" type="line"/>
      <point x="567" y="638" type="line"/>
      <point x="567" y="221" type="line"/>
    </contour>
  </outline>
</glyph>
<glyph name="V" format="1">
  <advance width="561"/>
  <unicode hex="0056"/>
  <outline>
    <contour>
      <point x="290" y="-10" type="line"/>
      <point x="271" y="-10" type="line"/>
      <point x="16" y="638" type="line"/>
      <point x="87" y="638" type="line"/>
      <point x="221" y="296" type="line" smooth="yes"/>
      <point x="236" y="257"/>
      <point x="269" y="168"/>
      <point x="283" y="125" type="qcurve"/>
      <point x="285" y="125" type="line"/>
      <point x="299" y="167"/>
      <point x="330" y="255"/>
      <point x="346" y="296" type="qcurve" smooth="yes"/>
      <point x="481" y="638" type="line"/>
      <point x="545" y="638" type="line"/>
    </contour>
  </outline>
</glyph>
<glyph name="W" format="1">
  <advance width="921"/>
  <unicode hex="0057"/>
  <outline>
    <contour>
      <point x="669" y="-10" type="line"/>
      <point x="649" y="-10" type="line"/>
      <point x="521" y="362" type="line" smooth="yes"/>
      <point x="506" y="406"/>
      <point x="477" y="495"/>
      <point x="461" y="548" type="qcurve"/>
      <point x="459" y="548" type="line"/>
      <point x="443" y="495"/>
      <point x="414" y="406"/>
      <point x="399" y="362" type="qcurve" smooth="yes"/>
      <point x="272" y="-10" type="line"/>
      <point x="251" y="-10" type="line"/>
      <point x="27" y="638" type="line"/>
      <point x="95" y="638" type="line"/>
      <point x="211" y="303" type="line" smooth="yes"/>
      <point x="225" y="264"/>
      <point x="253" y="180"/>
      <point x="264" y="136" type="qcurve"/>
      <point x="266" y="136" type="line"/>
      <point x="278" y="179"/>
      <point x="305" y="263"/>
      <point x="319" y="303" type="qcurve" smooth="yes"/>
      <point x="434" y="638" type="line"/>
      <point x="493" y="638" type="line"/>
      <point x="608" y="303" type="line" smooth="yes"/>
      <point x="637" y="221"/>
      <point x="660" y="136" type="qcurve"/>
      <point x="662" y="136" type="line"/>
      <point x="674" y="177"/>
      <point x="702" y="262"/>
      <point x="716" y="303" type="qcurve" smooth="yes"/>
      <point x="831" y="638" type="line"/>
      <point x="894" y="638" type="line"/>
    </contour>
  </outline>
</glyph>
<glyph name="X" format="1">
  <advance width="551"/>
  <unicode hex="0058"/>
  <outline>
    <contour>
      <point x="445" y="0" type="line"/>
      <point x="330" y="184" type="line" smooth="yes"/>
      <point x="316" y="205"/>
      <point x="289" y="252"/>
      <point x="275" y="276" type="qcurve"/>
      <point x="273" y="276" type="line"/>
      <point x="260" y="252"/>
      <point x="230" y="204"/>
      <point x="218" y="184" type="qcurve" smooth="yes"/>
      <point x="101" y="0" type="line"/>
      <point x="29" y="0" type="line"/>
      <point x="235" y="325" type="line"/>
      <point x="39" y="638" type="line"/>
      <point x="116" y="638" type="line"/>
      <point x="225" y="464" type="line" smooth="yes"/>
      <point x="237" y="444"/>
      <point x="265" y="398"/>
      <point x="276" y="377" type="qcurve"/>
      <point x="278" y="377" type="line"/>
      <point x="289" y="398"/>
      <point x="317" y="444"/>
      <point x="329" y="464" type="qcurve" smooth="yes"/>
      <point x="440" y="638" type="line"/>
      <point x="512" y="638" type="line"/>
      <point x="316" y="329" type="line"/>
      <point x="522" y="0" type="line"/>
    </contour>
  </outline>
</glyph>
<glyph name="Y" format="1">
  <advance width="578"/>
  <unicode hex="0059"/>
  <outline>
    <contour>
      <point x="321" y="295" type="line"/>
      <point x="321" y="0" type="line"/>
      <point x="255" y="0" type="line"/>
      <point x="255" y="295" type="line"/>
      <point x="12" y="638" type="line"/>
      <point x="86" y="638" type="line"/>
      <point x="224" y="443" type="line" smooth="yes"/>
      <point x="239" y="421"/>
      <point x="275" y="369"/>
      <point x="290" y="346" type="qcurve"/>
      <point x="292" y="346" type="line"/>
      <point x="307" y="369"/>
      <point x="341" y="420"/>
      <point x="358" y="443" type="qcurve" smooth="yes"/>
      <point x="497" y="638" type="line"/>
      <point x="566" y="638" type="line"/>
    </contour>
  </outline>
</glyph>
<glyph name="Z" format="1">
  <advance width="494"/>
  <unicode hex="005A"/>
  <outline>
    <contour>
      <point x="26" y="0" type="line"/>
      <point x="26" y="15" type="line"/>
      <point x="246" y="391" type="line" smooth="yes"/>
      <point x="274" y="439"/>
      <point x="333" y="539"/>
      <point x="359" y="580" type="qcurve"/>
      <point x="358" y="581" type="line"/>
      <point x="52" y="581" type="line"/>
      <point x="52" y="638" type="line"/>
      <point x="454" y="638" type="line"/>
      <point x="454" y="623" type="line"/>
      <point x="232" y="245" type="line" smooth="yes"/>
      <point x="205" y="199"/>
      <point x="146" y="100"/>
      <point x="120" y="58" type="qcurve"/>
      <point x="121" y="57" type="line"/>
      <point x="464" y="57" type="line"/>
      <point x="464" y="0" type="line"/>
    </contour>
  </outline>
</glyph>
<glyph name="bracketleft" format="1">
  <advance width="295"/>
  <unicode hex="005B"/>
  <outline>
    <contour>
      <point x="65" y="-218" type="line"/>
      <point x="65" y="700" type="line"/>
      <point x="262" y="700" type="line"/>
      <point x="262" y="646" type="line"/>
      <point x="128" y="646" type="line"/>
      <point x="128" y="-164" type="line"/>
      <point x="262" y="-164" type="line"/>
      <point x="262" y="-218" type="line"/>
    </contour>
  </outline>
</glyph>
<glyph name="backslash" format="1">
  <advance width="621"/>
  <unicode hex="005C"/>
  <outline>
    <contour>
      <point x="549" y="-15" type="line"/>
      <point x="28" y="631" type="line"/>
      <point x="70" y="665" type="line"/>
      <point x="593" y="20" type="line"/>
    </contour>
  </outline>
</glyph>
<glyph name="bracketright" format="1">
  <advance width="295"/>
  <unicode hex="005D"/>
  <outline>
    <contour>
      <point x="36" y="-218" type="line"/>
      <point x="36" y="-164" type="line"/>
      <point x="171" y="-164" type="line"/>
      <point x="171" y="646" type="line"/>
      <point x="36" y="646" type="line"/>
      <point x="36" y="700" type="line"/>
      <point x="233" y="700" type="line"/>
      <point x="233" y="-218" type="line"/>
    </contour>
  </outline>
</glyph>
<glyph name="asciicircum" format="1">
  <advance width="378"/>
  <unicode hex="005E"/>
  <outline>
    <contour>
      <point x="301" y="500" type="line"/>
      <point x="268" y="515"/>
      <point x="213" y="554"/>
      <point x="189" y="580" type="qcurve"/>
      <point x="165" y="554"/>
      <point x="110" y="515"/>
      <point x="77" y="500" type="qcurve"/>
      <point x="36" y="540" type="line"/>
      <point x="82" y="560"/>
      <point x="160" y="629"/>
      <point x="189" y="671" type="qcurve"/>
      <point x="218" y="629"/>
      <point x="296" y="560"/>
      <point x="342" y="540" type="qcurve"/>
    </contour>
  </outline>
</glyph>
<glyph name="underscore" format="1">
  <advance width="500"/>
  <unicode hex="005F"/>
  <outline>
    <contour>
      <point x="-1" y="-231" type="line"/>
      <point x="-1" y="-176" type="line"/>
      <point x="502" y="-176" type="line"/>
      <point x="502" y="-231" type="line"/>
    </contour>
  </outline>
</glyph>
<glyph name="grave" format="1">
  <advance width="360"/>
  <unicode hex="0060"/>
  <outline>
    <contour>
      <point x="241" y="516" type="line"/>
      <point x="196" y="527"/>
      <point x="112" y="564"/>
      <point x="75" y="596" type="qcurve"/>
      <point x="88" y="655" type="line"/>
      <point x="125" y="617"/>
      <point x="226" y="565"/>
      <point x="277" y="551" type="qcurve"/>
    </contour>
  </outline>
</glyph>
<glyph name="b" format="1">
  <advance width="511"/>
  <unicode hex="0062"/>
  <outline>
    <contour>
      <point x="474" y="228" type="qcurve" smooth="yes"/>
      <point x="474" y="174"/>
      <point x="437" y="87"/>
      <point x="371" y="24"/>
      <point x="279" y="-10"/>
      <point x="224" y="-10" type="qcurve" smooth="yes"/>
      <point x="176" y="-10"/>
      <point x="95" y="14"/>
      <point x="66" y="32" type="qcurve"/>
      <point x="66" y="712" type="line"/>
      <point x="129" y="712" type="line"/>
      <point x="129" y="437" type="line"/>
      <point x="146" y="449"/>
      <point x="199" y="463"/>
      <point x="232" y="463" type="qcurve" smooth="yes"/>
      <point x="281" y="463"/>
      <point x="369" y="429"/>
      <point x="435" y="367"/>
      <point x="474" y="280"/>
    </contour>
    <contour>
      <point x="410" y="228" type="qcurve" smooth="yes"/>
      <point x="410" y="268"/>
      <point x="381" y="334"/>
      <point x="332" y="381"/>
      <point x="267" y="407"/>
      <point x="232" y="407" type="qcurve" smooth="yes"/>
      <point x="200" y="407"/>
      <point x="146" y="390"/>
      <point x="129" y="376" type="qcurve"/>
      <point x="129" y="67" type="line"/>
      <point x="146" y="59"/>
      <point x="192" y="46"/>
      <point x="224" y="46" type="qcurve" smooth="yes"/>
      <point x="266" y="46"/>
      <point x="335" y="73"/>
      <point x="384" y="121"/>
      <point x="410" y="188"/>
    </contour>
  </outline>
</glyph>
<glyph name="c" format="1">
  <advance width="457"/>
  <unicode hex="0063"/>
  <outline>
    <contour>
      <point x="409" y="372" type="line"/>
      <point x="383" y="389"/>
      <point x="318" y="407"/>
      <point x="283" y="407" type="qcurve" smooth="yes"/>
      <point x="245" y="407"/>
      <point x="178" y="381"/>
      <point x="129" y="333"/>
      <point x="101" y="266"/>
      <point x="101" y="226" type="qcurve" smooth="yes"/>
      <point x="101" y="186"/>
      <point x="130" y="120"/>
      <point x="179" y="72"/>
      <point x="246" y="46"/>
      <point x="285" y="46" type="qcurve" smooth="yes"/>
      <point x="320" y="46"/>
      <point x="383" y="61"/>
      <point x="418" y="79" type="qcurve"/>
      <point x="402" y="15" type="line"/>
      <point x="379" y="2"/>
      <point x="315" y="-10"/>
      <point x="280" y="-10" type="qcurve" smooth="yes"/>
      <point x="232" y="-10"/>
      <point x="144" y="23"/>
      <point x="77" y="85"/>
      <point x="37" y="172"/>
      <point x="37" y="226" type="qcurve" smooth="yes"/>
      <point x="37" y="280"/>
      <point x="76" y="368"/>
      <point x="143" y="429"/>
      <point x="231" y="463"/>
      <point x="280" y="463" type="qcurve" smooth="yes"/>
      <point x="324" y="463"/>
      <point x="396" y="443"/>
      <point x="422" y="428" type="qcurve"/>
    </contour>
  </outline>
</glyph>
<glyph name="d" format="1">
  <advance width="529"/>
  <unicode hex="0064"/>
  <outline>
    <contour>
      <point x="407" y="0" type="line"/>
      <point x="405" y="38" type="line"/>
      <point x="382" y="14"/>
      <point x="309" y="-10"/>
      <point x="265" y="-10" type="qcurve" smooth="yes"/>
      <point x="223" y="-10"/>
      <point x="141" y="22"/>
      <point x="76" y="83"/>
      <point x="37" y="170"/>
      <point x="37" y="226" type="qcurve" smooth="yes"/>
      <point x="37" y="278"/>
      <point x="73" y="365"/>
      <point x="137" y="428"/>
      <point x="224" y="463"/>
      <point x="275" y="463" type="qcurve" smooth="yes"/>
      <point x="313" y="463"/>
      <point x="379" y="441"/>
      <point x="399" y="426" type="qcurve"/>
      <point x="399" y="712" type="line"/>
      <point x="463" y="712" type="line"/>
      <point x="463" y="0" type="line"/>
    </contour>
    <contour>
      <point x="399" y="359" type="line"/>
      <point x="379" y="379"/>
      <point x="313" y="407"/>
      <point x="275" y="407" type="qcurve" smooth="yes"/>
      <point x="238" y="407"/>
      <point x="175" y="380"/>
      <point x="128" y="332"/>
      <point x="101" y="266"/>
      <point x="101" y="226" type="qcurve" smooth="yes"/>
      <point x="101" y="186"/>
      <point x="128" y="120"/>
      <point x="175" y="72"/>
      <point x="238" y="46"/>
      <point x="275" y="46" type="qcurve" smooth="yes"/>
      <point x="314" y="46"/>
      <point x="378" y="72"/>
      <point x="399" y="95" type="qcurve"/>
    </contour>
  </outline>
</glyph>
<glyph name="f" format="1">
  <advance width="319"/>
  <unicode hex="0066"/>
  <outline>
    <contour>
      <point x="338" y="647" type="line"/>
      <point x="324" y="654"/>
      <point x="286" y="662"/>
      <point x="266" y="662" type="qcurve" smooth="yes"/>
      <point x="212" y="662"/>
      <point x="153" y="582"/>
      <point x="153" y="521" type="qcurve" smooth="yes"/>
      <point x="153" y="453" type="line"/>
      <point x="296" y="453" type="line"/>
      <point x="284" y="401" type="line"/>
      <point x="153" y="401" type="line"/>
      <point x="153" y="0" type="line"/>
      <point x="89" y="0" type="line"/>
      <point x="89" y="401" type="line"/>
      <point x="17" y="401" type="line"/>
      <point x="17" y="453" type="line"/>
      <point x="89" y="453" type="line"/>
      <point x="89" y="504" type="line" smooth="yes"/>
      <point x="89" y="609"/>
      <point x="187" y="716"/>
      <point x="276" y="716" type="qcurve" smooth="yes"/>
      <point x="297" y="716"/>
      <point x="336" y="708"/>
      <point x="351" y="701" type="qcurve"/>
    </contour>
  </outline>
</glyph>
<glyph name="g" format="1">
  <advance width="456"/>
  <unicode hex="0067"/>
  <outline>
    <contour>
      <point x="425" y="-87" type="qcurve" smooth="yes"/>
      <point x="425" y="-118"/>
      <point x="396" y="-170"/>
      <point x="343" y="-209"/>
      <point x="270" y="-231"/>
      <point x="226" y="-231" type="qcurve" smooth="yes"/>
      <point x="181" y="-231"/>
      <point x="107" y="-207"/>
      <point x="54" y="-165"/>
      <point x="25" y="-108"/>
      <point x="25" y="-75" type="qcurve" smooth="yes"/>
      <point x="25" y="-47"/>
      <point x="43" y="-1"/>
      <point x="73" y="35"/>
      <point x="112" y="58"/>
      <point x="132" y="63" type="qcurve"/>
      <point x="78" y="112" type="line"/>
      <point x="78" y="124"/>
      <point x="89" y="146"/>
      <point x="107" y="166"/>
      <point x="130" y="181"/>
      <point x="141" y="184" type="qcurve"/>
      <point x="107" y="201"/>
      <point x="58" y="268"/>
      <point x="58" y="313" type="qcurve" smooth="yes"/>
      <point x="58" y="346"/>
      <point x="83" y="401"/>
      <point x="127" y="441"/>
      <point x="188" y="463"/>
      <point x="224" y="463" type="qcurve" smooth="yes"/>
      <point x="242" y="463"/>
      <point x="270" y="458"/>
      <point x="281" y="455" type="qcurve" smooth="yes"/>
      <point x="303" y="448"/>
      <point x="337" y="448" type="qcurve" smooth="yes"/>
      <point x="357" y="448"/>
      <point x="393" y="457"/>
      <point x="406" y="464" type="qcurve"/>
      <point x="419" y="412" type="line"/>
      <point x="411" y="407"/>
      <point x="371" y="398"/>
      <point x="357" y="398" type="qcurve"/>
      <point x="371" y="384"/>
      <point x="390" y="340"/>
      <point x="390" y="313" type="qcurve" smooth="yes"/>
      <point x="390" y="283"/>
      <point x="367" y="228"/>
      <point x="324" y="186"/>
      <point x="262" y="162"/>
      <point x="224" y="162" type="qcurve" smooth="yes"/>
      <point x="186" y="162"/>
      <point x="146" y="141"/>
      <point x="146" y="127" type="qcurve" smooth="yes"/>
      <point x="146" y="124"/>
      <point x="171" y="100"/>
      <point x="187" y="95" type="qcurve" smooth="yes"/>
      <point x="304" y="55" type="line" smooth="yes"/>
      <point x="362" y="35"/>
      <point x="425" y="-30"/>
    </contour>
    <contour>
      <point x="331" y="313" type="qcurve" smooth="yes"/>
      <point x="331" y="333"/>
      <point x="315" y="368"/>
      <point x="286" y="395"/>
      <point x="247" y="410"/>
      <point x="225" y="410" type="qcurve" smooth="yes"/>
      <point x="178" y="410"/>
      <point x="117" y="353"/>
      <point x="117" y="313" type="qcurve" smooth="yes"/>
      <point x="117" y="271"/>
      <point x="178" y="215"/>
      <point x="225" y="215" type="qcurve" smooth="yes"/>
      <point x="246" y="215"/>
      <point x="285" y="230"/>
      <point x="314" y="257"/>
      <point x="331" y="292"/>
    </contour>
    <contour>
      <point x="365" y="-87" type="qcurve" smooth="yes"/>
      <point x="365" y="-55"/>
      <point x="323" y="-11"/>
      <point x="285" y="1" type="qcurve" smooth="yes"/>
      <point x="194" y="29" type="line"/>
      <point x="145" y="28"/>
      <point x="82" y="-30"/>
      <point x="82" y="-75" type="qcurve" smooth="yes"/>
      <point x="82" y="-95"/>
      <point x="101" y="-132"/>
      <point x="138" y="-161"/>
      <point x="191" y="-179"/>
      <point x="225" y="-179" type="qcurve" smooth="yes"/>
      <point x="258" y="-179"/>
      <point x="310" y="-163"/>
      <point x="346" y="-137"/>
      <point x="365" y="-104"/>
    </contour>
  </outline>
</glyph>
<glyph name="h" format="1">
  <advance width="506"/>
  <unicode hex="0068"/>
  <outline>
    <contour>
      <point x="383" y="0" type="line"/>
      <point x="383" y="299" type="line" smooth="yes"/>
      <point x="383" y="347"/>
      <point x="319" y="408"/>
      <point x="258" y="408" type="qcurve" smooth="yes"/>
      <point x="199" y="408"/>
      <point x="129" y="347"/>
      <point x="129" y="299" type="qcurve" smooth="yes"/>
      <point x="129" y="0" type="line"/>
      <point x="66" y="0" type="line"/>
      <point x="66" y="712" type="line"/>
      <point x="129" y="712" type="line"/>
      <point x="129" y="402" type="line"/>
      <point x="146" y="426"/>
      <point x="215" y="463"/>
      <point x="273" y="463" type="qcurve" smooth="yes"/>
      <point x="310" y="463"/>
      <point x="373" y="441"/>
      <point x="420" y="401"/>
      <point x="446" y="342"/>
      <point x="446" y="305" type="qcurve" smooth="yes"/>
      <point x="446" y="0" type="line"/>
    </contour>
  </outline>
</glyph>
<glyph name="i" format="1">
  <advance width="230"/>
  <unicode hex="0069"/>
  <outline>
    <contour>
      <point x="158" y="589" type="qcurve" smooth="yes"/>
      <point x="158" y="583"/>
      <point x="149" y="566"/>
      <point x="135" y="551"/>
      <point x="121" y="541"/>
      <point x="115" y="541" type="qcurve" smooth="yes"/>
      <point x="109" y="541"/>
      <point x="95" y="551"/>
      <point x="82" y="566"/>
      <point x="73" y="583"/>
      <point x="73" y="589" type="qcurve" smooth="yes"/>
      <point x="73" y="595"/>
      <point x="82" y="612"/>
      <point x="95" y="627"/>
      <point x="109" y="638"/>
      <point x="115" y="638" type="qcurve" smooth="yes"/>
      <point x="121" y="638"/>
      <point x="135" y="627"/>
      <point x="149" y="612"/>
      <point x="158" y="595"/>
    </contour>
    <contour>
      <point x="83" y="0" type="line"/>
      <point x="83" y="453" type="line"/>
      <point x="147" y="453" type="line"/>
      <point x="147" y="0" type="line"/>
    </contour>
  </outline>
</glyph>
<glyph name="j" format="1">
  <advance width="230"/>
  <unicode hex="006A"/>
  <outline>
    <contour>
      <point x="157" y="589" type="qcurve" smooth="yes"/>
      <point x="157" y="583"/>
      <point x="148" y="566"/>
      <point x="135" y="551"/>
      <point x="121" y="541"/>
      <point x="115" y="541" type="qcurve" smooth="yes"/>
      <point x="109" y="541"/>
      <point x="95" y="551"/>
      <point x="82" y="566"/>
      <point x="73" y="583"/>
      <point x="73" y="589" type="qcurve" smooth="yes"/>
      <point x="73" y="595"/>
      <point x="82" y="612"/>
      <point x="95" y="627"/>
      <point x="109" y="638"/>
      <point x="115" y="638" type="qcurve" smooth="yes"/>
      <point x="121" y="638"/>
      <point x="135" y="627"/>
      <point x="148" y="612"/>
      <point x="157" y="595"/>
    </contour>
    <contour>
      <point x="147" y="-52" type="line"/>
      <point x="147" y="-87"/>
      <point x="127" y="-147"/>
      <point x="94" y="-193"/>
      <point x="50" y="-224"/>
      <point x="25" y="-230" type="qcurve"/>
      <point x="-16" y="-190" type="line"/>
      <point x="32" y="-179"/>
      <point x="83" y="-109"/>
      <point x="83" y="-47" type="qcurve" smooth="yes"/>
      <point x="83" y="453" type="line"/>
      <point x="147" y="453" type="line"/>
      <point x="147" y="-52" type="line"/>
    </contour>
  </outline>
</glyph>
<glyph name="k" format="1">
  <advance width="431"/>
  <unicode hex="006B"/>
  <outline>
    <contour>
      <point x="344" y="0" type="line"/>
      <point x="129" y="220" type="line"/>
      <point x="129" y="0" type="line"/>
      <point x="66" y="0" type="line"/>
      <point x="66" y="712" type="line"/>
      <point x="129" y="712" type="line"/>
      <point x="129" y="237" type="line"/>
      <point x="339" y="453" type="line"/>
      <point x="415" y="453" type="line"/>
      <point x="201" y="231" type="line"/>
      <point x="426" y="0" type="line"/>
    </contour>
  </outline>
</glyph>
<glyph name="l" format="1">
  <advance width="253"/>
  <unicode hex="006C"/>
  <outline>
    <contour>
      <point x="161" y="-15" type="line"/>
      <point x="148" y="-11"/>
      <point x="120" y="5"/>
      <point x="98" y="32"/>
      <point x="83" y="72"/>
      <point x="83" y="99" type="qcurve" smooth="yes"/>
      <point x="83" y="712" type="line"/>
      <point x="146" y="712" type="line"/>
      <point x="146" y="106" type="line" smooth="yes"/>
      <point x="146" y="74"/>
      <point x="181" y="33"/>
      <point x="204" y="28" type="qcurve"/>
    </contour>
  </outline>
</glyph>
<glyph name="m" format="1">
  <advance width="764"/>
  <unicode hex="006D"/>
  <outline>
    <contour>
      <point x="642" y="0" type="line"/>
      <point x="642" y="318" type="line" smooth="yes"/>
      <point x="642" y="361"/>
      <point x="583" y="408"/>
      <point x="530" y="408" type="qcurve" smooth="yes"/>
      <point x="478" y="408"/>
      <point x="414" y="360"/>
      <point x="414" y="318" type="qcurve" smooth="yes"/>
      <point x="414" y="0" type="line"/>
      <point x="351" y="0" type="line"/>
      <point x="351" y="318" type="line" smooth="yes"/>
      <point x="351" y="361"/>
      <point x="291" y="408"/>
      <point x="238" y="408" type="qcurve" smooth="yes"/>
      <point x="186" y="408"/>
      <point x="122" y="360"/>
      <point x="122" y="318" type="qcurve" smooth="yes"/>
      <point x="122" y="0" type="line"/>
      <point x="59" y="0" type="line"/>
      <point x="59" y="453" type="line"/>
      <point x="116" y="453" type="line"/>
      <point x="118" y="403" type="line"/>
      <point x="136" y="428"/>
      <point x="200" y="463"/>
      <point x="257" y="463" type="qcurve" smooth="yes"/>
      <point x="302" y="463"/>
      <point x="374" y="424"/>
      <point x="391" y="392" type="qcurve"/>
      <point x="408" y="421"/>
      <point x="485" y="463"/>
      <point x="548" y="463" type="qcurve" smooth="yes"/>
      <point x="582" y="463"/>
      <point x="639" y="443"/>
      <point x="681" y="406"/>
      <point x="705" y="354"/>
      <point x="705" y="323" type="qcurve" smooth="yes"/>
      <point x="705" y="0" type="line"/>
    </contour>
  </outline>
</glyph>
<glyph name="n" format="1">
  <advance width="498"/>
  <unicode hex="006E"/>
  <outline>
    <contour>
      <point x="376" y="0" type="line"/>
      <point x="376" y="299" type="line" smooth="yes"/>
      <point x="376" y="347"/>
      <point x="312" y="408"/>
      <point x="251" y="408" type="qcurve" smooth="yes"/>
      <point x="192" y="408"/>
      <point x="122" y="347"/>
      <point x="122" y="299" type="qcurve" smooth="yes"/>
      <point x="122" y="0" type="line"/>
      <point x="59" y="0" type="line"/>
      <point x="59" y="453" type="line"/>
      <point x="116" y="453" type="line"/>
      <point x="118" y="398" type="line"/>
      <point x="136" y="424"/>
      <point x="206" y="463"/>
      <point x="266" y="463" type="qcurve" smooth="yes"/>
      <point x="303" y="463"/>
      <point x="366" y="441"/>
      <point x="413" y="401"/>
      <point x="439" y="342"/>
      <point x="439" y="305" type="qcurve" smooth="yes"/>
      <point x="439" y="0" type="line"/>
    </contour>
  </outline>
</glyph>
<glyph name="o" format="1">
  <advance width="551"/>
  <unicode hex="006F"/>
  <outline>
    <contour>
      <point x="514" y="226" type="qcurve" smooth="yes"/>
      <point x="514" y="174"/>
      <point x="478" y="88"/>
      <point x="414" y="25"/>
      <point x="327" y="-10"/>
      <point x="276" y="-10" type="qcurve" smooth="yes"/>
      <point x="225" y="-10"/>
      <point x="138" y="25"/>
      <point x="74" y="88"/>
      <point x="37" y="174"/>
      <point x="37" y="226" type="qcurve" smooth="yes"/>
      <point x="37" y="278"/>
      <point x="74" y="365"/>
      <point x="138" y="428"/>
      <point x="225" y="463"/>
      <point x="276" y="463" type="qcurve" smooth="yes"/>
      <point x="327" y="463"/>
      <point x="414" y="428"/>
      <point x="478" y="365"/>
      <point x="514" y="278"/>
    </contour>
    <contour>
      <point x="450" y="226" type="qcurve" smooth="yes"/>
      <point x="450" y="266"/>
      <point x="423" y="332"/>
      <point x="375" y="380"/>
      <point x="312" y="407"/>
      <point x="276" y="407" type="qcurve" smooth="yes"/>
      <point x="239" y="407"/>
      <point x="175" y="380"/>
      <point x="128" y="332"/>
      <point x="101" y="266"/>
      <point x="101" y="226" type="qcurve" smooth="yes"/>
      <point x="101" y="186"/>
      <point x="128" y="120"/>
      <point x="175" y="72"/>
      <point x="239" y="46"/>
      <point x="276" y="46" type="qcurve" smooth="yes"/>
      <point x="312" y="46"/>
      <point x="375" y="72"/>
      <point x="423" y="120"/>
      <point x="450" y="186"/>
    </contour>
  </outline>
</glyph>
<glyph name="q" format="1">
  <advance width="511"/>
  <unicode hex="0071"/>
  <outline>
    <contour>
      <point x="382" y="-231" type="line"/>
      <point x="382" y="16" type="line"/>
      <point x="363" y="4"/>
      <point x="311" y="-10"/>
      <point x="280" y="-10" type="qcurve" smooth="yes"/>
      <point x="230" y="-10"/>
      <point x="142" y="24"/>
      <point x="76" y="87"/>
      <point x="37" y="175"/>
      <point x="37" y="229" type="qcurve" smooth="yes"/>
      <point x="37" y="283"/>
      <point x="75" y="369"/>
      <point x="140" y="430"/>
      <point x="227" y="463"/>
      <point x="276" y="463" type="qcurve" smooth="yes"/>
      <point x="308" y="463"/>
      <point x="376" y="447"/>
      <point x="400" y="434" type="qcurve"/>
      <point x="426" y="459" type="line"/>
      <point x="445" y="459" type="line"/>
      <point x="445" y="-231" type="line"/>
    </contour>
    <contour>
      <point x="382" y="379" type="line"/>
      <point x="364" y="391"/>
      <point x="308" y="407"/>
      <point x="276" y="407" type="qcurve" smooth="yes"/>
      <point x="240" y="407"/>
      <point x="176" y="381"/>
      <point x="128" y="334"/>
      <point x="101" y="268"/>
      <point x="101" y="229" type="qcurve" smooth="yes"/>
      <point x="101" y="187"/>
      <point x="130" y="120"/>
      <point x="179" y="72"/>
      <point x="244" y="46"/>
      <point x="280" y="46" type="qcurve" smooth="yes"/>
      <point x="310" y="46"/>
      <point x="362" y="63"/>
      <point x="382" y="77" type="qcurve"/>
    </contour>
  </outline>
</glyph>
<glyph name="r" format="1">
  <advance width="318"/>
  <unicode hex="0072"/>
  <outline>
    <contour>
      <point x="292" y="405" type="line" smooth="yes"/>
      <point x="260" y="405"/>
      <point x="202" y="382"/>
      <point x="158" y="337"/>
      <point x="132" y="268"/>
      <point x="132" y="222" type="qcurve" smooth="yes"/>
      <point x="132" y="0" type="line"/>
      <point x="69" y="0" type="line"/>
      <point x="69" y="453" type="line"/>
      <point x="129" y="453" type="line"/>
      <point x="132" y="366" type="line"/>
      <point x="146" y="408"/>
      <point x="229" y="459"/>
      <point x="289" y="459" type="qcurve"/>
      <point x="302" y="405" type="line"/>
    </contour>
  </outline>
</glyph>
<glyph name="s" format="1">
  <advance width="372"/>
  <unicode hex="0073"/>
  <outline>
    <contour>
      <point x="330" y="118" type="qcurve" smooth="yes"/>
      <point x="330" y="61"/>
      <point x="247" y="-10"/>
      <point x="175" y="-10" type="qcurve" smooth="yes"/>
      <point x="133" y="-10"/>
      <point x="68" y="11"/>
      <point x="48" y="27" type="qcurve"/>
      <point x="31" y="100" type="line"/>
      <point x="59" y="74"/>
      <point x="134" y="44"/>
      <point x="176" y="44" type="qcurve" smooth="yes"/>
      <point x="214" y="44"/>
      <point x="267" y="82"/>
      <point x="267" y="115" type="qcurve" smooth="yes"/>
      <point x="267" y="147"/>
      <point x="221" y="188"/>
      <point x="183" y="202" type="qcurve" smooth="yes"/>
      <point x="120" y="225"/>
      <point x="51" y="289"/>
      <point x="51" y="343" type="qcurve" smooth="yes"/>
      <point x="51" y="370"/>
      <point x="72" y="414"/>
      <point x="109" y="445"/>
      <point x="161" y="463"/>
      <point x="191" y="463" type="qcurve" smooth="yes"/>
      <point x="228" y="463"/>
      <point x="289" y="443"/>
      <point x="302" y="434" type="qcurve"/>
      <point x="290" y="382" type="line"/>
      <point x="276" y="391"/>
      <point x="224" y="410"/>
      <point x="190" y="410" type="qcurve" smooth="yes"/>
      <point x="156" y="410"/>
      <point x="113" y="374"/>
      <point x="113" y="345" type="qcurve" smooth="yes"/>
      <point x="113" y="315"/>
      <point x="154" y="279"/>
      <point x="192" y="265" type="qcurve" smooth="yes"/>
      <point x="257" y="242"/>
      <point x="330" y="174"/>
    </contour>
  </outline>
</glyph>
<glyph name="t" format="1">
  <advance width="348"/>
  <unicode hex="0074"/>
  <outline>
    <contour>
      <point x="319" y="401" type="line"/>
      <point x="170" y="401" type="line"/>
      <point x="170" y="113" type="line" smooth="yes"/>
      <point x="170" y="80"/>
      <point x="209" y="48"/>
      <point x="237" y="48" type="qcurve" smooth="yes"/>
      <point x="269" y="48"/>
      <point x="289" y="57" type="qcurve"/>
      <point x="274" y="-2" type="line"/>
      <point x="259" y="-7"/>
      <point x="232" y="-7" type="qcurve" smooth="yes"/>
      <point x="179" y="-7"/>
      <point x="107" y="55"/>
      <point x="107" y="115" type="qcurve" smooth="yes"/>
      <point x="107" y="401" type="line"/>
      <point x="13" y="401" type="line"/>
      <point x="13" y="453" type="line"/>
      <point x="107" y="453" type="line"/>
      <point x="107" y="551" type="line"/>
      <point x="170" y="584" type="line"/>
      <point x="170" y="453" type="line"/>
      <point x="332" y="453" type="line"/>
    </contour>
  </outline>
</glyph>
<glyph name="v" format="1">
  <advance width="459"/>
  <unicode hex="0076"/>
  <outline>
    <contour>
      <point x="241" y="-9" type="line"/>
      <point x="218" y="-9" type="line"/>
      <point x="27" y="453" type="line"/>
      <point x="91" y="453" type="line"/>
      <point x="188" y="221" type="line" smooth="yes"/>
      <point x="199" y="193"/>
      <point x="222" y="135"/>
      <point x="231" y="106" type="qcurve"/>
      <point x="233" y="106" type="line"/>
      <point x="243" y="135"/>
      <point x="265" y="192"/>
      <point x="277" y="221" type="qcurve" smooth="yes"/>
      <point x="372" y="453" type="line"/>
      <point x="432" y="453" type="line"/>
    </contour>
  </outline>
</glyph>
<glyph name="w" format="1">
  <advance width="711"/>
  <unicode hex="0077"/>
  <outline>
    <contour>
      <point x="510" y="-9" type="line"/>
      <point x="490" y="-9" type="line"/>
      <point x="399" y="238" type="line" smooth="yes"/>
      <point x="388" y="269"/>
      <point x="367" y="331"/>
      <point x="357" y="364" type="qcurve"/>
      <point x="355" y="364" type="line"/>
      <point x="344" y="330"/>
      <point x="324" y="269"/>
      <point x="313" y="240" type="qcurve" smooth="yes"/>
      <point x="222" y="-9" type="line"/>
      <point x="201" y="-9" type="line"/>
      <point x="32" y="453" type="line"/>
      <point x="93" y="453" type="line"/>
      <point x="175" y="227" type="line" smooth="yes"/>
      <point x="186" y="198"/>
      <point x="204" y="140"/>
      <point x="212" y="114" type="qcurve"/>
      <point x="214" y="114" type="line"/>
      <point x="222" y="140"/>
      <point x="241" y="200"/>
      <point x="251" y="226" type="qcurve" smooth="yes"/>
      <point x="333" y="453" type="line"/>
      <point x="381" y="453" type="line"/>
      <point x="463" y="227" type="line" smooth="yes"/>
      <point x="473" y="201"/>
      <point x="492" y="143"/>
      <point x="500" y="114" type="qcurve"/>
      <point x="502" y="114" type="line"/>
      <point x="511" y="143"/>
      <point x="530" y="199"/>
      <point x="540" y="226" type="qcurve" smooth="yes"/>
      <point x="621" y="453" type="line"/>
      <point x="679" y="453" type="line"/>
    </contour>
  </outline>
</glyph>
<glyph name="x" format="1">
  <advance width="434"/>
  <unicode hex="0078"/>
  <outline>
    <contour>
      <point x="329" y="0" type="line"/>
      <point x="253" y="120" type="line" smooth="yes"/>
      <point x="233" y="150"/>
      <point x="218" y="181" type="qcurve"/>
      <point x="216" y="181" type="line"/>
      <point x="208" y="166"/>
      <point x="187" y="134"/>
      <point x="178" y="120" type="qcurve" smooth="yes"/>
      <point x="102" y="0" type="line"/>
      <point x="34" y="0" type="line"/>
      <point x="181" y="231" type="line"/>
      <point x="42" y="453" type="line"/>
      <point x="113" y="453" type="line"/>
      <point x="184" y="339" type="line" smooth="yes"/>
      <point x="202" y="310"/>
      <point x="217" y="282" type="qcurve"/>
      <point x="219" y="282" type="line"/>
      <point x="234" y="308"/>
      <point x="253" y="339" type="qcurve" smooth="yes"/>
      <point x="324" y="453" type="line"/>
      <point x="393" y="453" type="line"/>
      <point x="254" y="233" type="line"/>
      <point x="400" y="0" type="line"/>
    </contour>
  </outline>
</glyph>
<glyph name="y" format="1">
  <advance width="464"/>
  <unicode hex="0079"/>
  <outline>
    <contour>
      <point x="263" y="39" type="line" smooth="yes"/>
      <point x="211" y="-83"/>
      <point x="98" y="-209"/>
      <point x="31" y="-233" type="qcurve"/>
      <point x="-8" y="-193" type="line"/>
      <point x="56" y="-173"/>
      <point x="156" y="-64"/>
      <point x="200" y="40" type="qcurve"/>
      <point x="25" y="453" type="line"/>
      <point x="91" y="453" type="line"/>
      <point x="188" y="225" type="line" smooth="yes"/>
      <point x="199" y="198"/>
      <point x="222" y="141"/>
      <point x="233" y="111" type="qcurve"/>
      <point x="235" y="111" type="line"/>
      <point x="246" y="140"/>
      <point x="268" y="195"/>
      <point x="280" y="223" type="qcurve" smooth="yes"/>
      <point x="378" y="453" type="line"/>
      <point x="439" y="453" type="line"/>
    </contour>
  </outline>
</glyph>
<glyph name="z" format="1">
  <advance width="406"/>
  <unicode hex="007A"/>
  <outline>
    <contour>
      <point x="26" y="0" type="line"/>
      <point x="26" y="12" type="line"/>
      <point x="183" y="270" type="line" smooth="yes"/>
      <point x="202" y="301"/>
      <point x="244" y="369"/>
      <point x="264" y="398" type="qcurve"/>
      <point x="263" y="399" type="line"/>
      <point x="45" y="399" type="line"/>
      <point x="45" y="453" type="line"/>
      <point x="360" y="453" type="line"/>
      <point x="360" y="441" type="line"/>
      <point x="202" y="183" type="line" smooth="yes"/>
      <point x="183" y="151"/>
      <point x="142" y="87"/>
      <point x="122" y="55" type="qcurve"/>
      <point x="123" y="54" type="line"/>
      <point x="377" y="54" type="line"/>
      <point x="377" y="0" type="line"/>
    </contour>
  </outline>
</glyph>
<glyph name="braceleft" format="1">
  <advance width="330"/>
  <unicode hex="007B"/>
  <outline>
    <contour>
      <point x="287" y="-219" type="line"/>
      <point x="237" y="-219"/>
      <point x="168" y="-181"/>
      <point x="125" y="-114"/>
      <point x="106" y="-24"/>
      <point x="106" y="28" type="qcurve" smooth="yes"/>
      <point x="106" y="99"/>
      <point x="66" y="208"/>
      <point x="15" y="240" type="qcurve"/>
      <point x="66" y="272"/>
      <point x="106" y="382"/>
      <point x="106" y="453" type="qcurve" smooth="yes"/>
      <point x="106" y="504"/>
      <point x="125" y="594"/>
      <point x="168" y="661"/>
      <point x="237" y="699"/>
      <point x="287" y="699" type="qcurve"/>
      <point x="301" y="649" type="line"/>
      <point x="264" y="649"/>
      <point x="213" y="621"/>
      <point x="182" y="568"/>
      <point x="168" y="495"/>
      <point x="168" y="450" type="qcurve" smooth="yes"/>
      <point x="168" y="382"/>
      <point x="132" y="278"/>
      <point x="90" y="240" type="qcurve"/>
      <point x="132" y="203"/>
      <point x="168" y="98"/>
      <point x="168" y="30" type="qcurve" smooth="yes"/>
      <point x="168" y="-15"/>
      <point x="182" y="-88"/>
      <point x="213" y="-141"/>
      <point x="264" y="-169"/>
      <point x="301" y="-169" type="qcurve"/>
    </contour>
  </outline>
</glyph>
<glyph name="bar" format="1">
  <advance width="215"/>
  <unicode hex="007C"/>
  <outline>
    <contour>
      <point x="80" y="-231" type="line"/>
      <point x="80" y="712" type="line"/>
      <point x="135" y="712" type="line"/>
      <point x="135" y="-231" type="line"/>
    </contour>
  </outline>
</glyph>
<glyph name="braceright" format="1">
  <advance width="330"/>
  <unicode hex="007D"/>
  <outline>
    <contour>
      <point x="316" y="240" type="qcurve"/>
      <point x="265" y="208"/>
      <point x="225" y="99"/>
      <point x="225" y="28" type="qcurve" smooth="yes"/>
      <point x="225" y="-24"/>
      <point x="206" y="-114"/>
      <point x="163" y="-181"/>
      <point x="93" y="-219"/>
      <point x="43" y="-219" type="qcurve"/>
      <point x="30" y="-169" type="line"/>
      <point x="67" y="-169"/>
      <point x="117" y="-141"/>
      <point x="148" y="-88"/>
      <point x="162" y="-15"/>
      <point x="162" y="30" type="qcurve" smooth="yes"/>
      <point x="162" y="98"/>
      <point x="198" y="203"/>
      <point x="241" y="240" type="qcurve"/>
      <point x="198" y="278"/>
      <point x="162" y="382"/>
      <point x="162" y="450" type="qcurve" smooth="yes"/>
      <point x="162" y="495"/>
      <point x="148" y="568"/>
      <point x="117" y="621"/>
      <point x="67" y="649"/>
      <point x="30" y="649" type="qcurve"/>
      <point x="43" y="699" type="line"/>
      <point x="93" y="699"/>
      <point x="163" y="661"/>
      <point x="206" y="594"/>
      <point x="225" y="504"/>
      <point x="225" y="453" type="qcurve" smooth="yes"/>
      <point x="225" y="382"/>
      <point x="265" y="272"/>
    </contour>
  </outline>
</glyph>
<glyph name="asciitilde" format="1">
  <advance width="390"/>
  <unicode hex="007E"/>
  <outline>
    <contour>
      <point x="324" y="269" type="line"/>
      <point x="295" y="248"/>
      <point x="225" y="223"/>
      <point x="188" y="221" type="qcurve"/>
      <point x="172" y="276" type="line"/>
      <point x="144" y="274"/>
      <point x="82" y="249"/>
      <point x="56" y="232" type="qcurve"/>
      <point x="67" y="284" type="line"/>
      <point x="97" y="303"/>
      <point x="165" y="330"/>
      <point x="203" y="332" type="qcurve"/>
      <point x="219" y="276" type="line"/>
      <point x="248" y="278"/>
      <point x="309" y="304"/>
      <point x="335" y="320" type="qcurve"/>
    </contour>
  </outline>
</glyph>
<glyph name="exclamdown" format="1">
  <advance width="236"/>
  <unicode hex="00A1"/>
  <outline>
    <contour>
      <point x="163" y="594" type="qcurve" smooth="yes"/>
      <point x="163" y="588"/>
      <point x="153" y="569"/>
      <point x="139" y="552"/>
      <point x="122" y="540"/>
      <point x="116" y="540" type="qcurve" smooth="yes"/>
      <point x="110" y="540"/>
      <point x="93" y="552"/>
      <point x="79" y="569"/>
      <point x="69" y="588"/>
      <point x="69" y="594" type="qcurve" smooth="yes"/>
      <point x="69" y="601"/>
      <point x="79" y="620"/>
      <point x="93" y="637"/>
      <point x="110" y="649"/>
      <point x="116" y="649" type="qcurve" smooth="yes"/>
      <point x="122" y="649"/>
      <point x="139" y="637"/>
      <point x="153" y="620"/>
      <point x="163" y="601"/>
    </contour>
    <contour>
      <point x="80" y="-42" type="line"/>
      <point x="91" y="484" type="line"/>
      <point x="144" y="470" type="line"/>
      <point x="155" y="-42" type="line"/>
    </contour>
  </outline>
</glyph>
<glyph name="cent" format="1">
  <advance width="457"/>
  <unicode hex="00A2"/>
  <outline>
    <contour>
      <point x="409" y="552" type="line"/>
      <point x="383" y="570"/>
      <point x="318" y="588"/>
      <point x="283" y="588" type="qcurve" smooth="yes"/>
      <point x="245" y="588"/>
      <point x="178" y="562"/>
      <point x="129" y="514"/>
      <point x="101" y="447"/>
      <point x="101" y="407" type="qcurve" smooth="yes"/>
      <point x="101" y="367"/>
      <point x="130" y="301"/>
      <point x="179" y="253"/>
      <point x="246" y="227"/>
      <point x="285" y="227" type="qcurve" smooth="yes"/>
      <point x="320" y="227"/>
      <point x="383" y="241"/>
      <point x="418" y="260" type="qcurve"/>
      <point x="402" y="196" type="line"/>
      <point x="382" y="185"/>
      <point x="329" y="173"/>
      <point x="300" y="171" type="qcurve"/>
      <point x="300" y="82" type="line"/>
      <point x="258" y="82" type="line"/>
      <point x="258" y="172" type="line"/>
      <point x="213" y="175"/>
      <point x="132" y="211"/>
      <point x="72" y="272"/>
      <point x="37" y="356"/>
      <point x="37" y="407" type="qcurve" smooth="yes"/>
      <point x="37" y="458"/>
      <point x="72" y="541"/>
      <point x="132" y="603"/>
      <point x="212" y="639"/>
      <point x="258" y="643" type="qcurve"/>
      <point x="258" y="737" type="line"/>
      <point x="300" y="737" type="line"/>
      <point x="300" y="643" type="line"/>
      <point x="338" y="641"/>
      <point x="399" y="622"/>
      <point x="422" y="608" type="qcurve"/>
    </contour>
  </outline>
</glyph>
<glyph name="sterling" format="1">
  <advance width="424"/>
  <unicode hex="00A3"/>
  <outline>
    <contour>
      <point x="380" y="-11" type="line"/>
      <point x="348" y="1"/>
      <point x="272" y="14"/>
      <point x="232" y="14" type="qcurve" smooth="yes"/>
      <point x="190" y="14"/>
      <point x="111" y="0"/>
      <point x="87" y="-8" type="qcurve"/>
      <point x="38" y="18" type="line"/>
      <point x="65" y="60"/>
      <point x="92" y="168"/>
      <point x="92" y="245" type="qcurve" smooth="yes"/>
      <point x="92" y="297" type="line"/>
      <point x="20" y="297" type="line"/>
      <point x="20" y="339" type="line"/>
      <point x="92" y="339" type="line"/>
      <point x="92" y="430" type="line" smooth="yes"/>
      <point x="92" y="541"/>
      <point x="195" y="647"/>
      <point x="285" y="647" type="qcurve" smooth="yes"/>
      <point x="306" y="647"/>
      <point x="345" y="639"/>
      <point x="360" y="632" type="qcurve"/>
      <point x="347" y="578" type="line"/>
      <point x="333" y="585"/>
      <point x="295" y="593"/>
      <point x="275" y="593" type="qcurve" smooth="yes"/>
      <point x="219" y="593"/>
      <point x="155" y="512"/>
      <point x="155" y="446" type="qcurve" smooth="yes"/>
      <point x="155" y="339" type="line"/>
      <point x="308" y="339" type="line"/>
      <point x="302" y="297" type="line"/>
      <point x="155" y="297" type="line"/>
      <point x="155" y="240" type="line" smooth="yes"/>
      <point x="155" y="173"/>
      <point x="136" y="82"/>
      <point x="122" y="56" type="qcurve"/>
      <point x="142" y="61"/>
      <point x="205" y="68"/>
      <point x="234" y="68" type="qcurve" smooth="yes"/>
      <point x="270" y="68"/>
      <point x="354" y="57"/>
      <point x="389" y="44" type="qcurve"/>
    </contour>
  </outline>
</glyph>
<glyph name="currency" format="1">
  <advance width="490"/>
  <unicode hex="00A4"/>
  <outline>
    <contour>
      <point x="408" y="80" type="line"/>
      <point x="342" y="146" type="line"/>
      <point x="321" y="132"/>
      <point x="272" y="115"/>
      <point x="245" y="115" type="qcurve" smooth="yes"/>
      <point x="217" y="115"/>
      <point x="167" y="133"/>
      <point x="147" y="148" type="qcurve"/>
      <point x="80" y="81" type="line"/>
      <point x="50" y="112" type="line"/>
      <point x="117" y="179" type="line"/>
      <point x="84" y="221"/>
      <point x="84" y="277" type="qcurve" smooth="yes"/>
      <point x="84" y="332"/>
      <point x="115" y="372" type="qcurve"/>
      <point x="82" y="405" type="line" smooth="yes"/>
      <point x="67" y="420"/>
      <point x="49" y="439" type="qcurve"/>
      <point x="79" y="470" type="line"/>
      <point x="145" y="404" type="line"/>
      <point x="165" y="421"/>
      <point x="216" y="439"/>
      <point x="245" y="439" type="qcurve" smooth="yes"/>
      <point x="273" y="439"/>
      <point x="323" y="421"/>
      <point x="344" y="406" type="qcurve"/>
      <point x="409" y="471" type="line"/>
      <point x="439" y="441" type="line"/>
      <point x="374" y="376" type="line"/>
      <point x="390" y="355"/>
      <point x="408" y="305"/>
      <point x="408" y="277" type="qcurve" smooth="yes"/>
      <point x="408" y="248"/>
      <point x="389" y="197"/>
      <point x="372" y="176" type="qcurve"/>
      <point x="439" y="110" type="line"/>
    </contour>
    <contour>
      <point x="368" y="277" type="qcurve" smooth="yes"/>
      <point x="368" y="302"/>
      <point x="349" y="346"/>
      <point x="315" y="379"/>
      <point x="270" y="398"/>
      <point x="245" y="398" type="qcurve" smooth="yes"/>
      <point x="220" y="398"/>
      <point x="176" y="379"/>
      <point x="143" y="346"/>
      <point x="124" y="302"/>
      <point x="124" y="277" type="qcurve" smooth="yes"/>
      <point x="124" y="252"/>
      <point x="143" y="207"/>
      <point x="176" y="174"/>
      <point x="220" y="155"/>
      <point x="245" y="155" type="qcurve" smooth="yes"/>
      <point x="270" y="155"/>
      <point x="315" y="174"/>
      <point x="349" y="207"/>
      <point x="368" y="252"/>
    </contour>
  </outline>
</glyph>
<glyph name="yen" format="1">
  <advance width="578"/>
  <unicode hex="00A5"/>
  <outline>
    <contour>
      <point x="379" y="376" type="line"/>
      <point x="469" y="376" type="line"/>
      <point x="469" y="334" type="line"/>
      <point x="349" y="334" type="line"/>
      <point x="321" y="295" type="line"/>
      <point x="321" y="277" type="line"/>
      <point x="469" y="277" type="line"/>
      <point x="469" y="235" type="line"/>
      <point x="321" y="235" type="line"/>
      <point x="321" y="0" type="line"/>
      <point x="255" y="0" type="line"/>
      <point x="255" y="235" type="line"/>
      <point x="103" y="235" type="line"/>
      <point x="103" y="277" type="line"/>
      <point x="255" y="277" type="line"/>
      <point x="255" y="294" type="line"/>
      <point x="228" y="334" type="line"/>
      <point x="103" y="334" type="line"/>
      <point x="103" y="376" type="line"/>
      <point x="197" y="376" type="line"/>
      <point x="12" y="638" type="line"/>
      <point x="87" y="638" type="line"/>
      <point x="225" y="443" type="line" smooth="yes"/>
      <point x="242" y="420"/>
      <point x="276" y="369"/>
      <point x="291" y="346" type="qcurve"/>
      <point x="293" y="346" type="line"/>
      <point x="308" y="369"/>
      <point x="343" y="420"/>
      <point x="359" y="443" type="qcurve" smooth="yes"/>
      <point x="498" y="638" type="line"/>
      <point x="566" y="638" type="line"/>
    </contour>
  </outline>
</glyph>
<glyph name="brokenbar" format="1">
  <advance width="215"/>
  <unicode hex="00A6"/>
  <outline>
    <contour>
      <point x="80" y="300" type="line"/>
      <point x="80" y="712" type="line"/>
      <point x="135" y="712" type="line"/>
      <point x="135" y="300" type="line"/>
    </contour>
    <contour>
      <point x="80" y="-231" type="line"/>
      <point x="80" y="181" type="line"/>
      <point x="135" y="181" type="line"/>
      <point x="135" y="-231" type="line"/>
    </contour>
  </outline>
</glyph>
<glyph name="section" format="1">
  <advance width="453"/>
  <unicode hex="00A7"/>
  <outline>
    <contour>
      <point x="400" y="-65" type="qcurve" smooth="yes"/>
      <point x="400" y="-93"/>
      <point x="378" y="-149"/>
      <point x="335" y="-194"/>
      <point x="268" y="-222"/>
      <point x="223" y="-222" type="qcurve" smooth="yes"/>
      <point x="176" y="-222"/>
      <point x="107" y="-202"/>
      <point x="82" y="-186" type="qcurve"/>
      <point x="95" y="-128" type="line"/>
      <point x="120" y="-145"/>
      <point x="185" y="-165"/>
      <point x="221" y="-165" type="qcurve" smooth="yes"/>
      <point x="251" y="-165"/>
      <point x="296" y="-147"/>
      <point x="324" y="-119"/>
      <point x="338" y="-83"/>
      <point x="338" y="-65" type="qcurve" smooth="yes"/>
      <point x="338" y="-48"/>
      <point x="328" y="-12"/>
      <point x="313" y="3" type="qcurve" smooth="yes"/>
      <point x="59" y="264" type="line"/>
      <point x="93" y="387" type="line"/>
      <point x="57" y="426"/>
      <point x="57" y="491" type="qcurve" smooth="yes"/>
      <point x="57" y="519"/>
      <point x="79" y="575"/>
      <point x="123" y="620"/>
      <point x="190" y="648"/>
      <point x="235" y="648" type="qcurve" smooth="yes"/>
      <point x="281" y="648"/>
      <point x="351" y="628"/>
      <point x="376" y="612" type="qcurve"/>
      <point x="362" y="554" type="line"/>
      <point x="338" y="571"/>
      <point x="272" y="591"/>
      <point x="236" y="591" type="qcurve" smooth="yes"/>
      <point x="206" y="591"/>
      <point x="162" y="573"/>
      <point x="133" y="545"/>
      <point x="120" y="509"/>
      <point x="120" y="491" type="qcurve" smooth="yes"/>
      <point x="120" y="473"/>
      <point x="132" y="436"/>
      <point x="145" y="423" type="qcurve" smooth="yes"/>
      <point x="399" y="162" type="line"/>
      <point x="364" y="39" type="line"/>
      <point x="400" y="0"/>
    </contour>
    <contour>
      <point x="126" y="366" type="line"/>
      <point x="105" y="291" type="line"/>
      <point x="330" y="61" type="line"/>
      <point x="353" y="137" type="line"/>
    </contour>
  </outline>
</glyph>
<glyph name="dieresis" format="1">
  <advance width="360"/>
  <unicode hex="00A8"/>
  <outline>
    <contour>
      <point x="290" y="566" type="qcurve" smooth="yes"/>
      <point x="290" y="560"/>
      <point x="282" y="543"/>
      <point x="269" y="527"/>
      <point x="255" y="516"/>
      <point x="249" y="516" type="qcurve" smooth="yes"/>
      <point x="243" y="516"/>
      <point x="228" y="527"/>
      <point x="216" y="543"/>
      <point x="207" y="560"/>
      <point x="207" y="566" type="qcurve" smooth="yes"/>
      <point x="207" y="572"/>
      <point x="216" y="590"/>
      <point x="228" y="606"/>
      <point x="243" y="617"/>
      <point x="249" y="617" type="qcurve" smooth="yes"/>
      <point x="255" y="617"/>
      <point x="269" y="606"/>
      <point x="282" y="590"/>
      <point x="290" y="572"/>
    </contour>
    <contour>
      <point x="153" y="566" type="qcurve" smooth="yes"/>
      <point x="153" y="560"/>
      <point x="144" y="543"/>
      <point x="132" y="527"/>
      <point x="117" y="516"/>
      <point x="111" y="516" type="qcurve" smooth="yes"/>
      <point x="106" y="516"/>
      <point x="91" y="527"/>
      <point x="78" y="543"/>
      <point x="69" y="560"/>
      <point x="69" y="566" type="qcurve" smooth="yes"/>
      <point x="69" y="572"/>
      <point x="78" y="590"/>
      <point x="91" y="606"/>
      <point x="106" y="617"/>
      <point x="111" y="617" type="qcurve" smooth="yes"/>
      <point x="117" y="617"/>
      <point x="132" y="606"/>
      <point x="144" y="590"/>
      <point x="153" y="572"/>
    </contour>
  </outline>
</glyph>
<glyph name="copyright" format="1">
  <advance width="601"/>
  <unicode hex="00A9"/>
  <outline>
    <contour>
      <point x="565" y="250" type="qcurve" smooth="yes"/>
      <point x="565" y="192"/>
      <point x="524" y="96"/>
      <point x="453" y="27"/>
      <point x="356" y="-12"/>
      <point x="300" y="-12" type="qcurve" smooth="yes"/>
      <point x="245" y="-12"/>
      <point x="149" y="27"/>
      <point x="77" y="96"/>
      <point x="36" y="192"/>
      <point x="36" y="250" type="qcurve" smooth="yes"/>
      <point x="36" y="308"/>
      <point x="77" y="405"/>
      <point x="149" y="474"/>
      <point x="245" y="512"/>
      <point x="300" y="512" type="qcurve" smooth="yes"/>
      <point x="356" y="512"/>
      <point x="453" y="474"/>
      <point x="524" y="405"/>
      <point x="565" y="308"/>
    </contour>
    <contour>
      <point x="523" y="250" type="qcurve" smooth="yes"/>
      <point x="523" y="298"/>
      <point x="490" y="380"/>
      <point x="430" y="440"/>
      <point x="348" y="474"/>
      <point x="300" y="474" type="qcurve" smooth="yes"/>
      <point x="252" y="474"/>
      <point x="170" y="440"/>
      <point x="111" y="380"/>
      <point x="78" y="298"/>
      <point x="78" y="250" type="qcurve" smooth="yes"/>
      <point x="78" y="202"/>
      <point x="111" y="120"/>
      <point x="170" y="60"/>
      <point x="252" y="26"/>
      <point x="300" y="26" type="qcurve" smooth="yes"/>
      <point x="348" y="26"/>
      <point x="430" y="60"/>
      <point x="490" y="120"/>
      <point x="523" y="202"/>
    </contour>
    <contour>
      <point x="399" y="321" type="line"/>
      <point x="364" y="343"/>
      <point x="320" y="343" type="qcurve" smooth="yes"/>
      <point x="280" y="343"/>
      <point x="223" y="291"/>
      <point x="223" y="249" type="qcurve" smooth="yes"/>
      <point x="223" y="205"/>
      <point x="280" y="150"/>
      <point x="320" y="150" type="qcurve" smooth="yes"/>
      <point x="340" y="150"/>
      <point x="381" y="161"/>
      <point x="404" y="178" type="qcurve"/>
      <point x="391" y="123" type="line"/>
      <point x="378" y="115"/>
      <point x="339" y="103"/>
      <point x="318" y="103" type="qcurve" smooth="yes"/>
      <point x="289" y="103"/>
      <point x="235" y="124"/>
      <point x="194" y="163"/>
      <point x="170" y="217"/>
      <point x="170" y="249" type="qcurve" smooth="yes"/>
      <point x="170" y="280"/>
      <point x="194" y="333"/>
      <point x="235" y="370"/>
      <point x="289" y="391"/>
      <point x="318" y="391" type="qcurve" smooth="yes"/>
      <point x="347" y="391"/>
      <point x="393" y="375"/>
      <point x="408" y="364" type="qcurve"/>
    </contour>
  </outline>
</glyph>
<glyph name="ordfeminine" format="1">
  <advance width="364"/>
  <unicode hex="00AA"/>
  <outline>
    <contour>
      <point x="316" y="271" type="line"/>
      <point x="296" y="275"/>
      <point x="266" y="302"/>
      <point x="260" y="322" type="qcurve"/>
      <point x="245" y="299"/>
      <point x="187" y="271"/>
      <point x="155" y="271" type="qcurve" smooth="yes"/>
      <point x="103" y="271"/>
      <point x="37" y="334"/>
      <point x="37" y="380" type="qcurve" smooth="yes"/>
      <point x="37" y="405"/>
      <point x="56" y="444"/>
      <point x="88" y="473"/>
      <point x="130" y="489"/>
      <point x="152" y="491" type="qcurve" smooth="yes"/>
      <point x="249" y="501" type="line"/>
      <point x="249" y="533" type="line" smooth="yes"/>
      <point x="249" y="564"/>
      <point x="206" y="601"/>
      <point x="167" y="601" type="qcurve" smooth="yes"/>
      <point x="141" y="601"/>
      <point x="89" y="586"/>
      <point x="70" y="572" type="qcurve"/>
      <point x="57" y="619" type="line"/>
      <point x="80" y="635"/>
      <point x="138" y="649"/>
      <point x="169" y="649" type="qcurve" smooth="yes"/>
      <point x="229" y="649"/>
      <point x="306" y="587"/>
      <point x="306" y="528" type="qcurve" smooth="yes"/>
      <point x="306" y="365" type="line" smooth="yes"/>
      <point x="306" y="339"/>
      <point x="334" y="312"/>
      <point x="354" y="308" type="qcurve"/>
    </contour>
    <contour>
      <point x="227" y="151" type="qcurve" smooth="yes"/>
      <point x="227" y="145"/>
      <point x="219" y="128"/>
      <point x="207" y="112"/>
      <point x="193" y="101"/>
      <point x="187" y="101" type="qcurve" smooth="yes"/>
      <point x="181" y="101"/>
      <point x="167" y="112"/>
      <point x="155" y="128"/>
      <point x="146" y="145"/>
      <point x="146" y="151" type="qcurve" smooth="yes"/>
      <point x="146" y="157"/>
      <point x="155" y="175"/>
      <point x="167" y="191"/>
      <point x="181" y="202"/>
      <point x="187" y="202" type="qcurve" smooth="yes"/>
      <point x="193" y="202"/>
      <point x="207" y="191"/>
      <point x="219" y="175"/>
      <point x="227" y="157"/>
    </contour>
    <contour>
      <point x="249" y="456" type="line"/>
      <point x="160" y="447" type="line" smooth="yes"/>
      <point x="130" y="443"/>
      <point x="91" y="406"/>
      <point x="91" y="377" type="qcurve" smooth="yes"/>
      <point x="91" y="350"/>
      <point x="129" y="315"/>
      <point x="157" y="315" type="qcurve" smooth="yes"/>
      <point x="173" y="315"/>
      <point x="205" y="327"/>
      <point x="232" y="351"/>
      <point x="249" y="386"/>
      <point x="249" y="408" type="qcurve" smooth="yes"/>
    </contour>
  </outline>
</glyph>
<glyph name="guillemotleft" format="1">
  <advance width="415"/>
  <unicode hex="00AB"/>
  <outline>
    <contour>
      <point x="354" y="108" type="line"/>
      <point x="328" y="155"/>
      <point x="245" y="245"/>
      <point x="194" y="277" type="qcurve"/>
      <point x="245" y="310"/>
      <point x="328" y="399"/>
      <point x="354" y="446" type="qcurve"/>
      <point x="390" y="410" type="line"/>
      <point x="372" y="372"/>
      <point x="315" y="303"/>
      <point x="283" y="277" type="qcurve"/>
      <point x="315" y="251"/>
      <point x="372" y="182"/>
      <point x="390" y="144" type="qcurve"/>
    </contour>
    <contour>
      <point x="164" y="108" type="line"/>
      <point x="138" y="155"/>
      <point x="55" y="245"/>
      <point x="5" y="277" type="qcurve"/>
      <point x="55" y="310"/>
      <point x="138" y="399"/>
      <point x="164" y="446" type="qcurve"/>
      <point x="200" y="410" type="line"/>
      <point x="182" y="372"/>
      <point x="125" y="303"/>
      <point x="93" y="277" type="qcurve"/>
      <point x="125" y="251"/>
      <point x="182" y="182"/>
      <point x="200" y="144" type="qcurve"/>
    </contour>
  </outline>
</glyph>
<glyph name="logicalnot" format="1">
  <advance width="508"/>
  <unicode hex="00AC"/>
  <outline>
    <contour>
      <point x="387" y="143" type="line"/>
      <point x="387" y="250" type="line"/>
      <point x="44" y="250" type="line"/>
      <point x="44" y="304" type="line"/>
      <point x="444" y="304" type="line"/>
      <point x="444" y="143" type="line"/>
    </contour>
  </outline>
</glyph>
<glyph name="minus" format="1">
  <advance width="431"/>
  <unicode hex="00AD"/>
  <outline>
    <contour>
      <point x="55" y="251" type="line"/>
      <point x="55" y="298" type="line"/>
      <point x="376" y="298" type="line"/>
      <point x="376" y="251" type="line"/>
    </contour>
  </outline>
</glyph>
<glyph name="registered" format="1">
  <advance width="452"/>
  <unicode hex="00AE"/>
  <outline>
    <contour>
      <point x="415" y="462" type="qcurve" smooth="yes"/>
      <point x="415" y="421"/>
      <point x="386" y="352"/>
      <point x="335" y="302"/>
      <point x="266" y="274"/>
      <point x="226" y="274" type="qcurve" smooth="yes"/>
      <point x="186" y="274"/>
      <point x="117" y="302"/>
      <point x="66" y="352"/>
      <point x="37" y="421"/>
      <point x="37" y="462" type="qcurve" smooth="yes"/>
      <point x="37" y="503"/>
      <point x="66" y="572"/>
      <point x="117" y="621"/>
      <point x="186" y="649"/>
      <point x="226" y="649" type="qcurve" smooth="yes"/>
      <point x="266" y="649"/>
      <point x="335" y="621"/>
      <point x="386" y="572"/>
      <point x="415" y="503"/>
    </contour>
    <contour>
      <point x="381" y="462" type="qcurve" smooth="yes"/>
      <point x="381" y="496"/>
      <point x="357" y="554"/>
      <point x="316" y="595"/>
      <point x="259" y="618"/>
      <point x="226" y="618" type="qcurve" smooth="yes"/>
      <point x="193" y="618"/>
      <point x="136" y="595"/>
      <point x="94" y="554"/>
      <point x="71" y="496"/>
      <point x="71" y="462" type="qcurve" smooth="yes"/>
      <point x="71" y="427"/>
      <point x="94" y="370"/>
      <point x="136" y="329"/>
      <point x="193" y="306"/>
      <point x="226" y="306" type="qcurve" smooth="yes"/>
      <point x="259" y="306"/>
      <point x="316" y="329"/>
      <point x="357" y="370"/>
      <point x="381" y="427"/>
    </contour>
    <contour>
      <point x="293" y="346" type="line"/>
      <point x="228" y="441" type="line"/>
      <point x="197" y="441" type="line"/>
      <point x="197" y="347" type="line"/>
      <point x="161" y="347" type="line"/>
      <point x="161" y="575" type="line"/>
      <point x="229" y="575" type="line" smooth="yes"/>
      <point x="258" y="575"/>
      <point x="301" y="538"/>
      <point x="301" y="509" type="qcurve" smooth="yes"/>
      <point x="301" y="489"/>
      <point x="281" y="458"/>
      <point x="265" y="450" type="qcurve"/>
      <point x="323" y="367" type="line"/>
    </contour>
    <contour>
      <point x="265" y="509" type="qcurve" smooth="yes"/>
      <point x="265" y="524"/>
      <point x="244" y="543"/>
      <point x="225" y="543" type="qcurve" smooth="yes"/>
      <point x="197" y="543" type="line"/>
      <point x="197" y="474" type="line"/>
      <point x="225" y="474" type="line" smooth="yes"/>
      <point x="244" y="474"/>
      <point x="265" y="493"/>
    </contour>
  </outline>
</glyph>
<glyph name="macron" format="1">
  <advance width="360"/>
  <unicode hex="00AF"/>
  <outline>
    <contour>
      <point x="94" y="527" type="line"/>
      <point x="94" y="582" type="line"/>
      <point x="266" y="582" type="line"/>
      <point x="266" y="527" type="line"/>
    </contour>
  </outline>
</glyph>
<glyph name="degree" format="1">
  <advance width="245"/>
  <unicode hex="00B0"/>
  <outline>
    <contour>
      <point x="218" y="556" type="qcurve" smooth="yes"/>
      <point x="218" y="536"/>
      <point x="203" y="502"/>
      <point x="177" y="477"/>
      <point x="142" y="462"/>
      <point x="123" y="462" type="qcurve" smooth="yes"/>
      <point x="103" y="462"/>
      <point x="69" y="477"/>
      <point x="42" y="502"/>
      <point x="27" y="536"/>
      <point x="27" y="556" type="qcurve" smooth="yes"/>
      <point x="27" y="575"/>
      <point x="42" y="610"/>
      <point x="69" y="636"/>
      <point x="103" y="651"/>
      <point x="123" y="651" type="qcurve" smooth="yes"/>
      <point x="142" y="651"/>
      <point x="177" y="636"/>
      <point x="203" y="610"/>
      <point x="218" y="575"/>
    </contour>
    <contour>
      <point x="180" y="556" type="qcurve" smooth="yes"/>
      <point x="180" y="582"/>
      <point x="148" y="614"/>
      <point x="123" y="614" type="qcurve" smooth="yes"/>
      <point x="97" y="614"/>
      <point x="65" y="582"/>
      <point x="65" y="556" type="qcurve" smooth="yes"/>
      <point x="65" y="531"/>
      <point x="97" y="499"/>
      <point x="123" y="499" type="qcurve" smooth="yes"/>
      <point x="148" y="499"/>
      <point x="180" y="531"/>
    </contour>
  </outline>
</glyph>
<glyph name="plusminus" format="1">
  <advance width="855"/>
  <unicode hex="00B1"/>
  <outline>
    <contour>
      <point x="763" y="-13" type="line"/>
      <point x="750" y="-9"/>
      <point x="722" y="7"/>
      <point x="700" y="34"/>
      <point x="685" y="74"/>
      <point x="685" y="101" type="qcurve" smooth="yes"/>
      <point x="685" y="646" type="line"/>
      <point x="672" y="654"/>
      <point x="633" y="662"/>
      <point x="604" y="662" type="qcurve" smooth="yes"/>
      <point x="573" y="662"/>
      <point x="520" y="639"/>
      <point x="481" y="596"/>
      <point x="458" y="535"/>
      <point x="458" y="497" type="qcurve" smooth="yes"/>
      <point x="458" y="453" type="line"/>
      <point x="570" y="453" type="line"/>
      <point x="558" y="401" type="line"/>
      <point x="458" y="401" type="line"/>
      <point x="458" y="0" type="line"/>
      <point x="394" y="0" type="line"/>
      <point x="394" y="401" type="line"/>
      <point x="153" y="401" type="line"/>
      <point x="153" y="0" type="line"/>
      <point x="89" y="0" type="line"/>
      <point x="89" y="401" type="line"/>
      <point x="17" y="401" type="line"/>
      <point x="17" y="453" type="line"/>
      <point x="89" y="453" type="line"/>
      <point x="89" y="487" type="line" smooth="yes"/>
      <point x="89" y="539"/>
      <point x="118" y="619"/>
      <point x="169" y="673"/>
      <point x="240" y="700"/>
      <point x="283" y="700" type="qcurve" smooth="yes"/>
      <point x="315" y="700"/>
      <point x="362" y="688"/>
      <point x="379" y="678" type="qcurve"/>
      <point x="366" y="624" type="line"/>
      <point x="352" y="632"/>
      <point x="305" y="646"/>
      <point x="277" y="646" type="qcurve" smooth="yes"/>
      <point x="222" y="646"/>
      <point x="153" y="565"/>
      <point x="153" y="499" type="qcurve" smooth="yes"/>
      <point x="153" y="453" type="line"/>
      <point x="394" y="453" type="line"/>
      <point x="394" y="485" type="line" smooth="yes"/>
      <point x="394" y="539"/>
      <point x="427" y="625"/>
      <point x="485" y="684"/>
      <point x="565" y="716"/>
      <point x="612" y="716" type="qcurve" smooth="yes"/>
      <point x="655" y="716"/>
      <point x="723" y="697"/>
      <point x="749" y="676" type="qcurve"/>
      <point x="749" y="108" type="line" smooth="yes"/>
      <point x="749" y="76"/>
      <point x="783" y="35"/>
      <point x="807" y="30" type="qcurve"/>
    </contour>
  </outline>
</glyph>
<glyph name="twosuperior" format="1">
  <advance width="356"/>
  <unicode hex="00B2"/>
  <outline>
    <contour>
      <point x="37" y="247" type="line"/>
      <point x="37" y="261" type="line"/>
      <point x="144" y="352"/>
      <point x="239" y="480"/>
      <point x="239" y="524" type="qcurve" smooth="yes"/>
      <point x="239" y="566"/>
      <point x="188" y="609"/>
      <point x="144" y="609" type="qcurve" smooth="yes"/>
      <point x="92" y="609"/>
      <point x="54" y="585" type="qcurve"/>
      <point x="43" y="625" type="line"/>
      <point x="60" y="636"/>
      <point x="113" y="649"/>
      <point x="144" y="649" type="qcurve" smooth="yes"/>
      <point x="213" y="649"/>
      <point x="286" y="580"/>
      <point x="286" y="523" type="qcurve" smooth="yes"/>
      <point x="286" y="473"/>
      <point x="203" y="350"/>
      <point x="131" y="287" type="qcurve"/>
      <point x="305" y="287" type="line"/>
      <point x="305" y="247" type="line"/>
    </contour>
  </outline>
</glyph>
<glyph name="threesuperior" format="1">
  <advance width="317"/>
  <unicode hex="00B3"/>
  <outline>
    <contour>
      <point x="274" y="373" type="qcurve" smooth="yes"/>
      <point x="274" y="345"/>
      <point x="254" y="297"/>
      <point x="217" y="262"/>
      <point x="162" y="242"/>
      <point x="128" y="242" type="qcurve" smooth="yes"/>
      <point x="107" y="242"/>
      <point x="66" y="252"/>
      <point x="50" y="262" type="qcurve"/>
      <point x="37" y="310" type="line"/>
      <point x="60" y="294"/>
      <point x="109" y="282"/>
      <point x="128" y="282" type="qcurve" smooth="yes"/>
      <point x="168" y="282"/>
      <point x="227" y="330"/>
      <point x="227" y="373" type="qcurve" smooth="yes"/>
      <point x="227" y="406"/>
      <point x="178" y="450"/>
      <point x="145" y="450" type="qcurve" smooth="yes"/>
      <point x="140" y="450"/>
      <point x="127" y="449"/>
      <point x="122" y="447" type="qcurve"/>
      <point x="112" y="487" type="line"/>
      <point x="148" y="494"/>
      <point x="194" y="535"/>
      <point x="194" y="556" type="qcurve" smooth="yes"/>
      <point x="194" y="580"/>
      <point x="160" y="609"/>
      <point x="130" y="609" type="qcurve" smooth="yes"/>
      <point x="113" y="609"/>
      <point x="75" y="600"/>
      <point x="58" y="591" type="qcurve"/>
      <point x="47" y="631" type="line"/>
      <point x="84" y="649"/>
      <point x="130" y="649" type="qcurve" smooth="yes"/>
      <point x="181" y="649"/>
      <point x="241" y="599"/>
      <point x="241" y="556" type="qcurve" smooth="yes"/>
      <point x="241" y="532"/>
      <point x="214" y="492"/>
      <point x="191" y="481" type="qcurve"/>
      <point x="223" y="473"/>
      <point x="274" y="415"/>
    </contour>
  </outline>
</glyph>
<glyph name="acute" format="1">
  <advance width="360"/>
  <unicode hex="00B4"/>
  <outline>
    <contour>
      <point x="277" y="596" type="line"/>
      <point x="240" y="564"/>
      <point x="156" y="527"/>
      <point x="111" y="516" type="qcurve"/>
      <point x="75" y="551" type="line"/>
      <point x="126" y="565"/>
      <point x="227" y="617"/>
      <point x="264" y="655" type="qcurve"/>
      <point x="277" y="596" type="line"/>
    </contour>
  </outline>
</glyph>
<glyph name="paragraph" format="1">
  <advance width="408"/>
  <unicode hex="00B6"/>
  <outline>
    <contour>
      <point x="306" y="590" type="line"/>
      <point x="306" y="-52" type="line" smooth="yes"/>
      <point x="306" y="-87"/>
      <point x="286" y="-147"/>
      <point x="253" y="-193"/>
      <point x="209" y="-224"/>
      <point x="184" y="-230" type="qcurve"/>
      <point x="143" y="-190" type="line"/>
      <point x="191" y="-179"/>
      <point x="242" y="-109"/>
      <point x="242" y="-47" type="qcurve" smooth="yes"/>
      <point x="242" y="313" type="line"/>
      <point x="230" y="313" type="line" smooth="yes"/>
      <point x="194" y="313"/>
      <point x="128" y="334"/>
      <point x="77" y="375"/>
      <point x="47" y="436"/>
      <point x="47" y="477" type="qcurve" smooth="yes"/>
      <point x="47" y="518"/>
      <point x="77" y="580"/>
      <point x="128" y="622"/>
      <point x="195" y="643"/>
      <point x="231" y="643" type="qcurve" smooth="yes"/>
      <point x="373" y="643" type="line"/>
      <point x="373" y="590" type="line"/>
    </contour>
  </outline>
</glyph>
<glyph name="periodcentered" format="1">
  <advance width="187"/>
  <unicode hex="00B7"/>
  <unicode hex="2219"/>
  <outline>
    <contour>
      <point x="139" y="271" type="qcurve" smooth="yes"/>
      <point x="139" y="264"/>
      <point x="129" y="245"/>
      <point x="115" y="228"/>
      <point x="98" y="216"/>
      <point x="92" y="216" type="qcurve" smooth="yes"/>
      <point x="86" y="216"/>
      <point x="69" y="228"/>
      <point x="55" y="245"/>
      <point x="45" y="264"/>
      <point x="45" y="271" type="qcurve" smooth="yes"/>
      <point x="45" y="277"/>
      <point x="55" y="296"/>
      <point x="69" y="313"/>
      <point x="86" y="325"/>
      <point x="92" y="325" type="qcurve" smooth="yes"/>
      <point x="98" y="325"/>
      <point x="115" y="313"/>
      <point x="129" y="296"/>
      <point x="139" y="277"/>
    </contour>
  </outline>
</glyph>
<glyph name="cedilla" format="1">
  <advance width="360"/>
  <unicode hex="00B8"/>
  <outline>
    <contour>
      <point x="275" y="-128" type="qcurve" smooth="yes"/>
      <point x="275" y="-152"/>
      <point x="256" y="-189"/>
      <point x="226" y="-213"/>
      <point x="189" y="-225"/>
      <point x="170" y="-225" type="qcurve" smooth="yes"/>
      <point x="129" y="-225"/>
      <point x="95" y="-201" type="qcurve"/>
      <point x="104" y="-163" type="line"/>
      <point x="121" y="-176"/>
      <point x="153" y="-185"/>
      <point x="171" y="-185" type="qcurve" smooth="yes"/>
      <point x="192" y="-185"/>
      <point x="228" y="-157"/>
      <point x="228" y="-130" type="qcurve" smooth="yes"/>
      <point x="228" y="-101"/>
      <point x="189" y="-74"/>
      <point x="166" y="-74" type="qcurve" smooth="yes"/>
      <point x="161" y="-74"/>
      <point x="149" y="-74"/>
      <point x="143" y="-76" type="qcurve"/>
      <point x="162" y="2" type="line"/>
      <point x="193" y="2" type="line"/>
      <point x="184" y="-33" type="line"/>
      <point x="200" y="-34"/>
      <point x="232" y="-47"/>
      <point x="258" y="-72"/>
      <point x="275" y="-106"/>
    </contour>
  </outline>
</glyph>
<glyph name="onesuperior" format="1">
  <advance width="256"/>
  <unicode hex="00B9"/>
  <outline>
    <contour>
      <point x="121" y="248" type="line"/>
      <point x="121" y="602" type="line"/>
      <point x="41" y="596" type="line"/>
      <point x="52" y="639" type="line"/>
      <point x="168" y="649" type="line"/>
      <point x="168" y="248" type="line"/>
    </contour>
  </outline>
</glyph>
<glyph name="ordmasculine" format="1">
  <advance width="455"/>
  <unicode hex="00BA"/>
  <outline>
    <contour>
      <point x="420" y="460" type="qcurve" smooth="yes"/>
      <point x="420" y="419"/>
      <point x="391" y="349"/>
      <point x="339" y="299"/>
      <point x="269" y="271"/>
      <point x="228" y="271" type="qcurve" smooth="yes"/>
      <point x="187" y="271"/>
      <point x="116" y="299"/>
      <point x="64" y="349"/>
      <point x="35" y="419"/>
      <point x="35" y="460" type="qcurve" smooth="yes"/>
      <point x="35" y="501"/>
      <point x="64" y="571"/>
      <point x="116" y="621"/>
      <point x="187" y="649"/>
      <point x="228" y="649" type="qcurve" smooth="yes"/>
      <point x="269" y="649"/>
      <point x="339" y="621"/>
      <point x="391" y="571"/>
      <point x="420" y="501"/>
    </contour>
    <contour>
      <point x="269" y="151" type="qcurve" smooth="yes"/>
      <point x="269" y="145"/>
      <point x="261" y="128"/>
      <point x="248" y="112"/>
      <point x="234" y="101"/>
      <point x="228" y="101" type="qcurve" smooth="yes"/>
      <point x="222" y="101"/>
      <point x="208" y="112"/>
      <point x="196" y="128"/>
      <point x="187" y="145"/>
      <point x="187" y="151" type="qcurve" smooth="yes"/>
      <point x="187" y="157"/>
      <point x="196" y="175"/>
      <point x="208" y="191"/>
      <point x="222" y="202"/>
      <point x="228" y="202" type="qcurve" smooth="yes"/>
      <point x="234" y="202"/>
      <point x="248" y="191"/>
      <point x="261" y="175"/>
      <point x="269" y="157"/>
    </contour>
    <contour>
      <point x="364" y="460" type="qcurve" smooth="yes"/>
      <point x="364" y="491"/>
      <point x="343" y="543"/>
      <point x="306" y="581"/>
      <point x="256" y="602"/>
      <point x="228" y="602" type="qcurve" smooth="yes"/>
      <point x="199" y="602"/>
      <point x="150" y="581"/>
      <point x="112" y="543"/>
      <point x="91" y="491"/>
      <point x="91" y="460" type="qcurve" smooth="yes"/>
      <point x="91" y="429"/>
      <point x="112" y="377"/>
      <point x="150" y="339"/>
      <point x="199" y="318"/>
      <point x="228" y="318" type="qcurve" smooth="yes"/>
      <point x="256" y="318"/>
      <point x="306" y="339"/>
      <point x="343" y="377"/>
      <point x="364" y="429"/>
    </contour>
  </outline>
</glyph>
<glyph name="guillemotright" format="1">
  <advance width="415"/>
  <unicode hex="00BB"/>
  <outline>
    <contour>
      <point x="411" y="277" type="qcurve"/>
      <point x="361" y="245"/>
      <point x="277" y="155"/>
      <point x="251" y="108" type="qcurve"/>
      <point x="215" y="144" type="line"/>
      <point x="233" y="182"/>
      <point x="289" y="251"/>
      <point x="321" y="277" type="qcurve"/>
      <point x="289" y="303"/>
      <point x="233" y="372"/>
      <point x="215" y="410" type="qcurve"/>
      <point x="251" y="446" type="line"/>
      <point x="277" y="399"/>
      <point x="361" y="310"/>
    </contour>
    <contour>
      <point x="221" y="277" type="qcurve"/>
      <point x="170" y="245"/>
      <point x="87" y="155"/>
      <point x="61" y="108" type="qcurve"/>
      <point x="25" y="144" type="line"/>
      <point x="43" y="182"/>
      <point x="100" y="251"/>
      <point x="132" y="277" type="qcurve"/>
      <point x="100" y="303"/>
      <point x="43" y="372"/>
      <point x="25" y="410" type="qcurve"/>
      <point x="61" y="446" type="line"/>
      <point x="87" y="399"/>
      <point x="170" y="310"/>
    </contour>
  </outline>
</glyph>
<glyph name="onequarter" format="1">
  <advance width="720"/>
  <unicode hex="00BC"/>
  <outline>
    <contour>
      <point x="610" y="116" type="line"/>
      <point x="610" y="0" type="line"/>
      <point x="563" y="0" type="line"/>
      <point x="563" y="116" type="line"/>
      <point x="388" y="116" type="line"/>
      <point x="377" y="155" type="line"/>
      <point x="571" y="397" type="line"/>
      <point x="610" y="397" type="line"/>
      <point x="610" y="156" type="line"/>
      <point x="664" y="156" type="line"/>
      <point x="664" y="116" type="line"/>
    </contour>
    <contour>
      <point x="92" y="-14" type="line"/>
      <point x="65" y="8" type="line"/>
      <point x="586" y="652" type="line"/>
      <point x="612" y="629" type="line"/>
    </contour>
    <contour>
      <point x="121" y="248" type="line"/>
      <point x="121" y="602" type="line"/>
      <point x="41" y="596" type="line"/>
      <point x="52" y="639" type="line"/>
      <point x="168" y="649" type="line"/>
      <point x="168" y="248" type="line"/>
    </contour>
    <contour>
      <point x="564" y="332" type="line"/>
      <point x="554" y="317"/>
      <point x="533" y="287"/>
      <point x="521" y="272" type="qcurve" smooth="yes"/>
      <point x="430" y="156" type="line"/>
      <point x="563" y="156" type="line"/>
      <point x="563" y="273" type="line" smooth="yes"/>
      <point x="563" y="301"/>
      <point x="566" y="331" type="qcurve"/>
    </contour>
  </outline>
</glyph>
<glyph name="onehalf" format="1">
  <advance width="784"/>
  <unicode hex="00BD"/>
  <outline>
    <contour>
      <point x="466" y="0" type="line"/>
      <point x="466" y="13" type="line"/>
      <point x="572" y="104"/>
      <point x="668" y="233"/>
      <point x="668" y="277" type="qcurve" smooth="yes"/>
      <point x="668" y="319"/>
      <point x="617" y="362"/>
      <point x="572" y="362" type="qcurve" smooth="yes"/>
      <point x="546" y="362"/>
      <point x="501" y="349"/>
      <point x="482" y="338" type="qcurve"/>
      <point x="471" y="377" type="line"/>
      <point x="489" y="388"/>
      <point x="542" y="402"/>
      <point x="572" y="402" type="qcurve" smooth="yes"/>
      <point x="641" y="402"/>
      <point x="714" y="333"/>
      <point x="714" y="275" type="qcurve" smooth="yes"/>
      <point x="714" y="226"/>
      <point x="632" y="103"/>
      <point x="560" y="40" type="qcurve"/>
      <point x="733" y="40" type="line"/>
      <point x="733" y="0" type="line"/>
    </contour>
    <contour>
      <point x="92" y="-14" type="line"/>
      <point x="65" y="9" type="line"/>
      <point x="586" y="652" type="line"/>
      <point x="612" y="629" type="line"/>
    </contour>
    <contour>
      <point x="121" y="248" type="line"/>
      <point x="121" y="602" type="line"/>
      <point x="41" y="596" type="line"/>
      <point x="52" y="639" type="line"/>
      <point x="168" y="649" type="line"/>
      <point x="168" y="248" type="line"/>
    </contour>
  </outline>
</glyph>
<glyph name="threequarters" format="1">
  <advance width="763"/>
  <unicode hex="00BE"/>
  <outline>
    <contour>
      <point x="663" y="116" type="line"/>
      <point x="663" y="0" type="line"/>
      <point x="616" y="0" type="line"/>
      <point x="616" y="116" type="line"/>
      <point x="440" y="116" type="line"/>
      <point x="430" y="155" type="line"/>
      <point x="624" y="397" type="line"/>
      <point x="663" y="397" type="line"/>
      <point x="663" y="156" type="line"/>
      <point x="717" y="156" type="line"/>
      <point x="717" y="116" type="line"/>
    </contour>
    <contour>
      <point x="145" y="-14" type="line"/>
      <point x="117" y="8" type="line"/>
      <point x="639" y="652" type="line"/>
      <point x="665" y="629" type="line"/>
    </contour>
    <contour>
      <point x="274" y="373" type="qcurve" smooth="yes"/>
      <point x="274" y="345"/>
      <point x="254" y="297"/>
      <point x="217" y="262"/>
      <point x="162" y="242"/>
      <point x="128" y="242" type="qcurve" smooth="yes"/>
      <point x="107" y="242"/>
      <point x="66" y="252"/>
      <point x="50" y="262" type="qcurve"/>
      <point x="37" y="310" type="line"/>
      <point x="60" y="294"/>
      <point x="109" y="282"/>
      <point x="128" y="282" type="qcurve" smooth="yes"/>
      <point x="168" y="282"/>
      <point x="227" y="330"/>
      <point x="227" y="373" type="qcurve" smooth="yes"/>
      <point x="227" y="406"/>
      <point x="178" y="450"/>
      <point x="145" y="450" type="qcurve" smooth="yes"/>
      <point x="140" y="450"/>
      <point x="127" y="449"/>
      <point x="122" y="447" type="qcurve"/>
      <point x="112" y="487" type="line"/>
      <point x="148" y="494"/>
      <point x="194" y="535"/>
      <point x="194" y="556" type="qcurve" smooth="yes"/>
      <point x="194" y="580"/>
      <point x="160" y="609"/>
      <point x="130" y="609" type="qcurve" smooth="yes"/>
      <point x="113" y="609"/>
      <point x="75" y="600"/>
      <point x="58" y="591" type="qcurve"/>
      <point x="47" y="631" type="line"/>
      <point x="84" y="649"/>
      <point x="130" y="649" type="qcurve" smooth="yes"/>
      <point x="181" y="649"/>
      <point x="241" y="599"/>
      <point x="241" y="556" type="qcurve" smooth="yes"/>
      <point x="241" y="532"/>
      <point x="214" y="492"/>
      <point x="191" y="481" type="qcurve"/>
      <point x="223" y="473"/>
      <point x="274" y="415"/>
    </contour>
    <contour>
      <point x="617" y="332" type="line"/>
      <point x="607" y="317"/>
      <point x="586" y="287"/>
      <point x="574" y="272" type="qcurve" smooth="yes"/>
      <point x="483" y="156" type="line"/>
      <point x="616" y="156" type="line"/>
      <point x="616" y="273" type="line" smooth="yes"/>
      <point x="616" y="301"/>
      <point x="619" y="331" type="qcurve"/>
    </contour>
  </outline>
</glyph>
<glyph name="questiondown" format="1">
  <advance width="383"/>
  <unicode hex="00BF"/>
  <outline>
    <contour>
      <point x="256" y="594" type="qcurve" smooth="yes"/>
      <point x="256" y="588"/>
      <point x="246" y="569"/>
      <point x="232" y="552"/>
      <point x="215" y="540"/>
      <point x="209" y="540" type="qcurve" smooth="yes"/>
      <point x="202" y="540"/>
      <point x="186" y="552"/>
      <point x="172" y="569"/>
      <point x="162" y="588"/>
      <point x="162" y="594" type="qcurve" smooth="yes"/>
      <point x="162" y="601"/>
      <point x="172" y="620"/>
      <point x="186" y="637"/>
      <point x="202" y="649"/>
      <point x="209" y="649" type="qcurve" smooth="yes"/>
      <point x="215" y="649"/>
      <point x="232" y="637"/>
      <point x="246" y="620"/>
      <point x="256" y="601"/>
    </contour>
    <contour>
      <point x="356" y="-4" type="line"/>
      <point x="334" y="-25"/>
      <point x="266" y="-53"/>
      <point x="222" y="-53" type="qcurve" smooth="yes"/>
      <point x="183" y="-53"/>
      <point x="116" y="-30"/>
      <point x="67" y="14"/>
      <point x="40" y="78"/>
      <point x="40" y="118" type="qcurve" smooth="yes"/>
      <point x="40" y="169"/>
      <point x="95" y="251"/>
      <point x="134" y="292" type="qcurve" smooth="yes"/>
      <point x="163" y="322"/>
      <point x="190" y="385"/>
      <point x="190" y="421" type="qcurve" smooth="yes"/>
      <point x="190" y="438"/>
      <point x="188" y="472"/>
      <point x="185" y="485" type="qcurve"/>
      <point x="239" y="471" type="line"/>
      <point x="242" y="459"/>
      <point x="247" y="429"/>
      <point x="247" y="413" type="qcurve" smooth="yes"/>
      <point x="247" y="365"/>
      <point x="212" y="283"/>
      <point x="181" y="251" type="qcurve" smooth="yes"/>
      <point x="149" y="219"/>
      <point x="106" y="155"/>
      <point x="106" y="111" type="qcurve" smooth="yes"/>
      <point x="106" y="90"/>
      <point x="122" y="51"/>
      <point x="152" y="22"/>
      <point x="195" y="4"/>
      <point x="221" y="4" type="qcurve" smooth="yes"/>
      <point x="260" y="4"/>
      <point x="319" y="32"/>
      <point x="342" y="55" type="qcurve"/>
      <point x="356" y="-4" type="line"/>
    </contour>
  </outline>
</glyph>
<glyph name="AE" format="1">
  <advance width="800"/>
  <unicode hex="00C6"/>
  <outline>
    <contour>
      <point x="414" y="0" type="line"/>
      <point x="414" y="184" type="line"/>
      <point x="195" y="184" type="line"/>
      <point x="88" y="0" type="line"/>
      <point x="20" y="0" type="line"/>
      <point x="390" y="638" type="line"/>
      <point x="746" y="638" type="line"/>
      <point x="746" y="580" type="line"/>
      <point x="481" y="580" type="line"/>
      <point x="481" y="350" type="line"/>
      <point x="698" y="350" type="line"/>
      <point x="698" y="292" type="line"/>
      <point x="481" y="292" type="line"/>
      <point x="481" y="58" type="line"/>
      <point x="781" y="58" type="line"/>
      <point x="781" y="0" type="line"/>
    </contour>
    <contour>
      <point x="413" y="579" type="line"/>
      <point x="399" y="550"/>
      <point x="369" y="491"/>
      <point x="353" y="463" type="qcurve" smooth="yes"/>
      <point x="224" y="239" type="line"/>
      <point x="414" y="239" type="line"/>
      <point x="414" y="465" type="line" smooth="yes"/>
      <point x="414" y="497"/>
      <point x="414" y="548"/>
      <point x="415" y="578" type="qcurve"/>
    </contour>
  </outline>
</glyph>
<glyph name="Ccedilla" format="1">
  <advance width="598"/>
  <unicode hex="00C7"/>
  <outline>
    <contour>
      <point x="555" y="547" type="line"/>
      <point x="527" y="565"/>
      <point x="438" y="591"/>
      <point x="387" y="591" type="qcurve" smooth="yes"/>
      <point x="333" y="591"/>
      <point x="233" y="554"/>
      <point x="156" y="483"/>
      <point x="110" y="382"/>
      <point x="110" y="319" type="qcurve" smooth="yes"/>
      <point x="110" y="256"/>
      <point x="155" y="156"/>
      <point x="232" y="85"/>
      <point x="332" y="48"/>
      <point x="387" y="48" type="qcurve" smooth="yes"/>
      <point x="498" y="48"/>
      <point x="567" y="91" type="qcurve"/>
      <point x="551" y="23" type="line"/>
      <point x="521" y="6"/>
      <point x="442" y="-10"/>
      <point x="382" y="-11" type="qcurve"/>
      <point x="376" y="-33" type="line"/>
      <point x="392" y="-34"/>
      <point x="424" y="-47"/>
      <point x="450" y="-72"/>
      <point x="467" y="-106"/>
      <point x="467" y="-128" type="qcurve" smooth="yes"/>
      <point x="467" y="-152"/>
      <point x="448" y="-189"/>
      <point x="418" y="-213"/>
      <point x="381" y="-225"/>
      <point x="362" y="-225" type="qcurve" smooth="yes"/>
      <point x="321" y="-225"/>
      <point x="287" y="-201" type="qcurve"/>
      <point x="296" y="-163" type="line"/>
      <point x="313" y="-176"/>
      <point x="345" y="-185"/>
      <point x="363" y="-185" type="qcurve" smooth="yes"/>
      <point x="384" y="-185"/>
      <point x="420" y="-157"/>
      <point x="420" y="-130" type="qcurve" smooth="yes"/>
      <point x="420" y="-101"/>
      <point x="381" y="-74"/>
      <point x="358" y="-74" type="qcurve" smooth="yes"/>
      <point x="353" y="-74"/>
      <point x="341" y="-74"/>
      <point x="335" y="-76" type="qcurve"/>
      <point x="351" y="-10" type="line"/>
      <point x="290" y="-5"/>
      <point x="178" y="45"/>
      <point x="93" y="130"/>
      <point x="42" y="247"/>
      <point x="42" y="319" type="qcurve" smooth="yes"/>
      <point x="42" y="397"/>
      <point x="100" y="519"/>
      <point x="195" y="604"/>
      <point x="317" y="649"/>
      <point x="380" y="649" type="qcurve" smooth="yes"/>
      <point x="442" y="649"/>
      <point x="536" y="625"/>
      <point x="568" y="606" type="qcurve"/>
    </contour>
  </outline>
</glyph>
<glyph name="Eth" format="1">
  <advance width="648"/>
  <unicode hex="00D0"/>
  <outline>
    <contour>
      <point x="604" y="319" type="qcurve" smooth="yes"/>
      <point x="604" y="243"/>
      <point x="548" y="124"/>
      <point x="452" y="43"/>
      <point x="323" y="0"/>
      <point x="251" y="0" type="qcurve" smooth="yes"/>
      <point x="84" y="0" type="line"/>
      <point x="84" y="298" type="line"/>
      <point x="1" y="298" type="line"/>
      <point x="1" y="350" type="line"/>
      <point x="84" y="350" type="line"/>
      <point x="84" y="638" type="line"/>
      <point x="251" y="638" type="line" smooth="yes"/>
      <point x="323" y="638"/>
      <point x="452" y="595"/>
      <point x="548" y="514"/>
      <point x="604" y="395"/>
    </contour>
    <contour>
      <point x="536" y="319" type="qcurve" smooth="yes"/>
      <point x="536" y="383"/>
      <point x="491" y="480"/>
      <point x="412" y="546"/>
      <point x="303" y="580"/>
      <point x="240" y="580" type="qcurve" smooth="yes"/>
      <point x="151" y="580" type="line"/>
      <point x="151" y="350" type="line"/>
      <point x="291" y="350" type="line"/>
      <point x="279" y="298" type="line"/>
      <point x="151" y="298" type="line"/>
      <point x="151" y="58" type="line"/>
      <point x="240" y="58" type="line" smooth="yes"/>
      <point x="303" y="58"/>
      <point x="412" y="92"/>
      <point x="491" y="158"/>
      <point x="536" y="255"/>
    </contour>
  </outline>
</glyph>
<glyph name="multiply" format="1">
  <advance width="476"/>
  <unicode hex="00D7"/>
  <outline>
    <contour>
      <point x="366" y="115" type="line"/>
      <point x="240" y="241" type="line"/>
      <point x="114" y="114" type="line"/>
      <point x="82" y="146" type="line"/>
      <point x="209" y="272" type="line"/>
      <point x="83" y="398" type="line"/>
      <point x="114" y="430" type="line"/>
      <point x="240" y="303" type="line"/>
      <point x="365" y="428" type="line"/>
      <point x="396" y="397" type="line"/>
      <point x="271" y="272" type="line"/>
      <point x="397" y="146" type="line"/>
    </contour>
  </outline>
</glyph>
<glyph name="Oslash" format="1">
  <advance width="752"/>
  <unicode hex="00D8"/>
  <outline>
    <contour>
      <point x="710" y="320" type="qcurve" smooth="yes"/>
      <point x="710" y="245"/>
      <point x="655" y="123"/>
      <point x="563" y="36"/>
      <point x="442" y="-11"/>
      <point x="376" y="-11" type="qcurve" smooth="yes"/>
      <point x="323" y="-11"/>
      <point x="226" y="19"/>
      <point x="184" y="47" type="qcurve"/>
      <point x="124" y="-27" type="line"/>
      <point x="92" y="0" type="line"/>
      <point x="151" y="72" type="line"/>
      <point x="101" y="117"/>
      <point x="42" y="242"/>
      <point x="42" y="320" type="qcurve" smooth="yes"/>
      <point x="42" y="394"/>
      <point x="97" y="515"/>
      <point x="189" y="602"/>
      <point x="310" y="649"/>
      <point x="376" y="649" type="qcurve" smooth="yes"/>
      <point x="429" y="649"/>
      <point x="527" y="619"/>
      <point x="569" y="591" type="qcurve"/>
      <point x="628" y="664" type="line"/>
      <point x="660" y="637" type="line"/>
      <point x="602" y="565" type="line"/>
      <point x="651" y="522"/>
      <point x="710" y="398"/>
    </contour>
    <contour>
      <point x="642" y="320" type="qcurve" smooth="yes"/>
      <point x="642" y="381"/>
      <point x="599" y="481"/>
      <point x="562" y="516" type="qcurve"/>
      <point x="223" y="96" type="line"/>
      <point x="291" y="48"/>
      <point x="376" y="48" type="qcurve" smooth="yes"/>
      <point x="428" y="48"/>
      <point x="524" y="87"/>
      <point x="598" y="158"/>
      <point x="642" y="258"/>
    </contour>
    <contour>
      <point x="530" y="543" type="line"/>
      <point x="496" y="566"/>
      <point x="418" y="591"/>
      <point x="376" y="591" type="qcurve" smooth="yes"/>
      <point x="323" y="591"/>
      <point x="227" y="552"/>
      <point x="154" y="482"/>
      <point x="110" y="381"/>
      <point x="110" y="320" type="qcurve" smooth="yes"/>
      <point x="110" y="258"/>
      <point x="154" y="158"/>
      <point x="191" y="122" type="qcurve"/>
      <point x="530" y="543" type="line"/>
    </contour>
  </outline>
</glyph>
<glyph name="Thorn" format="1">
  <advance width="452"/>
  <unicode hex="00DE"/>
  <outline>
    <contour>
      <point x="434" y="391" type="qcurve" smooth="yes"/>
      <point x="434" y="350"/>
      <point x="403" y="286"/>
      <point x="352" y="241"/>
      <point x="286" y="218"/>
      <point x="251" y="218" type="qcurve" smooth="yes"/>
      <point x="136" y="218" type="line"/>
      <point x="136" y="0" type="line"/>
      <point x="69" y="0" type="line"/>
      <point x="69" y="640" type="line"/>
      <point x="136" y="640" type="line"/>
      <point x="136" y="564" type="line"/>
      <point x="247" y="564" type="line" smooth="yes"/>
      <point x="283" y="564"/>
      <point x="351" y="541"/>
      <point x="403" y="496"/>
      <point x="434" y="432"/>
    </contour>
    <contour>
      <point x="366" y="391" type="qcurve" smooth="yes"/>
      <point x="366" y="418"/>
      <point x="345" y="461"/>
      <point x="310" y="490"/>
      <point x="263" y="506"/>
      <point x="236" y="506" type="qcurve" smooth="yes"/>
      <point x="136" y="506" type="line"/>
      <point x="136" y="276" type="line"/>
      <point x="240" y="276" type="line" smooth="yes"/>
      <point x="265" y="276"/>
      <point x="311" y="291"/>
      <point x="345" y="321"/>
      <point x="366" y="364"/>
    </contour>
  </outline>
</glyph>
<glyph name="germandbls" format="1">
  <advance width="523"/>
  <unicode hex="00DF"/>
  <outline>
    <contour>
      <point x="490" y="118" type="qcurve" smooth="yes"/>
      <point x="490" y="61"/>
      <point x="407" y="-10"/>
      <point x="335" y="-10" type="qcurve" smooth="yes"/>
      <point x="293" y="-10"/>
      <point x="226" y="12"/>
      <point x="206" y="27" type="qcurve"/>
      <point x="206" y="90" type="line"/>
      <point x="232" y="70"/>
      <point x="294" y="44"/>
      <point x="336" y="44" type="qcurve" smooth="yes"/>
      <point x="374" y="44"/>
      <point x="427" y="82"/>
      <point x="427" y="115" type="qcurve" smooth="yes"/>
      <point x="427" y="147"/>
      <point x="381" y="188"/>
      <point x="343" y="202" type="qcurve" smooth="yes"/>
      <point x="280" y="225"/>
      <point x="212" y="289"/>
      <point x="212" y="343" type="qcurve" smooth="yes"/>
      <point x="212" y="398"/>
      <point x="295" y="464"/>
      <point x="359" y="464" type="qcurve"/>
      <point x="363" y="475"/>
      <point x="368" y="507"/>
      <point x="368" y="521" type="qcurve" smooth="yes"/>
      <point x="368" y="546"/>
      <point x="354" y="596"/>
      <point x="325" y="637"/>
      <point x="281" y="662"/>
      <point x="251" y="662" type="qcurve" smooth="yes"/>
      <point x="221" y="662"/>
      <point x="176" y="637"/>
      <point x="146" y="593"/>
      <point x="132" y="534"/>
      <point x="132" y="501" type="qcurve" smooth="yes"/>
      <point x="132" y="0" type="line"/>
      <point x="69" y="0" type="line"/>
      <point x="69" y="486" type="line" smooth="yes"/>
      <point x="69" y="602"/>
      <point x="168" y="716"/>
      <point x="251" y="716" type="qcurve" smooth="yes"/>
      <point x="292" y="716"/>
      <point x="358" y="687"/>
      <point x="405" y="635"/>
      <point x="431" y="559"/>
      <point x="431" y="513" type="qcurve" smooth="yes"/>
      <point x="431" y="489"/>
      <point x="420" y="435"/>
      <point x="414" y="417" type="qcurve"/>
      <point x="346" y="417"/>
      <point x="273" y="382"/>
      <point x="273" y="345" type="qcurve" smooth="yes"/>
      <point x="273" y="315"/>
      <point x="314" y="279"/>
      <point x="352" y="265" type="qcurve" smooth="yes"/>
      <point x="417" y="242"/>
      <point x="490" y="174"/>
    </contour>
  </outline>
</glyph>
<glyph name="agrave" format="1">
  <advance width="446"/>
  <unicode hex="00E0"/>
  <outline>
    <contour>
      <point x="382" y="-10" type="line"/>
      <point x="359" y="-5"/>
      <point x="319" y="33"/>
      <point x="314" y="59" type="qcurve"/>
      <point x="296" y="27"/>
      <point x="224" y="-10"/>
      <point x="182" y="-10" type="qcurve" smooth="yes"/>
      <point x="150" y="-10"/>
      <point x="97" y="11"/>
      <point x="58" y="47"/>
      <point x="37" y="95"/>
      <point x="37" y="123" type="qcurve" smooth="yes"/>
      <point x="37" y="156"/>
      <point x="61" y="206"/>
      <point x="102" y="241"/>
      <point x="154" y="260"/>
      <point x="182" y="263" type="qcurve" smooth="yes"/>
      <point x="303" y="275" type="line"/>
      <point x="303" y="318" type="line" smooth="yes"/>
      <point x="303" y="360"/>
      <point x="247" y="408"/>
      <point x="196" y="408" type="qcurve" smooth="yes"/>
      <point x="164" y="408"/>
      <point x="99" y="389"/>
      <point x="76" y="374" type="qcurve"/>
      <point x="63" y="427" type="line"/>
      <point x="89" y="445"/>
      <point x="161" y="463"/>
      <point x="199" y="463" type="qcurve" smooth="yes"/>
      <point x="235" y="463"/>
      <point x="297" y="443"/>
      <point x="342" y="405"/>
      <point x="367" y="348"/>
      <point x="367" y="312" type="qcurve" smooth="yes"/>
      <point x="367" y="105" type="line" smooth="yes"/>
      <point x="367" y="71"/>
      <point x="401" y="35"/>
      <point x="423" y="31" type="qcurve"/>
    </contour>
    <contour>
      <point x="303" y="222" type="line"/>
      <point x="192" y="212" type="line" smooth="yes"/>
      <point x="148" y="208"/>
      <point x="98" y="160"/>
      <point x="98" y="123" type="qcurve" smooth="yes"/>
      <point x="98" y="89"/>
      <point x="148" y="44"/>
      <point x="184" y="44" type="qcurve" smooth="yes"/>
      <point x="204" y="44"/>
      <point x="246" y="61"/>
      <point x="281" y="91"/>
      <point x="303" y="134"/>
      <point x="303" y="161" type="qcurve" smooth="yes"/>
    </contour>
    <contour>
      <point x="227" y="530" type="line"/>
      <point x="189" y="540"/>
      <point x="118" y="572"/>
      <point x="86" y="598" type="qcurve"/>
      <point x="97" y="649" type="line"/>
      <point x="129" y="617"/>
      <point x="215" y="572"/>
      <point x="258" y="560" type="qcurve"/>
    </contour>
  </outline>
</glyph>
<glyph name="acircumflex" format="1">
  <advance width="446"/>
  <unicode hex="00E2"/>
  <outline>
    <contour>
      <point x="382" y="-10" type="line"/>
      <point x="359" y="-5"/>
      <point x="319" y="33"/>
      <point x="314" y="59" type="qcurve"/>
      <point x="296" y="27"/>
      <point x="224" y="-10"/>
      <point x="182" y="-10" type="qcurve" smooth="yes"/>
      <point x="150" y="-10"/>
      <point x="97" y="11"/>
      <point x="58" y="47"/>
      <point x="37" y="95"/>
      <point x="37" y="123" type="qcurve" smooth="yes"/>
      <point x="37" y="156"/>
      <point x="61" y="206"/>
      <point x="102" y="241"/>
      <point x="154" y="260"/>
      <point x="182" y="263" type="qcurve" smooth="yes"/>
      <point x="303" y="275" type="line"/>
      <point x="303" y="318" type="line" smooth="yes"/>
      <point x="303" y="360"/>
      <point x="247" y="408"/>
      <point x="196" y="408" type="qcurve" smooth="yes"/>
      <point x="164" y="408"/>
      <point x="99" y="389"/>
      <point x="76" y="374" type="qcurve"/>
      <point x="63" y="427" type="line"/>
      <point x="89" y="445"/>
      <point x="161" y="463"/>
      <point x="199" y="463" type="qcurve" smooth="yes"/>
      <point x="235" y="463"/>
      <point x="297" y="443"/>
      <point x="342" y="405"/>
      <point x="367" y="348"/>
      <point x="367" y="312" type="qcurve" smooth="yes"/>
      <point x="367" y="105" type="line" smooth="yes"/>
      <point x="367" y="71"/>
      <point x="401" y="35"/>
      <point x="423" y="31" type="qcurve"/>
    </contour>
    <contour>
      <point x="303" y="222" type="line"/>
      <point x="192" y="212" type="line" smooth="yes"/>
      <point x="148" y="208"/>
      <point x="98" y="160"/>
      <point x="98" y="123" type="qcurve" smooth="yes"/>
      <point x="98" y="89"/>
      <point x="148" y="44"/>
      <point x="184" y="44" type="qcurve" smooth="yes"/>
      <point x="204" y="44"/>
      <point x="246" y="61"/>
      <point x="281" y="91"/>
      <point x="303" y="134"/>
      <point x="303" y="161" type="qcurve" smooth="yes"/>
    </contour>
    <contour>
      <point x="284" y="531" type="line"/>
      <point x="259" y="542"/>
      <point x="220" y="569"/>
      <point x="203" y="589" type="qcurve"/>
      <point x="186" y="569"/>
      <point x="146" y="542"/>
      <point x="121" y="531" type="qcurve"/>
      <point x="92" y="559" type="line"/>
      <point x="125" y="574"/>
      <point x="181" y="624"/>
      <point x="203" y="654" type="qcurve"/>
      <point x="224" y="624"/>
      <point x="280" y="574"/>
      <point x="313" y="559" type="qcurve"/>
    </contour>
  </outline>
</glyph>
<glyph name="adieresis" format="1">
  <advance width="446"/>
  <unicode hex="00E4"/>
  <outline>
    <contour>
      <point x="382" y="-10" type="line"/>
      <point x="359" y="-5"/>
      <point x="319" y="33"/>
      <point x="314" y="59" type="qcurve"/>
      <point x="296" y="27"/>
      <point x="224" y="-10"/>
      <point x="182" y="-10" type="qcurve" smooth="yes"/>
      <point x="150" y="-10"/>
      <point x="97" y="11"/>
      <point x="58" y="47"/>
      <point x="37" y="95"/>
      <point x="37" y="123" type="qcurve" smooth="yes"/>
      <point x="37" y="156"/>
      <point x="61" y="206"/>
      <point x="102" y="241"/>
      <point x="154" y="260"/>
      <point x="182" y="263" type="qcurve" smooth="yes"/>
      <point x="303" y="275" type="line"/>
      <point x="303" y="318" type="line" smooth="yes"/>
      <point x="303" y="360"/>
      <point x="247" y="408"/>
      <point x="196" y="408" type="qcurve" smooth="yes"/>
      <point x="164" y="408"/>
      <point x="99" y="389"/>
      <point x="76" y="374" type="qcurve"/>
      <point x="63" y="427" type="line"/>
      <point x="89" y="445"/>
      <point x="161" y="463"/>
      <point x="199" y="463" type="qcurve" smooth="yes"/>
      <point x="235" y="463"/>
      <point x="297" y="443"/>
      <point x="342" y="405"/>
      <point x="367" y="348"/>
      <point x="367" y="312" type="qcurve" smooth="yes"/>
      <point x="367" y="105" type="line" smooth="yes"/>
      <point x="367" y="71"/>
      <point x="401" y="35"/>
      <point x="423" y="31" type="qcurve"/>
    </contour>
    <contour>
      <point x="303" y="222" type="line"/>
      <point x="192" y="212" type="line" smooth="yes"/>
      <point x="148" y="208"/>
      <point x="98" y="160"/>
      <point x="98" y="123" type="qcurve" smooth="yes"/>
      <point x="98" y="89"/>
      <point x="148" y="44"/>
      <point x="184" y="44" type="qcurve" smooth="yes"/>
      <point x="204" y="44"/>
      <point x="246" y="61"/>
      <point x="281" y="91"/>
      <point x="303" y="134"/>
      <point x="303" y="161" type="qcurve" smooth="yes"/>
    </contour>
    <contour>
      <point x="299" y="573" type="qcurve" smooth="yes"/>
      <point x="299" y="568"/>
      <point x="292" y="553"/>
      <point x="281" y="540"/>
      <point x="269" y="531"/>
      <point x="264" y="531" type="qcurve" smooth="yes"/>
      <point x="259" y="531"/>
      <point x="247" y="540"/>
      <point x="236" y="553"/>
      <point x="229" y="568"/>
      <point x="229" y="573" type="qcurve" smooth="yes"/>
      <point x="229" y="579"/>
      <point x="236" y="593"/>
      <point x="247" y="607"/>
      <point x="259" y="616"/>
      <point x="264" y="616" type="qcurve" smooth="yes"/>
      <point x="269" y="616"/>
      <point x="281" y="607"/>
      <point x="292" y="593"/>
      <point x="299" y="579"/>
    </contour>
    <contour>
      <point x="183" y="573" type="qcurve" smooth="yes"/>
      <point x="183" y="568"/>
      <point x="176" y="553"/>
      <point x="165" y="540"/>
      <point x="152" y="531"/>
      <point x="147" y="531" type="qcurve" smooth="yes"/>
      <point x="142" y="531"/>
      <point x="130" y="540"/>
      <point x="119" y="553"/>
      <point x="111" y="568"/>
      <point x="111" y="573" type="qcurve" smooth="yes"/>
      <point x="111" y="579"/>
      <point x="119" y="593"/>
      <point x="130" y="607"/>
      <point x="142" y="616"/>
      <point x="147" y="616" type="qcurve" smooth="yes"/>
      <point x="152" y="616"/>
      <point x="165" y="607"/>
      <point x="176" y="593"/>
      <point x="183" y="579"/>
    </contour>
  </outline>
</glyph>
<glyph name="aring" format="1">
  <advance width="446"/>
  <unicode hex="00E5"/>
  <outline>
    <contour>
      <point x="382" y="-10" type="line"/>
      <point x="359" y="-5"/>
      <point x="319" y="33"/>
      <point x="314" y="59" type="qcurve"/>
      <point x="296" y="27"/>
      <point x="224" y="-10"/>
      <point x="182" y="-10" type="qcurve" smooth="yes"/>
      <point x="150" y="-10"/>
      <point x="97" y="11"/>
      <point x="58" y="47"/>
      <point x="37" y="95"/>
      <point x="37" y="123" type="qcurve" smooth="yes"/>
      <point x="37" y="156"/>
      <point x="61" y="206"/>
      <point x="102" y="241"/>
      <point x="154" y="260"/>
      <point x="182" y="263" type="qcurve" smooth="yes"/>
      <point x="303" y="275" type="line"/>
      <point x="303" y="318" type="line" smooth="yes"/>
      <point x="303" y="360"/>
      <point x="247" y="408"/>
      <point x="196" y="408" type="qcurve" smooth="yes"/>
      <point x="164" y="408"/>
      <point x="99" y="389"/>
      <point x="76" y="374" type="qcurve"/>
      <point x="63" y="427" type="line"/>
      <point x="89" y="445"/>
      <point x="161" y="463"/>
      <point x="199" y="463" type="qcurve" smooth="yes"/>
      <point x="235" y="463"/>
      <point x="297" y="443"/>
      <point x="342" y="405"/>
      <point x="367" y="348"/>
      <point x="367" y="312" type="qcurve" smooth="yes"/>
      <point x="367" y="105" type="line" smooth="yes"/>
      <point x="367" y="71"/>
      <point x="401" y="35"/>
      <point x="423" y="31" type="qcurve"/>
    </contour>
    <contour>
      <point x="303" y="222" type="line"/>
      <point x="192" y="212" type="line" smooth="yes"/>
      <point x="148" y="208"/>
      <point x="98" y="160"/>
      <point x="98" y="123" type="qcurve" smooth="yes"/>
      <point x="98" y="89"/>
      <point x="148" y="44"/>
      <point x="184" y="44" type="qcurve" smooth="yes"/>
      <point x="204" y="44"/>
      <point x="246" y="61"/>
      <point x="281" y="91"/>
      <point x="303" y="134"/>
      <point x="303" y="161" type="qcurve" smooth="yes"/>
    </contour>
    <contour>
      <point x="288" y="608" type="qcurve" smooth="yes"/>
      <point x="288" y="590"/>
      <point x="274" y="559"/>
      <point x="251" y="535"/>
      <point x="220" y="522"/>
      <point x="202" y="522" type="qcurve" smooth="yes"/>
      <point x="185" y="522"/>
      <point x="154" y="535"/>
      <point x="131" y="559"/>
      <point x="117" y="590"/>
      <point x="117" y="608" type="qcurve" smooth="yes"/>
      <point x="117" y="626"/>
      <point x="131" y="657"/>
      <point x="154" y="680"/>
      <point x="185" y="693"/>
      <point x="202" y="693" type="qcurve" smooth="yes"/>
      <point x="220" y="693"/>
      <point x="251" y="680"/>
      <point x="274" y="657"/>
      <point x="288" y="626"/>
    </contour>
    <contour>
      <point x="253" y="608" type="qcurve" smooth="yes"/>
      <point x="253" y="630"/>
      <point x="224" y="658"/>
      <point x="202" y="658" type="qcurve" smooth="yes"/>
      <point x="180" y="658"/>
      <point x="151" y="630"/>
      <point x="151" y="608" type="qcurve" smooth="yes"/>
      <point x="151" y="586"/>
      <point x="180" y="557"/>
      <point x="202" y="557" type="qcurve" smooth="yes"/>
      <point x="224" y="557"/>
      <point x="253" y="586"/>
    </contour>
  </outline>
</glyph>
<glyph name="ae" format="1">
  <advance width="750"/>
  <unicode hex="00E6"/>
  <outline>
    <contour>
      <point x="713" y="294" type="qcurve" smooth="yes"/>
      <point x="713" y="276"/>
      <point x="710" y="263" type="qcurve"/>
      <point x="673" y="226" type="line"/>
      <point x="370" y="226" type="line"/>
      <point x="368" y="192"/>
      <point x="392" y="127"/>
      <point x="439" y="77"/>
      <point x="507" y="46"/>
      <point x="549" y="46" type="qcurve" smooth="yes"/>
      <point x="590" y="46"/>
      <point x="658" y="67"/>
      <point x="691" y="91" type="qcurve"/>
      <point x="673" y="21" type="line"/>
      <point x="647" y="6"/>
      <point x="584" y="-10"/>
      <point x="542" y="-10" type="qcurve" smooth="yes"/>
      <point x="479" y="-10"/>
      <point x="376" y="46"/>
      <point x="344" y="94" type="qcurve"/>
      <point x="323" y="43"/>
      <point x="236" y="-10"/>
      <point x="184" y="-10" type="qcurve" smooth="yes"/>
      <point x="151" y="-10"/>
      <point x="96" y="10"/>
      <point x="58" y="46"/>
      <point x="37" y="95"/>
      <point x="37" y="124" type="qcurve" smooth="yes"/>
      <point x="37" y="157"/>
      <point x="61" y="208"/>
      <point x="102" y="242"/>
      <point x="156" y="262"/>
      <point x="187" y="265" type="qcurve" smooth="yes"/>
      <point x="303" y="276" type="line"/>
      <point x="303" y="318" type="line" smooth="yes"/>
      <point x="303" y="360"/>
      <point x="247" y="408"/>
      <point x="196" y="408" type="qcurve" smooth="yes"/>
      <point x="164" y="408"/>
      <point x="99" y="389"/>
      <point x="76" y="374" type="qcurve"/>
      <point x="63" y="427" type="line"/>
      <point x="89" y="445"/>
      <point x="161" y="463"/>
      <point x="199" y="463" type="qcurve" smooth="yes"/>
      <point x="255" y="463"/>
      <point x="337" y="415"/>
      <point x="351" y="370" type="qcurve"/>
      <point x="381" y="414"/>
      <point x="472" y="463"/>
      <point x="522" y="463" type="qcurve" smooth="yes"/>
      <point x="568" y="463"/>
      <point x="640" y="434"/>
      <point x="688" y="386"/>
      <point x="713" y="325"/>
    </contour>
    <contour>
      <point x="649" y="291" type="qcurve" smooth="yes"/>
      <point x="649" y="311"/>
      <point x="633" y="352"/>
      <point x="602" y="386"/>
      <point x="556" y="408"/>
      <point x="525" y="408" type="qcurve" smooth="yes"/>
      <point x="497" y="408"/>
      <point x="447" y="386"/>
      <point x="406" y="350"/>
      <point x="379" y="303"/>
      <point x="375" y="278" type="qcurve"/>
      <point x="648" y="278" type="line"/>
      <point x="649" y="282"/>
    </contour>
    <contour>
      <point x="303" y="223" type="line"/>
      <point x="197" y="213" type="line" smooth="yes"/>
      <point x="149" y="208"/>
      <point x="98" y="161"/>
      <point x="98" y="123" type="qcurve" smooth="yes"/>
      <point x="98" y="88"/>
      <point x="148" y="44"/>
      <point x="184" y="44" type="qcurve" smooth="yes"/>
      <point x="204" y="44"/>
      <point x="246" y="61"/>
      <point x="281" y="91"/>
      <point x="303" y="134"/>
      <point x="303" y="161" type="qcurve" smooth="yes"/>
    </contour>
  </outline>
</glyph>
<glyph name="ccedilla" format="1">
  <advance width="457"/>
  <unicode hex="00E7"/>
  <outline>
    <contour>
      <point x="409" y="372" type="line"/>
      <point x="383" y="389"/>
      <point x="318" y="407"/>
      <point x="283" y="407" type="qcurve" smooth="yes"/>
      <point x="245" y="407"/>
      <point x="178" y="381"/>
      <point x="129" y="333"/>
      <point x="101" y="266"/>
      <point x="101" y="226" type="qcurve" smooth="yes"/>
      <point x="101" y="186"/>
      <point x="130" y="120"/>
      <point x="179" y="72"/>
      <point x="246" y="46"/>
      <point x="285" y="46" type="qcurve" smooth="yes"/>
      <point x="320" y="46"/>
      <point x="383" y="61"/>
      <point x="418" y="79" type="qcurve"/>
      <point x="402" y="15" type="line"/>
      <point x="377" y="1"/>
      <point x="306" y="-11"/>
      <point x="277" y="-10" type="qcurve"/>
      <point x="272" y="-29" type="line"/>
      <point x="285" y="-29"/>
      <point x="313" y="-41"/>
      <point x="335" y="-61"/>
      <point x="349" y="-91"/>
      <point x="349" y="-109" type="qcurve" smooth="yes"/>
      <point x="349" y="-130"/>
      <point x="333" y="-161"/>
      <point x="308" y="-181"/>
      <point x="277" y="-191"/>
      <point x="261" y="-191" type="qcurve" smooth="yes"/>
      <point x="225" y="-191"/>
      <point x="196" y="-171" type="qcurve"/>
      <point x="204" y="-139" type="line"/>
      <point x="219" y="-150"/>
      <point x="246" y="-157"/>
      <point x="261" y="-157" type="qcurve" smooth="yes"/>
      <point x="279" y="-157"/>
      <point x="310" y="-133"/>
      <point x="310" y="-110" type="qcurve" smooth="yes"/>
      <point x="310" y="-87"/>
      <point x="277" y="-63"/>
      <point x="258" y="-63" type="qcurve" smooth="yes"/>
      <point x="253" y="-63"/>
      <point x="242" y="-62"/>
      <point x="237" y="-64" type="qcurve"/>
      <point x="251" y="-8" type="line"/>
      <point x="207" y="-3"/>
      <point x="129" y="34"/>
      <point x="71" y="94"/>
      <point x="37" y="176"/>
      <point x="37" y="226" type="qcurve" smooth="yes"/>
      <point x="37" y="280"/>
      <point x="76" y="368"/>
      <point x="143" y="429"/>
      <point x="231" y="463"/>
      <point x="280" y="463" type="qcurve" smooth="yes"/>
      <point x="324" y="463"/>
      <point x="396" y="443"/>
      <point x="422" y="428" type="qcurve"/>
    </contour>
  </outline>
</glyph>
<glyph name="ecircumflex" format="1">
  <advance width="483"/>
  <unicode hex="00EA"/>
  <outline>
    <contour>
      <point x="446" y="294" type="qcurve" smooth="yes"/>
      <point x="446" y="286"/>
      <point x="446" y="270"/>
      <point x="444" y="263" type="qcurve" smooth="yes"/>
      <point x="406" y="226" type="line"/>
      <point x="103" y="226" type="line"/>
      <point x="101" y="192"/>
      <point x="125" y="127"/>
      <point x="173" y="77"/>
      <point x="241" y="46"/>
      <point x="283" y="46" type="qcurve" smooth="yes"/>
      <point x="324" y="46"/>
      <point x="392" y="67"/>
      <point x="425" y="91" type="qcurve"/>
      <point x="407" y="21" type="line"/>
      <point x="381" y="6"/>
      <point x="318" y="-10"/>
      <point x="276" y="-10" type="qcurve" smooth="yes"/>
      <point x="227" y="-10"/>
      <point x="140" y="25"/>
      <point x="75" y="87"/>
      <point x="37" y="174"/>
      <point x="37" y="226" type="qcurve" smooth="yes"/>
      <point x="37" y="281"/>
      <point x="75" y="368"/>
      <point x="137" y="430"/>
      <point x="215" y="463"/>
      <point x="256" y="463" type="qcurve" smooth="yes"/>
      <point x="302" y="463"/>
      <point x="373" y="434"/>
      <point x="421" y="386"/>
      <point x="446" y="325"/>
    </contour>
    <contour>
      <point x="383" y="291" type="qcurve" smooth="yes"/>
      <point x="383" y="311"/>
      <point x="367" y="352"/>
      <point x="336" y="386"/>
      <point x="290" y="408"/>
      <point x="259" y="408" type="qcurve" smooth="yes"/>
      <point x="231" y="408"/>
      <point x="180" y="386"/>
      <point x="140" y="350"/>
      <point x="112" y="303"/>
      <point x="108" y="278" type="qcurve"/>
      <point x="382" y="278" type="line"/>
      <point x="383" y="282"/>
    </contour>
    <contour>
      <point x="341" y="531" type="line"/>
      <point x="317" y="542"/>
      <point x="278" y="569"/>
      <point x="261" y="589" type="qcurve"/>
      <point x="244" y="569"/>
      <point x="203" y="542"/>
      <point x="179" y="531" type="qcurve"/>
      <point x="150" y="559" type="line"/>
      <point x="182" y="574"/>
      <point x="239" y="624"/>
      <point x="261" y="654" type="qcurve"/>
      <point x="282" y="624"/>
      <point x="338" y="574"/>
      <point x="371" y="559" type="qcurve"/>
    </contour>
  </outline>
</glyph>
<glyph name="edieresis" format="1">
  <advance width="483"/>
  <unicode hex="00EB"/>
  <outline>
    <contour>
      <point x="446" y="294" type="qcurve" smooth="yes"/>
      <point x="446" y="286"/>
      <point x="446" y="270"/>
      <point x="444" y="263" type="qcurve" smooth="yes"/>
      <point x="406" y="226" type="line"/>
      <point x="103" y="226" type="line"/>
      <point x="101" y="192"/>
      <point x="125" y="127"/>
      <point x="173" y="77"/>
      <point x="241" y="46"/>
      <point x="283" y="46" type="qcurve" smooth="yes"/>
      <point x="324" y="46"/>
      <point x="392" y="67"/>
      <point x="425" y="91" type="qcurve"/>
      <point x="407" y="21" type="line"/>
      <point x="381" y="6"/>
      <point x="318" y="-10"/>
      <point x="276" y="-10" type="qcurve" smooth="yes"/>
      <point x="227" y="-10"/>
      <point x="140" y="25"/>
      <point x="75" y="87"/>
      <point x="37" y="174"/>
      <point x="37" y="226" type="qcurve" smooth="yes"/>
      <point x="37" y="281"/>
      <point x="75" y="368"/>
      <point x="137" y="430"/>
      <point x="215" y="463"/>
      <point x="256" y="463" type="qcurve" smooth="yes"/>
      <point x="302" y="463"/>
      <point x="373" y="434"/>
      <point x="421" y="386"/>
      <point x="446" y="325"/>
    </contour>
    <contour>
      <point x="383" y="291" type="qcurve" smooth="yes"/>
      <point x="383" y="311"/>
      <point x="367" y="352"/>
      <point x="336" y="386"/>
      <point x="290" y="408"/>
      <point x="259" y="408" type="qcurve" smooth="yes"/>
      <point x="231" y="408"/>
      <point x="180" y="386"/>
      <point x="140" y="350"/>
      <point x="112" y="303"/>
      <point x="108" y="278" type="qcurve"/>
      <point x="382" y="278" type="line"/>
      <point x="383" y="282"/>
    </contour>
    <contour>
      <point x="351" y="573" type="qcurve" smooth="yes"/>
      <point x="351" y="568"/>
      <point x="344" y="553"/>
      <point x="333" y="540"/>
      <point x="321" y="531"/>
      <point x="316" y="531" type="qcurve" smooth="yes"/>
      <point x="311" y="531"/>
      <point x="298" y="540"/>
      <point x="287" y="553"/>
      <point x="280" y="568"/>
      <point x="280" y="573" type="qcurve" smooth="yes"/>
      <point x="280" y="579"/>
      <point x="287" y="593"/>
      <point x="298" y="607"/>
      <point x="311" y="616"/>
      <point x="316" y="616" type="qcurve" smooth="yes"/>
      <point x="321" y="616"/>
      <point x="333" y="607"/>
      <point x="344" y="593"/>
      <point x="351" y="579"/>
    </contour>
    <contour>
      <point x="234" y="573" type="qcurve" smooth="yes"/>
      <point x="234" y="568"/>
      <point x="227" y="553"/>
      <point x="216" y="540"/>
      <point x="204" y="531"/>
      <point x="199" y="531" type="qcurve" smooth="yes"/>
      <point x="194" y="531"/>
      <point x="182" y="540"/>
      <point x="171" y="553"/>
      <point x="163" y="568"/>
      <point x="163" y="573" type="qcurve" smooth="yes"/>
      <point x="163" y="579"/>
      <point x="171" y="593"/>
      <point x="182" y="607"/>
      <point x="194" y="616"/>
      <point x="199" y="616" type="qcurve" smooth="yes"/>
      <point x="204" y="616"/>
      <point x="216" y="607"/>
      <point x="227" y="593"/>
      <point x="234" y="579"/>
    </contour>
  </outline>
</glyph>
<glyph name="igrave" format="1">
  <advance width="230"/>
  <unicode hex="00EC"/>
  <outline>
    <contour>
      <point x="83" y="0" type="line"/>
      <point x="83" y="453" type="line"/>
      <point x="147" y="453" type="line"/>
      <point x="147" y="0" type="line"/>
    </contour>
    <contour>
      <point x="141" y="530" type="line"/>
      <point x="103" y="540"/>
      <point x="32" y="572"/>
      <point x="0" y="598" type="qcurve"/>
      <point x="11" y="649" type="line"/>
      <point x="43" y="617"/>
      <point x="129" y="572"/>
      <point x="172" y="560" type="qcurve"/>
    </contour>
  </outline>
</glyph>
<glyph name="iacute" format="1">
  <advance width="230"/>
  <unicode hex="00ED"/>
  <outline>
    <contour>
      <point x="83" y="0" type="line"/>
      <point x="83" y="453" type="line"/>
      <point x="147" y="453" type="line"/>
      <point x="147" y="0" type="line"/>
    </contour>
    <contour>
      <point x="230" y="598" type="line"/>
      <point x="198" y="572"/>
      <point x="127" y="540"/>
      <point x="89" y="530" type="qcurve"/>
      <point x="58" y="560" type="line"/>
      <point x="101" y="572"/>
      <point x="187" y="617"/>
      <point x="219" y="649" type="qcurve"/>
      <point x="230" y="598" type="line"/>
    </contour>
  </outline>
</glyph>
<glyph name="icircumflex" format="1">
  <advance width="230"/>
  <unicode hex="00EE"/>
  <outline>
    <contour>
      <point x="83" y="0" type="line"/>
      <point x="83" y="453" type="line"/>
      <point x="147" y="453" type="line"/>
      <point x="147" y="0" type="line"/>
    </contour>
    <contour>
      <point x="196" y="531" type="line"/>
      <point x="171" y="542"/>
      <point x="132" y="569"/>
      <point x="115" y="589" type="qcurve"/>
      <point x="98" y="569"/>
      <point x="58" y="542"/>
      <point x="33" y="531" type="qcurve"/>
      <point x="4" y="559" type="line"/>
      <point x="37" y="574"/>
      <point x="93" y="624"/>
      <point x="115" y="654" type="qcurve"/>
      <point x="136" y="624"/>
      <point x="192" y="574"/>
      <point x="225" y="559" type="qcurve"/>
    </contour>
  </outline>
</glyph>
<glyph name="idieresis" format="1">
  <advance width="230"/>
  <unicode hex="00EF"/>
  <outline>
    <contour>
      <point x="83" y="0" type="line"/>
      <point x="83" y="453" type="line"/>
      <point x="147" y="453" type="line"/>
      <point x="147" y="0" type="line"/>
    </contour>
    <contour>
      <point x="208" y="573" type="qcurve" smooth="yes"/>
      <point x="208" y="568"/>
      <point x="201" y="553"/>
      <point x="190" y="540"/>
      <point x="178" y="531"/>
      <point x="173" y="531" type="qcurve" smooth="yes"/>
      <point x="168" y="531"/>
      <point x="156" y="540"/>
      <point x="145" y="553"/>
      <point x="138" y="568"/>
      <point x="138" y="573" type="qcurve" smooth="yes"/>
      <point x="138" y="579"/>
      <point x="145" y="593"/>
      <point x="156" y="607"/>
      <point x="168" y="616"/>
      <point x="173" y="616" type="qcurve" smooth="yes"/>
      <point x="178" y="616"/>
      <point x="190" y="607"/>
      <point x="201" y="593"/>
      <point x="208" y="579"/>
    </contour>
    <contour>
      <point x="92" y="573" type="qcurve" smooth="yes"/>
      <point x="92" y="568"/>
      <point x="85" y="553"/>
      <point x="74" y="540"/>
      <point x="61" y="531"/>
      <point x="56" y="531" type="qcurve" smooth="yes"/>
      <point x="51" y="531"/>
      <point x="39" y="540"/>
      <point x="28" y="553"/>
      <point x="20" y="568"/>
      <point x="20" y="573" type="qcurve" smooth="yes"/>
      <point x="20" y="579"/>
      <point x="28" y="593"/>
      <point x="39" y="607"/>
      <point x="51" y="616"/>
      <point x="56" y="616" type="qcurve" smooth="yes"/>
      <point x="61" y="616"/>
      <point x="74" y="607"/>
      <point x="85" y="593"/>
      <point x="92" y="579"/>
    </contour>
  </outline>
</glyph>
